%TF.GenerationSoftware,KiCad,Pcbnew,9.0.6*%
%TF.CreationDate,2026-08-18T07:10:22-07:00*%
%TF.ProjectId,Project 1_panel,50726f6a-6563-4742-9031-5f70616e656c,rev?*%
%TF.SameCoordinates,Original*%
%TF.FileFunction,Copper,L1,Top*%
%TF.FilePolarity,Positive*%
%FSLAX46Y46*%
G04 Gerber Fmt 4.6, Leading zero omitted, Abs format (unit mm)*
G04 Created by KiCad (PCBNEW 9.0.6) date 2026-08-18 07:10:22*
%MOMM*%
%LPD*%
G01*
G04 APERTURE LIST*
G04 Aperture macros list*
%AMRoundRect*
0 Rectangle with rounded corners*
0 $1 Rounding radius*
0 $2 $3 $4 $5 $6 $7 $8 $9 X,Y pos of 4 corners*
0 Add a 4 corners polygon primitive as box body*
4,1,4,$2,$3,$4,$5,$6,$7,$8,$9,$2,$3,0*
0 Add four circle primitives for the rounded corners*
1,1,$1+$1,$2,$3*
1,1,$1+$1,$4,$5*
1,1,$1+$1,$6,$7*
1,1,$1+$1,$8,$9*
0 Add four rect primitives between the rounded corners*
20,1,$1+$1,$2,$3,$4,$5,0*
20,1,$1+$1,$4,$5,$6,$7,0*
20,1,$1+$1,$6,$7,$8,$9,0*
20,1,$1+$1,$8,$9,$2,$3,0*%
G04 Aperture macros list end*
%TA.AperFunction,SMDPad,CuDef*%
%ADD10RoundRect,0.250000X-0.650000X0.412500X-0.650000X-0.412500X0.650000X-0.412500X0.650000X0.412500X0*%
%TD*%
%TA.AperFunction,SMDPad,CuDef*%
%ADD11RoundRect,0.300000X-3.200000X-0.700000X3.200000X-0.700000X3.200000X0.700000X-3.200000X0.700000X0*%
%TD*%
%TA.AperFunction,SMDPad,CuDef*%
%ADD12RoundRect,0.225000X-2.775000X-0.525000X2.775000X-0.525000X2.775000X0.525000X-2.775000X0.525000X0*%
%TD*%
%TA.AperFunction,SMDPad,CuDef*%
%ADD13RoundRect,0.162500X-0.650000X-0.162500X0.650000X-0.162500X0.650000X0.162500X-0.650000X0.162500X0*%
%TD*%
%TA.AperFunction,SMDPad,CuDef*%
%ADD14RoundRect,0.250000X-0.350000X-0.450000X0.350000X-0.450000X0.350000X0.450000X-0.350000X0.450000X0*%
%TD*%
%TA.AperFunction,ComponentPad*%
%ADD15R,1.700000X1.700000*%
%TD*%
%TA.AperFunction,ComponentPad*%
%ADD16C,1.700000*%
%TD*%
%TA.AperFunction,ComponentPad*%
%ADD17R,1.800000X1.800000*%
%TD*%
%TA.AperFunction,ComponentPad*%
%ADD18C,1.800000*%
%TD*%
%TA.AperFunction,SMDPad,CuDef*%
%ADD19RoundRect,0.250000X0.350000X0.450000X-0.350000X0.450000X-0.350000X-0.450000X0.350000X-0.450000X0*%
%TD*%
%TA.AperFunction,SMDPad,CuDef*%
%ADD20RoundRect,0.225000X-0.375000X0.225000X-0.375000X-0.225000X0.375000X-0.225000X0.375000X0.225000X0*%
%TD*%
%TA.AperFunction,SMDPad,CuDef*%
%ADD21RoundRect,0.250000X-0.450000X0.350000X-0.450000X-0.350000X0.450000X-0.350000X0.450000X0.350000X0*%
%TD*%
%TA.AperFunction,ViaPad*%
%ADD22C,0.600000*%
%TD*%
%TA.AperFunction,Conductor*%
%ADD23C,0.200000*%
%TD*%
%TA.AperFunction,Conductor*%
%ADD24C,0.500000*%
%TD*%
G04 APERTURE END LIST*
D10*
%TO.P,C1,1*%
%TO.N,+5V*%
X132656000Y-139215000D03*
%TO.P,C1,2*%
%TO.N,GND*%
X132656000Y-142340000D03*
%TD*%
D11*
%TO.P,U2,1,Vcc*%
%TO.N,+5V*%
X121246000Y-68613000D03*
D12*
%TO.P,U2,2,D+*%
%TO.N,Net-(D2-K)*%
X121246000Y-65863000D03*
%TO.P,U2,3,D-*%
%TO.N,Net-(D1-K)*%
X121246000Y-63863000D03*
D11*
%TO.P,U2,4,GND*%
%TO.N,GND*%
X121246000Y-61113000D03*
%TD*%
D13*
%TO.P,U1,1,~{RESET}/PB5*%
%TO.N,Net-(J1-Pin_1)*%
X101232000Y-63086000D03*
%TO.P,U1,2,XTAL1/PB3*%
%TO.N,Net-(J1-Pin_2)*%
X101232000Y-64356000D03*
%TO.P,U1,3,XTAL2/PB4*%
%TO.N,Net-(J1-Pin_3)*%
X101232000Y-65626000D03*
%TO.P,U1,4,GND*%
%TO.N,GND*%
X101232000Y-66896000D03*
%TO.P,U1,5,AREF/PB0*%
%TO.N,Net-(J2-Pin_1)*%
X108407000Y-66896000D03*
%TO.P,U1,6,PB1*%
%TO.N,Net-(J2-Pin_2)*%
X108407000Y-65626000D03*
%TO.P,U1,7,PB2*%
%TO.N,Net-(J2-Pin_3)*%
X108407000Y-64356000D03*
%TO.P,U1,8,VCC*%
%TO.N,+5V*%
X108407000Y-63086000D03*
%TD*%
D14*
%TO.P,R3,1*%
%TO.N,Net-(J2-Pin_2)*%
X111678000Y-109216000D03*
%TO.P,R3,2*%
%TO.N,Net-(D3-A)*%
X113678000Y-109216000D03*
%TD*%
D15*
%TO.P,J1,1,Pin_1*%
%TO.N,Net-(J1-Pin_1)*%
X143564000Y-53997000D03*
D16*
%TO.P,J1,2,Pin_2*%
%TO.N,Net-(J1-Pin_2)*%
X146104000Y-53997000D03*
%TO.P,J1,3,Pin_3*%
%TO.N,Net-(J1-Pin_3)*%
X148644000Y-53997000D03*
%TO.P,J1,4,Pin_4*%
%TO.N,GND*%
X151184000Y-53997000D03*
%TD*%
D10*
%TO.P,C1,1*%
%TO.N,+5V*%
X132642000Y-44413000D03*
%TO.P,C1,2*%
%TO.N,GND*%
X132642000Y-47538000D03*
%TD*%
D15*
%TO.P,J1,1,Pin_1*%
%TO.N,Net-(J1-Pin_1)*%
X143571000Y-69798000D03*
D16*
%TO.P,J1,2,Pin_2*%
%TO.N,Net-(J1-Pin_2)*%
X146111000Y-69798000D03*
%TO.P,J1,3,Pin_3*%
%TO.N,Net-(J1-Pin_3)*%
X148651000Y-69798000D03*
%TO.P,J1,4,Pin_4*%
%TO.N,GND*%
X151191000Y-69798000D03*
%TD*%
D14*
%TO.P,R3,1*%
%TO.N,Net-(J2-Pin_2)*%
X154278000Y-140816000D03*
%TO.P,R3,2*%
%TO.N,Net-(D3-A)*%
X156278000Y-140816000D03*
%TD*%
D15*
%TO.P,J1,1,Pin_1*%
%TO.N,Net-(J1-Pin_1)*%
X143571000Y-132998000D03*
D16*
%TO.P,J1,2,Pin_2*%
%TO.N,Net-(J1-Pin_2)*%
X146111000Y-132998000D03*
%TO.P,J1,3,Pin_3*%
%TO.N,Net-(J1-Pin_3)*%
X148651000Y-132998000D03*
%TO.P,J1,4,Pin_4*%
%TO.N,GND*%
X151191000Y-132998000D03*
%TD*%
D10*
%TO.P,C1,1*%
%TO.N,+5V*%
X90056000Y-76015000D03*
%TO.P,C1,2*%
%TO.N,GND*%
X90056000Y-79140000D03*
%TD*%
D14*
%TO.P,R3,1*%
%TO.N,Net-(J2-Pin_2)*%
X111671000Y-46015000D03*
%TO.P,R3,2*%
%TO.N,Net-(D3-A)*%
X113671000Y-46015000D03*
%TD*%
D17*
%TO.P,D3,1,K*%
%TO.N,GND*%
X155255000Y-130603000D03*
D18*
%TO.P,D3,2,A*%
%TO.N,Net-(D3-A)*%
X155255000Y-128063000D03*
%TD*%
D19*
%TO.P,R2,1*%
%TO.N,Net-(J1-Pin_2)*%
X140754000Y-95192000D03*
%TO.P,R2,2*%
%TO.N,Net-(D1-K)*%
X138754000Y-95192000D03*
%TD*%
D11*
%TO.P,U2,1,Vcc*%
%TO.N,+5V*%
X78646000Y-100213000D03*
D12*
%TO.P,U2,2,D+*%
%TO.N,Net-(D2-K)*%
X78646000Y-97463000D03*
%TO.P,U2,3,D-*%
%TO.N,Net-(D1-K)*%
X78646000Y-95463000D03*
D11*
%TO.P,U2,4,GND*%
%TO.N,GND*%
X78646000Y-92713000D03*
%TD*%
D17*
%TO.P,D3,1,K*%
%TO.N,GND*%
X155248000Y-99002000D03*
D18*
%TO.P,D3,2,A*%
%TO.N,Net-(D3-A)*%
X155248000Y-96462000D03*
%TD*%
D13*
%TO.P,U1,1,~{RESET}/PB5*%
%TO.N,Net-(J1-Pin_1)*%
X101232000Y-110486000D03*
%TO.P,U1,2,XTAL1/PB3*%
%TO.N,Net-(J1-Pin_2)*%
X101232000Y-111756000D03*
%TO.P,U1,3,XTAL2/PB4*%
%TO.N,Net-(J1-Pin_3)*%
X101232000Y-113026000D03*
%TO.P,U1,4,GND*%
%TO.N,GND*%
X101232000Y-114296000D03*
%TO.P,U1,5,AREF/PB0*%
%TO.N,Net-(J2-Pin_1)*%
X108407000Y-114296000D03*
%TO.P,U1,6,PB1*%
%TO.N,Net-(J2-Pin_2)*%
X108407000Y-113026000D03*
%TO.P,U1,7,PB2*%
%TO.N,Net-(J2-Pin_3)*%
X108407000Y-111756000D03*
%TO.P,U1,8,VCC*%
%TO.N,+5V*%
X108407000Y-110486000D03*
%TD*%
D19*
%TO.P,R2,1*%
%TO.N,Net-(J1-Pin_2)*%
X140761000Y-126793000D03*
%TO.P,R2,2*%
%TO.N,Net-(D1-K)*%
X138761000Y-126793000D03*
%TD*%
D15*
%TO.P,J2,1,Pin_1*%
%TO.N,Net-(J2-Pin_1)*%
X108598000Y-107699000D03*
D16*
%TO.P,J2,2,Pin_2*%
%TO.N,Net-(J2-Pin_2)*%
X106058000Y-107699000D03*
%TO.P,J2,3,Pin_3*%
%TO.N,Net-(J2-Pin_3)*%
X103518000Y-107699000D03*
%TO.P,J2,4,Pin_4*%
%TO.N,+5V*%
X100978000Y-107699000D03*
%TD*%
D15*
%TO.P,J2,1,Pin_1*%
%TO.N,Net-(J2-Pin_1)*%
X151198000Y-139299000D03*
D16*
%TO.P,J2,2,Pin_2*%
%TO.N,Net-(J2-Pin_2)*%
X148658000Y-139299000D03*
%TO.P,J2,3,Pin_3*%
%TO.N,Net-(J2-Pin_3)*%
X146118000Y-139299000D03*
%TO.P,J2,4,Pin_4*%
%TO.N,+5V*%
X143578000Y-139299000D03*
%TD*%
D10*
%TO.P,C1,1*%
%TO.N,+5V*%
X132642000Y-91813000D03*
%TO.P,C1,2*%
%TO.N,GND*%
X132642000Y-94938000D03*
%TD*%
D19*
%TO.P,R2,1*%
%TO.N,Net-(J1-Pin_2)*%
X140761000Y-79393000D03*
%TO.P,R2,2*%
%TO.N,Net-(D1-K)*%
X138761000Y-79393000D03*
%TD*%
D20*
%TO.P,D1,1,K*%
%TO.N,Net-(D1-K)*%
X132617000Y-113535000D03*
%TO.P,D1,2,A*%
%TO.N,GND*%
X132617000Y-116835000D03*
%TD*%
D14*
%TO.P,R3,1*%
%TO.N,Net-(J2-Pin_2)*%
X111685000Y-140817000D03*
%TO.P,R3,2*%
%TO.N,Net-(D3-A)*%
X113685000Y-140817000D03*
%TD*%
D11*
%TO.P,U2,1,Vcc*%
%TO.N,+5V*%
X121246000Y-131813000D03*
D12*
%TO.P,U2,2,D+*%
%TO.N,Net-(D2-K)*%
X121246000Y-129063000D03*
%TO.P,U2,3,D-*%
%TO.N,Net-(D1-K)*%
X121246000Y-127063000D03*
D11*
%TO.P,U2,4,GND*%
%TO.N,GND*%
X121246000Y-124313000D03*
%TD*%
D14*
%TO.P,R3,1*%
%TO.N,Net-(J2-Pin_2)*%
X111678000Y-77616000D03*
%TO.P,R3,2*%
%TO.N,Net-(D3-A)*%
X113678000Y-77616000D03*
%TD*%
D11*
%TO.P,U2,1,Vcc*%
%TO.N,+5V*%
X121246000Y-84413000D03*
D12*
%TO.P,U2,2,D+*%
%TO.N,Net-(D2-K)*%
X121246000Y-81663000D03*
%TO.P,U2,3,D-*%
%TO.N,Net-(D1-K)*%
X121246000Y-79663000D03*
D11*
%TO.P,U2,4,GND*%
%TO.N,GND*%
X121246000Y-76913000D03*
%TD*%
D20*
%TO.P,D2,1,K*%
%TO.N,Net-(D2-K)*%
X136205000Y-129333000D03*
%TO.P,D2,2,A*%
%TO.N,GND*%
X136205000Y-132633000D03*
%TD*%
%TO.P,D1,1,K*%
%TO.N,Net-(D1-K)*%
X132617000Y-129335000D03*
%TO.P,D1,2,A*%
%TO.N,GND*%
X132617000Y-132635000D03*
%TD*%
D11*
%TO.P,U2,1,Vcc*%
%TO.N,+5V*%
X78660000Y-147615000D03*
D12*
%TO.P,U2,2,D+*%
%TO.N,Net-(D2-K)*%
X78660000Y-144865000D03*
%TO.P,U2,3,D-*%
%TO.N,Net-(D1-K)*%
X78660000Y-142865000D03*
D11*
%TO.P,U2,4,GND*%
%TO.N,GND*%
X78660000Y-140115000D03*
%TD*%
D19*
%TO.P,R1,1*%
%TO.N,Net-(J1-Pin_3)*%
X98184000Y-65880000D03*
%TO.P,R1,2*%
%TO.N,Net-(D2-K)*%
X96184000Y-65880000D03*
%TD*%
D15*
%TO.P,J2,1,Pin_1*%
%TO.N,Net-(J2-Pin_1)*%
X151184000Y-44497000D03*
D16*
%TO.P,J2,2,Pin_2*%
%TO.N,Net-(J2-Pin_2)*%
X148644000Y-44497000D03*
%TO.P,J2,3,Pin_3*%
%TO.N,Net-(J2-Pin_3)*%
X146104000Y-44497000D03*
%TO.P,J2,4,Pin_4*%
%TO.N,+5V*%
X143564000Y-44497000D03*
%TD*%
D11*
%TO.P,U2,1,Vcc*%
%TO.N,+5V*%
X78646000Y-52813000D03*
D12*
%TO.P,U2,2,D+*%
%TO.N,Net-(D2-K)*%
X78646000Y-50063000D03*
%TO.P,U2,3,D-*%
%TO.N,Net-(D1-K)*%
X78646000Y-48063000D03*
D11*
%TO.P,U2,4,GND*%
%TO.N,GND*%
X78646000Y-45313000D03*
%TD*%
D19*
%TO.P,R2,1*%
%TO.N,Net-(J1-Pin_2)*%
X140761000Y-110993000D03*
%TO.P,R2,2*%
%TO.N,Net-(D1-K)*%
X138761000Y-110993000D03*
%TD*%
D20*
%TO.P,D2,1,K*%
%TO.N,Net-(D2-K)*%
X136198000Y-50332000D03*
%TO.P,D2,2,A*%
%TO.N,GND*%
X136198000Y-53632000D03*
%TD*%
%TO.P,D2,1,K*%
%TO.N,Net-(D2-K)*%
X93612000Y-113534000D03*
%TO.P,D2,2,A*%
%TO.N,GND*%
X93612000Y-116834000D03*
%TD*%
D11*
%TO.P,U2,1,Vcc*%
%TO.N,+5V*%
X121246000Y-116013000D03*
D12*
%TO.P,U2,2,D+*%
%TO.N,Net-(D2-K)*%
X121246000Y-113263000D03*
%TO.P,U2,3,D-*%
%TO.N,Net-(D1-K)*%
X121246000Y-111263000D03*
D11*
%TO.P,U2,4,GND*%
%TO.N,GND*%
X121246000Y-108513000D03*
%TD*%
D15*
%TO.P,J1,1,Pin_1*%
%TO.N,Net-(J1-Pin_1)*%
X100978000Y-117199000D03*
D16*
%TO.P,J1,2,Pin_2*%
%TO.N,Net-(J1-Pin_2)*%
X103518000Y-117199000D03*
%TO.P,J1,3,Pin_3*%
%TO.N,Net-(J1-Pin_3)*%
X106058000Y-117199000D03*
%TO.P,J1,4,Pin_4*%
%TO.N,GND*%
X108598000Y-117199000D03*
%TD*%
D17*
%TO.P,D3,1,K*%
%TO.N,GND*%
X155255000Y-67403000D03*
D18*
%TO.P,D3,2,A*%
%TO.N,Net-(D3-A)*%
X155255000Y-64863000D03*
%TD*%
D15*
%TO.P,J2,1,Pin_1*%
%TO.N,Net-(J2-Pin_1)*%
X151191000Y-123498000D03*
D16*
%TO.P,J2,2,Pin_2*%
%TO.N,Net-(J2-Pin_2)*%
X148651000Y-123498000D03*
%TO.P,J2,3,Pin_3*%
%TO.N,Net-(J2-Pin_3)*%
X146111000Y-123498000D03*
%TO.P,J2,4,Pin_4*%
%TO.N,+5V*%
X143571000Y-123498000D03*
%TD*%
D11*
%TO.P,U2,1,Vcc*%
%TO.N,+5V*%
X78653000Y-131814000D03*
D12*
%TO.P,U2,2,D+*%
%TO.N,Net-(D2-K)*%
X78653000Y-129064000D03*
%TO.P,U2,3,D-*%
%TO.N,Net-(D1-K)*%
X78653000Y-127064000D03*
D11*
%TO.P,U2,4,GND*%
%TO.N,GND*%
X78653000Y-124314000D03*
%TD*%
D21*
%TO.P,R4,1*%
%TO.N,+5V*%
X94120000Y-60199000D03*
%TO.P,R4,2*%
%TO.N,Net-(D1-K)*%
X94120000Y-62199000D03*
%TD*%
D11*
%TO.P,U2,1,Vcc*%
%TO.N,+5V*%
X121239000Y-100212000D03*
D12*
%TO.P,U2,2,D+*%
%TO.N,Net-(D2-K)*%
X121239000Y-97462000D03*
%TO.P,U2,3,D-*%
%TO.N,Net-(D1-K)*%
X121239000Y-95462000D03*
D11*
%TO.P,U2,4,GND*%
%TO.N,GND*%
X121239000Y-92712000D03*
%TD*%
D19*
%TO.P,R1,1*%
%TO.N,Net-(J1-Pin_3)*%
X98177000Y-50079000D03*
%TO.P,R1,2*%
%TO.N,Net-(D2-K)*%
X96177000Y-50079000D03*
%TD*%
D15*
%TO.P,J2,1,Pin_1*%
%TO.N,Net-(J2-Pin_1)*%
X108598000Y-123499000D03*
D16*
%TO.P,J2,2,Pin_2*%
%TO.N,Net-(J2-Pin_2)*%
X106058000Y-123499000D03*
%TO.P,J2,3,Pin_3*%
%TO.N,Net-(J2-Pin_3)*%
X103518000Y-123499000D03*
%TO.P,J2,4,Pin_4*%
%TO.N,+5V*%
X100978000Y-123499000D03*
%TD*%
D15*
%TO.P,J1,1,Pin_1*%
%TO.N,Net-(J1-Pin_1)*%
X143571000Y-117198000D03*
D16*
%TO.P,J1,2,Pin_2*%
%TO.N,Net-(J1-Pin_2)*%
X146111000Y-117198000D03*
%TO.P,J1,3,Pin_3*%
%TO.N,Net-(J1-Pin_3)*%
X148651000Y-117198000D03*
%TO.P,J1,4,Pin_4*%
%TO.N,GND*%
X151191000Y-117198000D03*
%TD*%
D14*
%TO.P,R3,1*%
%TO.N,Net-(J2-Pin_2)*%
X154271000Y-61815000D03*
%TO.P,R3,2*%
%TO.N,Net-(D3-A)*%
X156271000Y-61815000D03*
%TD*%
D11*
%TO.P,U2,1,Vcc*%
%TO.N,+5V*%
X121253000Y-147614000D03*
D12*
%TO.P,U2,2,D+*%
%TO.N,Net-(D2-K)*%
X121253000Y-144864000D03*
%TO.P,U2,3,D-*%
%TO.N,Net-(D1-K)*%
X121253000Y-142864000D03*
D11*
%TO.P,U2,4,GND*%
%TO.N,GND*%
X121253000Y-140114000D03*
%TD*%
D19*
%TO.P,R2,1*%
%TO.N,Net-(J1-Pin_2)*%
X98168000Y-126794000D03*
%TO.P,R2,2*%
%TO.N,Net-(D1-K)*%
X96168000Y-126794000D03*
%TD*%
D14*
%TO.P,R3,1*%
%TO.N,Net-(J2-Pin_2)*%
X154271000Y-125015000D03*
%TO.P,R3,2*%
%TO.N,Net-(D3-A)*%
X156271000Y-125015000D03*
%TD*%
D11*
%TO.P,U2,1,Vcc*%
%TO.N,+5V*%
X121239000Y-52812000D03*
D12*
%TO.P,U2,2,D+*%
%TO.N,Net-(D2-K)*%
X121239000Y-50062000D03*
%TO.P,U2,3,D-*%
%TO.N,Net-(D1-K)*%
X121239000Y-48062000D03*
D11*
%TO.P,U2,4,GND*%
%TO.N,GND*%
X121239000Y-45312000D03*
%TD*%
D15*
%TO.P,J1,1,Pin_1*%
%TO.N,Net-(J1-Pin_1)*%
X143578000Y-148799000D03*
D16*
%TO.P,J1,2,Pin_2*%
%TO.N,Net-(J1-Pin_2)*%
X146118000Y-148799000D03*
%TO.P,J1,3,Pin_3*%
%TO.N,Net-(J1-Pin_3)*%
X148658000Y-148799000D03*
%TO.P,J1,4,Pin_4*%
%TO.N,GND*%
X151198000Y-148799000D03*
%TD*%
D14*
%TO.P,R3,1*%
%TO.N,Net-(J2-Pin_2)*%
X154264000Y-93414000D03*
%TO.P,R3,2*%
%TO.N,Net-(D3-A)*%
X156264000Y-93414000D03*
%TD*%
D11*
%TO.P,U2,1,Vcc*%
%TO.N,+5V*%
X78653000Y-84414000D03*
D12*
%TO.P,U2,2,D+*%
%TO.N,Net-(D2-K)*%
X78653000Y-81664000D03*
%TO.P,U2,3,D-*%
%TO.N,Net-(D1-K)*%
X78653000Y-79664000D03*
D11*
%TO.P,U2,4,GND*%
%TO.N,GND*%
X78653000Y-76914000D03*
%TD*%
D21*
%TO.P,R4,1*%
%TO.N,+5V*%
X136706000Y-44397000D03*
%TO.P,R4,2*%
%TO.N,Net-(D1-K)*%
X136706000Y-46397000D03*
%TD*%
D17*
%TO.P,D3,1,K*%
%TO.N,GND*%
X112655000Y-51603000D03*
D18*
%TO.P,D3,2,A*%
%TO.N,Net-(D3-A)*%
X112655000Y-49063000D03*
%TD*%
D10*
%TO.P,C1,1*%
%TO.N,+5V*%
X132649000Y-123414000D03*
%TO.P,C1,2*%
%TO.N,GND*%
X132649000Y-126539000D03*
%TD*%
%TO.P,C1,1*%
%TO.N,+5V*%
X90049000Y-44414000D03*
%TO.P,C1,2*%
%TO.N,GND*%
X90049000Y-47539000D03*
%TD*%
%TO.P,C1,1*%
%TO.N,+5V*%
X90056000Y-107615000D03*
%TO.P,C1,2*%
%TO.N,GND*%
X90056000Y-110740000D03*
%TD*%
D19*
%TO.P,R2,1*%
%TO.N,Net-(J1-Pin_2)*%
X98168000Y-110994000D03*
%TO.P,R2,2*%
%TO.N,Net-(D1-K)*%
X96168000Y-110994000D03*
%TD*%
D13*
%TO.P,U1,1,~{RESET}/PB5*%
%TO.N,Net-(J1-Pin_1)*%
X143825000Y-110485000D03*
%TO.P,U1,2,XTAL1/PB3*%
%TO.N,Net-(J1-Pin_2)*%
X143825000Y-111755000D03*
%TO.P,U1,3,XTAL2/PB4*%
%TO.N,Net-(J1-Pin_3)*%
X143825000Y-113025000D03*
%TO.P,U1,4,GND*%
%TO.N,GND*%
X143825000Y-114295000D03*
%TO.P,U1,5,AREF/PB0*%
%TO.N,Net-(J2-Pin_1)*%
X151000000Y-114295000D03*
%TO.P,U1,6,PB1*%
%TO.N,Net-(J2-Pin_2)*%
X151000000Y-113025000D03*
%TO.P,U1,7,PB2*%
%TO.N,Net-(J2-Pin_3)*%
X151000000Y-111755000D03*
%TO.P,U1,8,VCC*%
%TO.N,+5V*%
X151000000Y-110485000D03*
%TD*%
D14*
%TO.P,R3,1*%
%TO.N,Net-(J2-Pin_2)*%
X111678000Y-61816000D03*
%TO.P,R3,2*%
%TO.N,Net-(D3-A)*%
X113678000Y-61816000D03*
%TD*%
D15*
%TO.P,J1,1,Pin_1*%
%TO.N,Net-(J1-Pin_1)*%
X100978000Y-69799000D03*
D16*
%TO.P,J1,2,Pin_2*%
%TO.N,Net-(J1-Pin_2)*%
X103518000Y-69799000D03*
%TO.P,J1,3,Pin_3*%
%TO.N,Net-(J1-Pin_3)*%
X106058000Y-69799000D03*
%TO.P,J1,4,Pin_4*%
%TO.N,GND*%
X108598000Y-69799000D03*
%TD*%
D20*
%TO.P,D1,1,K*%
%TO.N,Net-(D1-K)*%
X132624000Y-145136000D03*
%TO.P,D1,2,A*%
%TO.N,GND*%
X132624000Y-148436000D03*
%TD*%
D15*
%TO.P,J2,1,Pin_1*%
%TO.N,Net-(J2-Pin_1)*%
X151191000Y-60298000D03*
D16*
%TO.P,J2,2,Pin_2*%
%TO.N,Net-(J2-Pin_2)*%
X148651000Y-60298000D03*
%TO.P,J2,3,Pin_3*%
%TO.N,Net-(J2-Pin_3)*%
X146111000Y-60298000D03*
%TO.P,J2,4,Pin_4*%
%TO.N,+5V*%
X143571000Y-60298000D03*
%TD*%
D20*
%TO.P,D1,1,K*%
%TO.N,Net-(D1-K)*%
X90024000Y-66136000D03*
%TO.P,D1,2,A*%
%TO.N,GND*%
X90024000Y-69436000D03*
%TD*%
D17*
%TO.P,D3,1,K*%
%TO.N,GND*%
X112662000Y-130604000D03*
D18*
%TO.P,D3,2,A*%
%TO.N,Net-(D3-A)*%
X112662000Y-128064000D03*
%TD*%
D19*
%TO.P,R1,1*%
%TO.N,Net-(J1-Pin_3)*%
X98184000Y-129080000D03*
%TO.P,R1,2*%
%TO.N,Net-(D2-K)*%
X96184000Y-129080000D03*
%TD*%
D10*
%TO.P,C1,1*%
%TO.N,+5V*%
X90049000Y-91814000D03*
%TO.P,C1,2*%
%TO.N,GND*%
X90049000Y-94939000D03*
%TD*%
D20*
%TO.P,D2,1,K*%
%TO.N,Net-(D2-K)*%
X93605000Y-97733000D03*
%TO.P,D2,2,A*%
%TO.N,GND*%
X93605000Y-101033000D03*
%TD*%
D21*
%TO.P,R4,1*%
%TO.N,+5V*%
X94127000Y-139200000D03*
%TO.P,R4,2*%
%TO.N,Net-(D1-K)*%
X94127000Y-141200000D03*
%TD*%
D13*
%TO.P,U1,1,~{RESET}/PB5*%
%TO.N,Net-(J1-Pin_1)*%
X143818000Y-94684000D03*
%TO.P,U1,2,XTAL1/PB3*%
%TO.N,Net-(J1-Pin_2)*%
X143818000Y-95954000D03*
%TO.P,U1,3,XTAL2/PB4*%
%TO.N,Net-(J1-Pin_3)*%
X143818000Y-97224000D03*
%TO.P,U1,4,GND*%
%TO.N,GND*%
X143818000Y-98494000D03*
%TO.P,U1,5,AREF/PB0*%
%TO.N,Net-(J2-Pin_1)*%
X150993000Y-98494000D03*
%TO.P,U1,6,PB1*%
%TO.N,Net-(J2-Pin_2)*%
X150993000Y-97224000D03*
%TO.P,U1,7,PB2*%
%TO.N,Net-(J2-Pin_3)*%
X150993000Y-95954000D03*
%TO.P,U1,8,VCC*%
%TO.N,+5V*%
X150993000Y-94684000D03*
%TD*%
D21*
%TO.P,R4,1*%
%TO.N,+5V*%
X94113000Y-44398000D03*
%TO.P,R4,2*%
%TO.N,Net-(D1-K)*%
X94113000Y-46398000D03*
%TD*%
D15*
%TO.P,J2,1,Pin_1*%
%TO.N,Net-(J2-Pin_1)*%
X108591000Y-44498000D03*
D16*
%TO.P,J2,2,Pin_2*%
%TO.N,Net-(J2-Pin_2)*%
X106051000Y-44498000D03*
%TO.P,J2,3,Pin_3*%
%TO.N,Net-(J2-Pin_3)*%
X103511000Y-44498000D03*
%TO.P,J2,4,Pin_4*%
%TO.N,+5V*%
X100971000Y-44498000D03*
%TD*%
D10*
%TO.P,C1,1*%
%TO.N,+5V*%
X132649000Y-107614000D03*
%TO.P,C1,2*%
%TO.N,GND*%
X132649000Y-110739000D03*
%TD*%
D17*
%TO.P,D3,1,K*%
%TO.N,GND*%
X112669000Y-146405000D03*
D18*
%TO.P,D3,2,A*%
%TO.N,Net-(D3-A)*%
X112669000Y-143865000D03*
%TD*%
D19*
%TO.P,R1,1*%
%TO.N,Net-(J1-Pin_3)*%
X140777000Y-81679000D03*
%TO.P,R1,2*%
%TO.N,Net-(D2-K)*%
X138777000Y-81679000D03*
%TD*%
D10*
%TO.P,C1,1*%
%TO.N,+5V*%
X90056000Y-123415000D03*
%TO.P,C1,2*%
%TO.N,GND*%
X90056000Y-126540000D03*
%TD*%
D19*
%TO.P,R1,1*%
%TO.N,Net-(J1-Pin_3)*%
X140770000Y-97478000D03*
%TO.P,R1,2*%
%TO.N,Net-(D2-K)*%
X138770000Y-97478000D03*
%TD*%
D11*
%TO.P,U2,1,Vcc*%
%TO.N,+5V*%
X78653000Y-68614000D03*
D12*
%TO.P,U2,2,D+*%
%TO.N,Net-(D2-K)*%
X78653000Y-65864000D03*
%TO.P,U2,3,D-*%
%TO.N,Net-(D1-K)*%
X78653000Y-63864000D03*
D11*
%TO.P,U2,4,GND*%
%TO.N,GND*%
X78653000Y-61114000D03*
%TD*%
D10*
%TO.P,C1,1*%
%TO.N,+5V*%
X90056000Y-60215000D03*
%TO.P,C1,2*%
%TO.N,GND*%
X90056000Y-63340000D03*
%TD*%
D19*
%TO.P,R1,1*%
%TO.N,Net-(J1-Pin_3)*%
X98177000Y-97479000D03*
%TO.P,R1,2*%
%TO.N,Net-(D2-K)*%
X96177000Y-97479000D03*
%TD*%
D10*
%TO.P,C1,1*%
%TO.N,+5V*%
X90063000Y-139216000D03*
%TO.P,C1,2*%
%TO.N,GND*%
X90063000Y-142341000D03*
%TD*%
D21*
%TO.P,R4,1*%
%TO.N,+5V*%
X94120000Y-107599000D03*
%TO.P,R4,2*%
%TO.N,Net-(D1-K)*%
X94120000Y-109599000D03*
%TD*%
D19*
%TO.P,R1,1*%
%TO.N,Net-(J1-Pin_3)*%
X140777000Y-113279000D03*
%TO.P,R1,2*%
%TO.N,Net-(D2-K)*%
X138777000Y-113279000D03*
%TD*%
%TO.P,R1,1*%
%TO.N,Net-(J1-Pin_3)*%
X98191000Y-144881000D03*
%TO.P,R1,2*%
%TO.N,Net-(D2-K)*%
X96191000Y-144881000D03*
%TD*%
%TO.P,R2,1*%
%TO.N,Net-(J1-Pin_2)*%
X98168000Y-63594000D03*
%TO.P,R2,2*%
%TO.N,Net-(D1-K)*%
X96168000Y-63594000D03*
%TD*%
%TO.P,R2,1*%
%TO.N,Net-(J1-Pin_2)*%
X140768000Y-142594000D03*
%TO.P,R2,2*%
%TO.N,Net-(D1-K)*%
X138768000Y-142594000D03*
%TD*%
D17*
%TO.P,D3,1,K*%
%TO.N,GND*%
X112662000Y-83204000D03*
D18*
%TO.P,D3,2,A*%
%TO.N,Net-(D3-A)*%
X112662000Y-80664000D03*
%TD*%
D19*
%TO.P,R1,1*%
%TO.N,Net-(J1-Pin_3)*%
X98184000Y-113280000D03*
%TO.P,R1,2*%
%TO.N,Net-(D2-K)*%
X96184000Y-113280000D03*
%TD*%
D20*
%TO.P,D1,1,K*%
%TO.N,Net-(D1-K)*%
X132617000Y-66135000D03*
%TO.P,D1,2,A*%
%TO.N,GND*%
X132617000Y-69435000D03*
%TD*%
D13*
%TO.P,U1,1,~{RESET}/PB5*%
%TO.N,Net-(J1-Pin_1)*%
X143825000Y-78885000D03*
%TO.P,U1,2,XTAL1/PB3*%
%TO.N,Net-(J1-Pin_2)*%
X143825000Y-80155000D03*
%TO.P,U1,3,XTAL2/PB4*%
%TO.N,Net-(J1-Pin_3)*%
X143825000Y-81425000D03*
%TO.P,U1,4,GND*%
%TO.N,GND*%
X143825000Y-82695000D03*
%TO.P,U1,5,AREF/PB0*%
%TO.N,Net-(J2-Pin_1)*%
X151000000Y-82695000D03*
%TO.P,U1,6,PB1*%
%TO.N,Net-(J2-Pin_2)*%
X151000000Y-81425000D03*
%TO.P,U1,7,PB2*%
%TO.N,Net-(J2-Pin_3)*%
X151000000Y-80155000D03*
%TO.P,U1,8,VCC*%
%TO.N,+5V*%
X151000000Y-78885000D03*
%TD*%
D17*
%TO.P,D3,1,K*%
%TO.N,GND*%
X155262000Y-146404000D03*
D18*
%TO.P,D3,2,A*%
%TO.N,Net-(D3-A)*%
X155262000Y-143864000D03*
%TD*%
D20*
%TO.P,D2,1,K*%
%TO.N,Net-(D2-K)*%
X93605000Y-50333000D03*
%TO.P,D2,2,A*%
%TO.N,GND*%
X93605000Y-53633000D03*
%TD*%
%TO.P,D1,1,K*%
%TO.N,Net-(D1-K)*%
X90031000Y-145137000D03*
%TO.P,D1,2,A*%
%TO.N,GND*%
X90031000Y-148437000D03*
%TD*%
D15*
%TO.P,J1,1,Pin_1*%
%TO.N,Net-(J1-Pin_1)*%
X100971000Y-101398000D03*
D16*
%TO.P,J1,2,Pin_2*%
%TO.N,Net-(J1-Pin_2)*%
X103511000Y-101398000D03*
%TO.P,J1,3,Pin_3*%
%TO.N,Net-(J1-Pin_3)*%
X106051000Y-101398000D03*
%TO.P,J1,4,Pin_4*%
%TO.N,GND*%
X108591000Y-101398000D03*
%TD*%
D19*
%TO.P,R1,1*%
%TO.N,Net-(J1-Pin_3)*%
X140784000Y-144880000D03*
%TO.P,R1,2*%
%TO.N,Net-(D2-K)*%
X138784000Y-144880000D03*
%TD*%
D17*
%TO.P,D3,1,K*%
%TO.N,GND*%
X112662000Y-114804000D03*
D18*
%TO.P,D3,2,A*%
%TO.N,Net-(D3-A)*%
X112662000Y-112264000D03*
%TD*%
D20*
%TO.P,D2,1,K*%
%TO.N,Net-(D2-K)*%
X93612000Y-81934000D03*
%TO.P,D2,2,A*%
%TO.N,GND*%
X93612000Y-85234000D03*
%TD*%
%TO.P,D2,1,K*%
%TO.N,Net-(D2-K)*%
X93612000Y-129334000D03*
%TO.P,D2,2,A*%
%TO.N,GND*%
X93612000Y-132634000D03*
%TD*%
D17*
%TO.P,D3,1,K*%
%TO.N,GND*%
X155255000Y-83203000D03*
D18*
%TO.P,D3,2,A*%
%TO.N,Net-(D3-A)*%
X155255000Y-80663000D03*
%TD*%
D13*
%TO.P,U1,1,~{RESET}/PB5*%
%TO.N,Net-(J1-Pin_1)*%
X101225000Y-47285000D03*
%TO.P,U1,2,XTAL1/PB3*%
%TO.N,Net-(J1-Pin_2)*%
X101225000Y-48555000D03*
%TO.P,U1,3,XTAL2/PB4*%
%TO.N,Net-(J1-Pin_3)*%
X101225000Y-49825000D03*
%TO.P,U1,4,GND*%
%TO.N,GND*%
X101225000Y-51095000D03*
%TO.P,U1,5,AREF/PB0*%
%TO.N,Net-(J2-Pin_1)*%
X108400000Y-51095000D03*
%TO.P,U1,6,PB1*%
%TO.N,Net-(J2-Pin_2)*%
X108400000Y-49825000D03*
%TO.P,U1,7,PB2*%
%TO.N,Net-(J2-Pin_3)*%
X108400000Y-48555000D03*
%TO.P,U1,8,VCC*%
%TO.N,+5V*%
X108400000Y-47285000D03*
%TD*%
D21*
%TO.P,R4,1*%
%TO.N,+5V*%
X136720000Y-139199000D03*
%TO.P,R4,2*%
%TO.N,Net-(D1-K)*%
X136720000Y-141199000D03*
%TD*%
D15*
%TO.P,J1,1,Pin_1*%
%TO.N,Net-(J1-Pin_1)*%
X100971000Y-53998000D03*
D16*
%TO.P,J1,2,Pin_2*%
%TO.N,Net-(J1-Pin_2)*%
X103511000Y-53998000D03*
%TO.P,J1,3,Pin_3*%
%TO.N,Net-(J1-Pin_3)*%
X106051000Y-53998000D03*
%TO.P,J1,4,Pin_4*%
%TO.N,GND*%
X108591000Y-53998000D03*
%TD*%
D15*
%TO.P,J2,1,Pin_1*%
%TO.N,Net-(J2-Pin_1)*%
X108598000Y-60299000D03*
D16*
%TO.P,J2,2,Pin_2*%
%TO.N,Net-(J2-Pin_2)*%
X106058000Y-60299000D03*
%TO.P,J2,3,Pin_3*%
%TO.N,Net-(J2-Pin_3)*%
X103518000Y-60299000D03*
%TO.P,J2,4,Pin_4*%
%TO.N,+5V*%
X100978000Y-60299000D03*
%TD*%
D21*
%TO.P,R4,1*%
%TO.N,+5V*%
X94113000Y-91798000D03*
%TO.P,R4,2*%
%TO.N,Net-(D1-K)*%
X94113000Y-93798000D03*
%TD*%
D15*
%TO.P,J1,1,Pin_1*%
%TO.N,Net-(J1-Pin_1)*%
X100978000Y-132999000D03*
D16*
%TO.P,J1,2,Pin_2*%
%TO.N,Net-(J1-Pin_2)*%
X103518000Y-132999000D03*
%TO.P,J1,3,Pin_3*%
%TO.N,Net-(J1-Pin_3)*%
X106058000Y-132999000D03*
%TO.P,J1,4,Pin_4*%
%TO.N,GND*%
X108598000Y-132999000D03*
%TD*%
D11*
%TO.P,U2,1,Vcc*%
%TO.N,+5V*%
X78653000Y-116014000D03*
D12*
%TO.P,U2,2,D+*%
%TO.N,Net-(D2-K)*%
X78653000Y-113264000D03*
%TO.P,U2,3,D-*%
%TO.N,Net-(D1-K)*%
X78653000Y-111264000D03*
D11*
%TO.P,U2,4,GND*%
%TO.N,GND*%
X78653000Y-108514000D03*
%TD*%
D13*
%TO.P,U1,1,~{RESET}/PB5*%
%TO.N,Net-(J1-Pin_1)*%
X101225000Y-94685000D03*
%TO.P,U1,2,XTAL1/PB3*%
%TO.N,Net-(J1-Pin_2)*%
X101225000Y-95955000D03*
%TO.P,U1,3,XTAL2/PB4*%
%TO.N,Net-(J1-Pin_3)*%
X101225000Y-97225000D03*
%TO.P,U1,4,GND*%
%TO.N,GND*%
X101225000Y-98495000D03*
%TO.P,U1,5,AREF/PB0*%
%TO.N,Net-(J2-Pin_1)*%
X108400000Y-98495000D03*
%TO.P,U1,6,PB1*%
%TO.N,Net-(J2-Pin_2)*%
X108400000Y-97225000D03*
%TO.P,U1,7,PB2*%
%TO.N,Net-(J2-Pin_3)*%
X108400000Y-95955000D03*
%TO.P,U1,8,VCC*%
%TO.N,+5V*%
X108400000Y-94685000D03*
%TD*%
D14*
%TO.P,R3,1*%
%TO.N,Net-(J2-Pin_2)*%
X154271000Y-77615000D03*
%TO.P,R3,2*%
%TO.N,Net-(D3-A)*%
X156271000Y-77615000D03*
%TD*%
D20*
%TO.P,D2,1,K*%
%TO.N,Net-(D2-K)*%
X136198000Y-97732000D03*
%TO.P,D2,2,A*%
%TO.N,GND*%
X136198000Y-101032000D03*
%TD*%
D21*
%TO.P,R4,1*%
%TO.N,+5V*%
X136706000Y-91797000D03*
%TO.P,R4,2*%
%TO.N,Net-(D1-K)*%
X136706000Y-93797000D03*
%TD*%
D15*
%TO.P,J1,1,Pin_1*%
%TO.N,Net-(J1-Pin_1)*%
X100978000Y-85599000D03*
D16*
%TO.P,J1,2,Pin_2*%
%TO.N,Net-(J1-Pin_2)*%
X103518000Y-85599000D03*
%TO.P,J1,3,Pin_3*%
%TO.N,Net-(J1-Pin_3)*%
X106058000Y-85599000D03*
%TO.P,J1,4,Pin_4*%
%TO.N,GND*%
X108598000Y-85599000D03*
%TD*%
D20*
%TO.P,D2,1,K*%
%TO.N,Net-(D2-K)*%
X136205000Y-66133000D03*
%TO.P,D2,2,A*%
%TO.N,GND*%
X136205000Y-69433000D03*
%TD*%
D15*
%TO.P,J1,1,Pin_1*%
%TO.N,Net-(J1-Pin_1)*%
X143571000Y-85598000D03*
D16*
%TO.P,J1,2,Pin_2*%
%TO.N,Net-(J1-Pin_2)*%
X146111000Y-85598000D03*
%TO.P,J1,3,Pin_3*%
%TO.N,Net-(J1-Pin_3)*%
X148651000Y-85598000D03*
%TO.P,J1,4,Pin_4*%
%TO.N,GND*%
X151191000Y-85598000D03*
%TD*%
D21*
%TO.P,R4,1*%
%TO.N,+5V*%
X136713000Y-107598000D03*
%TO.P,R4,2*%
%TO.N,Net-(D1-K)*%
X136713000Y-109598000D03*
%TD*%
D19*
%TO.P,R2,1*%
%TO.N,Net-(J1-Pin_2)*%
X98161000Y-95193000D03*
%TO.P,R2,2*%
%TO.N,Net-(D1-K)*%
X96161000Y-95193000D03*
%TD*%
D20*
%TO.P,D2,1,K*%
%TO.N,Net-(D2-K)*%
X136212000Y-145134000D03*
%TO.P,D2,2,A*%
%TO.N,GND*%
X136212000Y-148434000D03*
%TD*%
D15*
%TO.P,J2,1,Pin_1*%
%TO.N,Net-(J2-Pin_1)*%
X108598000Y-76099000D03*
D16*
%TO.P,J2,2,Pin_2*%
%TO.N,Net-(J2-Pin_2)*%
X106058000Y-76099000D03*
%TO.P,J2,3,Pin_3*%
%TO.N,Net-(J2-Pin_3)*%
X103518000Y-76099000D03*
%TO.P,J2,4,Pin_4*%
%TO.N,+5V*%
X100978000Y-76099000D03*
%TD*%
D21*
%TO.P,R4,1*%
%TO.N,+5V*%
X136713000Y-60198000D03*
%TO.P,R4,2*%
%TO.N,Net-(D1-K)*%
X136713000Y-62198000D03*
%TD*%
D19*
%TO.P,R2,1*%
%TO.N,Net-(J1-Pin_2)*%
X98175000Y-142595000D03*
%TO.P,R2,2*%
%TO.N,Net-(D1-K)*%
X96175000Y-142595000D03*
%TD*%
D15*
%TO.P,J2,1,Pin_1*%
%TO.N,Net-(J2-Pin_1)*%
X108591000Y-91898000D03*
D16*
%TO.P,J2,2,Pin_2*%
%TO.N,Net-(J2-Pin_2)*%
X106051000Y-91898000D03*
%TO.P,J2,3,Pin_3*%
%TO.N,Net-(J2-Pin_3)*%
X103511000Y-91898000D03*
%TO.P,J2,4,Pin_4*%
%TO.N,+5V*%
X100971000Y-91898000D03*
%TD*%
D17*
%TO.P,D3,1,K*%
%TO.N,GND*%
X112655000Y-99003000D03*
D18*
%TO.P,D3,2,A*%
%TO.N,Net-(D3-A)*%
X112655000Y-96463000D03*
%TD*%
D17*
%TO.P,D3,1,K*%
%TO.N,GND*%
X155255000Y-114803000D03*
D18*
%TO.P,D3,2,A*%
%TO.N,Net-(D3-A)*%
X155255000Y-112263000D03*
%TD*%
D19*
%TO.P,R2,1*%
%TO.N,Net-(J1-Pin_2)*%
X98161000Y-47793000D03*
%TO.P,R2,2*%
%TO.N,Net-(D1-K)*%
X96161000Y-47793000D03*
%TD*%
D14*
%TO.P,R3,1*%
%TO.N,Net-(J2-Pin_2)*%
X154264000Y-46014000D03*
%TO.P,R3,2*%
%TO.N,Net-(D3-A)*%
X156264000Y-46014000D03*
%TD*%
D19*
%TO.P,R1,1*%
%TO.N,Net-(J1-Pin_3)*%
X140777000Y-129079000D03*
%TO.P,R1,2*%
%TO.N,Net-(D2-K)*%
X138777000Y-129079000D03*
%TD*%
D15*
%TO.P,J2,1,Pin_1*%
%TO.N,Net-(J2-Pin_1)*%
X151191000Y-107698000D03*
D16*
%TO.P,J2,2,Pin_2*%
%TO.N,Net-(J2-Pin_2)*%
X148651000Y-107698000D03*
%TO.P,J2,3,Pin_3*%
%TO.N,Net-(J2-Pin_3)*%
X146111000Y-107698000D03*
%TO.P,J2,4,Pin_4*%
%TO.N,+5V*%
X143571000Y-107698000D03*
%TD*%
D20*
%TO.P,D1,1,K*%
%TO.N,Net-(D1-K)*%
X90024000Y-113536000D03*
%TO.P,D1,2,A*%
%TO.N,GND*%
X90024000Y-116836000D03*
%TD*%
D10*
%TO.P,C1,1*%
%TO.N,+5V*%
X132649000Y-60214000D03*
%TO.P,C1,2*%
%TO.N,GND*%
X132649000Y-63339000D03*
%TD*%
D20*
%TO.P,D1,1,K*%
%TO.N,Net-(D1-K)*%
X132610000Y-97734000D03*
%TO.P,D1,2,A*%
%TO.N,GND*%
X132610000Y-101034000D03*
%TD*%
%TO.P,D1,1,K*%
%TO.N,Net-(D1-K)*%
X90017000Y-50335000D03*
%TO.P,D1,2,A*%
%TO.N,GND*%
X90017000Y-53635000D03*
%TD*%
D19*
%TO.P,R1,1*%
%TO.N,Net-(J1-Pin_3)*%
X140770000Y-50078000D03*
%TO.P,R1,2*%
%TO.N,Net-(D2-K)*%
X138770000Y-50078000D03*
%TD*%
D10*
%TO.P,C1,1*%
%TO.N,+5V*%
X132649000Y-76014000D03*
%TO.P,C1,2*%
%TO.N,GND*%
X132649000Y-79139000D03*
%TD*%
D13*
%TO.P,U1,1,~{RESET}/PB5*%
%TO.N,Net-(J1-Pin_1)*%
X101232000Y-126286000D03*
%TO.P,U1,2,XTAL1/PB3*%
%TO.N,Net-(J1-Pin_2)*%
X101232000Y-127556000D03*
%TO.P,U1,3,XTAL2/PB4*%
%TO.N,Net-(J1-Pin_3)*%
X101232000Y-128826000D03*
%TO.P,U1,4,GND*%
%TO.N,GND*%
X101232000Y-130096000D03*
%TO.P,U1,5,AREF/PB0*%
%TO.N,Net-(J2-Pin_1)*%
X108407000Y-130096000D03*
%TO.P,U1,6,PB1*%
%TO.N,Net-(J2-Pin_2)*%
X108407000Y-128826000D03*
%TO.P,U1,7,PB2*%
%TO.N,Net-(J2-Pin_3)*%
X108407000Y-127556000D03*
%TO.P,U1,8,VCC*%
%TO.N,+5V*%
X108407000Y-126286000D03*
%TD*%
D20*
%TO.P,D2,1,K*%
%TO.N,Net-(D2-K)*%
X93619000Y-145135000D03*
%TO.P,D2,2,A*%
%TO.N,GND*%
X93619000Y-148435000D03*
%TD*%
D14*
%TO.P,R3,1*%
%TO.N,Net-(J2-Pin_2)*%
X154271000Y-109215000D03*
%TO.P,R3,2*%
%TO.N,Net-(D3-A)*%
X156271000Y-109215000D03*
%TD*%
D15*
%TO.P,J1,1,Pin_1*%
%TO.N,Net-(J1-Pin_1)*%
X100985000Y-148800000D03*
D16*
%TO.P,J1,2,Pin_2*%
%TO.N,Net-(J1-Pin_2)*%
X103525000Y-148800000D03*
%TO.P,J1,3,Pin_3*%
%TO.N,Net-(J1-Pin_3)*%
X106065000Y-148800000D03*
%TO.P,J1,4,Pin_4*%
%TO.N,GND*%
X108605000Y-148800000D03*
%TD*%
D14*
%TO.P,R3,1*%
%TO.N,Net-(J2-Pin_2)*%
X111671000Y-93415000D03*
%TO.P,R3,2*%
%TO.N,Net-(D3-A)*%
X113671000Y-93415000D03*
%TD*%
D20*
%TO.P,D1,1,K*%
%TO.N,Net-(D1-K)*%
X90017000Y-97735000D03*
%TO.P,D1,2,A*%
%TO.N,GND*%
X90017000Y-101035000D03*
%TD*%
D13*
%TO.P,U1,1,~{RESET}/PB5*%
%TO.N,Net-(J1-Pin_1)*%
X143832000Y-142086000D03*
%TO.P,U1,2,XTAL1/PB3*%
%TO.N,Net-(J1-Pin_2)*%
X143832000Y-143356000D03*
%TO.P,U1,3,XTAL2/PB4*%
%TO.N,Net-(J1-Pin_3)*%
X143832000Y-144626000D03*
%TO.P,U1,4,GND*%
%TO.N,GND*%
X143832000Y-145896000D03*
%TO.P,U1,5,AREF/PB0*%
%TO.N,Net-(J2-Pin_1)*%
X151007000Y-145896000D03*
%TO.P,U1,6,PB1*%
%TO.N,Net-(J2-Pin_2)*%
X151007000Y-144626000D03*
%TO.P,U1,7,PB2*%
%TO.N,Net-(J2-Pin_3)*%
X151007000Y-143356000D03*
%TO.P,U1,8,VCC*%
%TO.N,+5V*%
X151007000Y-142086000D03*
%TD*%
%TO.P,U1,1,~{RESET}/PB5*%
%TO.N,Net-(J1-Pin_1)*%
X143818000Y-47284000D03*
%TO.P,U1,2,XTAL1/PB3*%
%TO.N,Net-(J1-Pin_2)*%
X143818000Y-48554000D03*
%TO.P,U1,3,XTAL2/PB4*%
%TO.N,Net-(J1-Pin_3)*%
X143818000Y-49824000D03*
%TO.P,U1,4,GND*%
%TO.N,GND*%
X143818000Y-51094000D03*
%TO.P,U1,5,AREF/PB0*%
%TO.N,Net-(J2-Pin_1)*%
X150993000Y-51094000D03*
%TO.P,U1,6,PB1*%
%TO.N,Net-(J2-Pin_2)*%
X150993000Y-49824000D03*
%TO.P,U1,7,PB2*%
%TO.N,Net-(J2-Pin_3)*%
X150993000Y-48554000D03*
%TO.P,U1,8,VCC*%
%TO.N,+5V*%
X150993000Y-47284000D03*
%TD*%
D15*
%TO.P,J2,1,Pin_1*%
%TO.N,Net-(J2-Pin_1)*%
X151191000Y-76098000D03*
D16*
%TO.P,J2,2,Pin_2*%
%TO.N,Net-(J2-Pin_2)*%
X148651000Y-76098000D03*
%TO.P,J2,3,Pin_3*%
%TO.N,Net-(J2-Pin_3)*%
X146111000Y-76098000D03*
%TO.P,J2,4,Pin_4*%
%TO.N,+5V*%
X143571000Y-76098000D03*
%TD*%
D21*
%TO.P,R4,1*%
%TO.N,+5V*%
X94120000Y-123399000D03*
%TO.P,R4,2*%
%TO.N,Net-(D1-K)*%
X94120000Y-125399000D03*
%TD*%
D19*
%TO.P,R1,1*%
%TO.N,Net-(J1-Pin_3)*%
X140777000Y-65879000D03*
%TO.P,R1,2*%
%TO.N,Net-(D2-K)*%
X138777000Y-65879000D03*
%TD*%
D17*
%TO.P,D3,1,K*%
%TO.N,GND*%
X155248000Y-51602000D03*
D18*
%TO.P,D3,2,A*%
%TO.N,Net-(D3-A)*%
X155248000Y-49062000D03*
%TD*%
D13*
%TO.P,U1,1,~{RESET}/PB5*%
%TO.N,Net-(J1-Pin_1)*%
X101239000Y-142087000D03*
%TO.P,U1,2,XTAL1/PB3*%
%TO.N,Net-(J1-Pin_2)*%
X101239000Y-143357000D03*
%TO.P,U1,3,XTAL2/PB4*%
%TO.N,Net-(J1-Pin_3)*%
X101239000Y-144627000D03*
%TO.P,U1,4,GND*%
%TO.N,GND*%
X101239000Y-145897000D03*
%TO.P,U1,5,AREF/PB0*%
%TO.N,Net-(J2-Pin_1)*%
X108414000Y-145897000D03*
%TO.P,U1,6,PB1*%
%TO.N,Net-(J2-Pin_2)*%
X108414000Y-144627000D03*
%TO.P,U1,7,PB2*%
%TO.N,Net-(J2-Pin_3)*%
X108414000Y-143357000D03*
%TO.P,U1,8,VCC*%
%TO.N,+5V*%
X108414000Y-142087000D03*
%TD*%
D15*
%TO.P,J2,1,Pin_1*%
%TO.N,Net-(J2-Pin_1)*%
X108605000Y-139300000D03*
D16*
%TO.P,J2,2,Pin_2*%
%TO.N,Net-(J2-Pin_2)*%
X106065000Y-139300000D03*
%TO.P,J2,3,Pin_3*%
%TO.N,Net-(J2-Pin_3)*%
X103525000Y-139300000D03*
%TO.P,J2,4,Pin_4*%
%TO.N,+5V*%
X100985000Y-139300000D03*
%TD*%
D20*
%TO.P,D1,1,K*%
%TO.N,Net-(D1-K)*%
X132617000Y-81935000D03*
%TO.P,D1,2,A*%
%TO.N,GND*%
X132617000Y-85235000D03*
%TD*%
%TO.P,D1,1,K*%
%TO.N,Net-(D1-K)*%
X90024000Y-81936000D03*
%TO.P,D1,2,A*%
%TO.N,GND*%
X90024000Y-85236000D03*
%TD*%
D17*
%TO.P,D3,1,K*%
%TO.N,GND*%
X112662000Y-67404000D03*
D18*
%TO.P,D3,2,A*%
%TO.N,Net-(D3-A)*%
X112662000Y-64864000D03*
%TD*%
D20*
%TO.P,D2,1,K*%
%TO.N,Net-(D2-K)*%
X136205000Y-81933000D03*
%TO.P,D2,2,A*%
%TO.N,GND*%
X136205000Y-85233000D03*
%TD*%
%TO.P,D1,1,K*%
%TO.N,Net-(D1-K)*%
X132610000Y-50334000D03*
%TO.P,D1,2,A*%
%TO.N,GND*%
X132610000Y-53634000D03*
%TD*%
D19*
%TO.P,R1,1*%
%TO.N,Net-(J1-Pin_3)*%
X98184000Y-81680000D03*
%TO.P,R1,2*%
%TO.N,Net-(D2-K)*%
X96184000Y-81680000D03*
%TD*%
D13*
%TO.P,U1,1,~{RESET}/PB5*%
%TO.N,Net-(J1-Pin_1)*%
X143825000Y-126285000D03*
%TO.P,U1,2,XTAL1/PB3*%
%TO.N,Net-(J1-Pin_2)*%
X143825000Y-127555000D03*
%TO.P,U1,3,XTAL2/PB4*%
%TO.N,Net-(J1-Pin_3)*%
X143825000Y-128825000D03*
%TO.P,U1,4,GND*%
%TO.N,GND*%
X143825000Y-130095000D03*
%TO.P,U1,5,AREF/PB0*%
%TO.N,Net-(J2-Pin_1)*%
X151000000Y-130095000D03*
%TO.P,U1,6,PB1*%
%TO.N,Net-(J2-Pin_2)*%
X151000000Y-128825000D03*
%TO.P,U1,7,PB2*%
%TO.N,Net-(J2-Pin_3)*%
X151000000Y-127555000D03*
%TO.P,U1,8,VCC*%
%TO.N,+5V*%
X151000000Y-126285000D03*
%TD*%
D20*
%TO.P,D2,1,K*%
%TO.N,Net-(D2-K)*%
X93612000Y-66134000D03*
%TO.P,D2,2,A*%
%TO.N,GND*%
X93612000Y-69434000D03*
%TD*%
%TO.P,D2,1,K*%
%TO.N,Net-(D2-K)*%
X136205000Y-113533000D03*
%TO.P,D2,2,A*%
%TO.N,GND*%
X136205000Y-116833000D03*
%TD*%
%TO.P,D1,1,K*%
%TO.N,Net-(D1-K)*%
X90024000Y-129336000D03*
%TO.P,D1,2,A*%
%TO.N,GND*%
X90024000Y-132636000D03*
%TD*%
D15*
%TO.P,J2,1,Pin_1*%
%TO.N,Net-(J2-Pin_1)*%
X151184000Y-91897000D03*
D16*
%TO.P,J2,2,Pin_2*%
%TO.N,Net-(J2-Pin_2)*%
X148644000Y-91897000D03*
%TO.P,J2,3,Pin_3*%
%TO.N,Net-(J2-Pin_3)*%
X146104000Y-91897000D03*
%TO.P,J2,4,Pin_4*%
%TO.N,+5V*%
X143564000Y-91897000D03*
%TD*%
D19*
%TO.P,R2,1*%
%TO.N,Net-(J1-Pin_2)*%
X98168000Y-79394000D03*
%TO.P,R2,2*%
%TO.N,Net-(D1-K)*%
X96168000Y-79394000D03*
%TD*%
D14*
%TO.P,R3,1*%
%TO.N,Net-(J2-Pin_2)*%
X111678000Y-125016000D03*
%TO.P,R3,2*%
%TO.N,Net-(D3-A)*%
X113678000Y-125016000D03*
%TD*%
D19*
%TO.P,R2,1*%
%TO.N,Net-(J1-Pin_2)*%
X140761000Y-63593000D03*
%TO.P,R2,2*%
%TO.N,Net-(D1-K)*%
X138761000Y-63593000D03*
%TD*%
%TO.P,R2,1*%
%TO.N,Net-(J1-Pin_2)*%
X140754000Y-47792000D03*
%TO.P,R2,2*%
%TO.N,Net-(D1-K)*%
X138754000Y-47792000D03*
%TD*%
D15*
%TO.P,J1,1,Pin_1*%
%TO.N,Net-(J1-Pin_1)*%
X143564000Y-101397000D03*
D16*
%TO.P,J1,2,Pin_2*%
%TO.N,Net-(J1-Pin_2)*%
X146104000Y-101397000D03*
%TO.P,J1,3,Pin_3*%
%TO.N,Net-(J1-Pin_3)*%
X148644000Y-101397000D03*
%TO.P,J1,4,Pin_4*%
%TO.N,GND*%
X151184000Y-101397000D03*
%TD*%
D13*
%TO.P,U1,1,~{RESET}/PB5*%
%TO.N,Net-(J1-Pin_1)*%
X143825000Y-63085000D03*
%TO.P,U1,2,XTAL1/PB3*%
%TO.N,Net-(J1-Pin_2)*%
X143825000Y-64355000D03*
%TO.P,U1,3,XTAL2/PB4*%
%TO.N,Net-(J1-Pin_3)*%
X143825000Y-65625000D03*
%TO.P,U1,4,GND*%
%TO.N,GND*%
X143825000Y-66895000D03*
%TO.P,U1,5,AREF/PB0*%
%TO.N,Net-(J2-Pin_1)*%
X151000000Y-66895000D03*
%TO.P,U1,6,PB1*%
%TO.N,Net-(J2-Pin_2)*%
X151000000Y-65625000D03*
%TO.P,U1,7,PB2*%
%TO.N,Net-(J2-Pin_3)*%
X151000000Y-64355000D03*
%TO.P,U1,8,VCC*%
%TO.N,+5V*%
X151000000Y-63085000D03*
%TD*%
D21*
%TO.P,R4,1*%
%TO.N,+5V*%
X136713000Y-75998000D03*
%TO.P,R4,2*%
%TO.N,Net-(D1-K)*%
X136713000Y-77998000D03*
%TD*%
%TO.P,R4,1*%
%TO.N,+5V*%
X136713000Y-123398000D03*
%TO.P,R4,2*%
%TO.N,Net-(D1-K)*%
X136713000Y-125398000D03*
%TD*%
%TO.P,R4,1*%
%TO.N,+5V*%
X94120000Y-75999000D03*
%TO.P,R4,2*%
%TO.N,Net-(D1-K)*%
X94120000Y-77999000D03*
%TD*%
D13*
%TO.P,U1,1,~{RESET}/PB5*%
%TO.N,Net-(J1-Pin_1)*%
X101232000Y-78886000D03*
%TO.P,U1,2,XTAL1/PB3*%
%TO.N,Net-(J1-Pin_2)*%
X101232000Y-80156000D03*
%TO.P,U1,3,XTAL2/PB4*%
%TO.N,Net-(J1-Pin_3)*%
X101232000Y-81426000D03*
%TO.P,U1,4,GND*%
%TO.N,GND*%
X101232000Y-82696000D03*
%TO.P,U1,5,AREF/PB0*%
%TO.N,Net-(J2-Pin_1)*%
X108407000Y-82696000D03*
%TO.P,U1,6,PB1*%
%TO.N,Net-(J2-Pin_2)*%
X108407000Y-81426000D03*
%TO.P,U1,7,PB2*%
%TO.N,Net-(J2-Pin_3)*%
X108407000Y-80156000D03*
%TO.P,U1,8,VCC*%
%TO.N,+5V*%
X108407000Y-78886000D03*
%TD*%
D22*
%TO.N,GND*%
X130186000Y-128498000D03*
X87593000Y-65299000D03*
X89586000Y-102598000D03*
X132186000Y-70998000D03*
X87593000Y-81099000D03*
X92088000Y-111756000D03*
X132193000Y-149999000D03*
X92088000Y-80156000D03*
X92081000Y-95955000D03*
X92081000Y-48555000D03*
X134674000Y-48554000D03*
X132186000Y-118398000D03*
X130179000Y-49497000D03*
X130186000Y-81098000D03*
X87586000Y-96898000D03*
X130193000Y-144299000D03*
X134681000Y-111755000D03*
X130186000Y-65298000D03*
X130179000Y-96897000D03*
X132186000Y-86798000D03*
X134688000Y-143356000D03*
X132179000Y-55197000D03*
X132186000Y-134198000D03*
X134681000Y-80155000D03*
X89593000Y-118399000D03*
X87586000Y-49498000D03*
X89593000Y-134199000D03*
X134681000Y-127555000D03*
X87593000Y-112699000D03*
X92088000Y-64356000D03*
X134681000Y-64355000D03*
X87593000Y-128499000D03*
X87600000Y-144300000D03*
X92095000Y-143357000D03*
X89593000Y-70999000D03*
X132179000Y-102597000D03*
X134674000Y-95954000D03*
X130186000Y-112698000D03*
X89593000Y-86799000D03*
X89600000Y-150000000D03*
X89586000Y-55198000D03*
X92088000Y-127556000D03*
%TO.N,+5V*%
X85484000Y-131112000D03*
X128077000Y-67911000D03*
X85484000Y-115312000D03*
X128070000Y-52110000D03*
X128070000Y-99510000D03*
X85477000Y-99511000D03*
X128077000Y-115311000D03*
X128077000Y-131111000D03*
X85491000Y-146913000D03*
X85484000Y-83712000D03*
X128084000Y-146912000D03*
X85484000Y-67912000D03*
X128077000Y-83711000D03*
X85477000Y-52111000D03*
%TO.N,Net-(J2-Pin_2)*%
X149159000Y-80917000D03*
X149152000Y-96716000D03*
X149166000Y-144118000D03*
X149159000Y-112517000D03*
X149159000Y-128317000D03*
X106559000Y-49317000D03*
X149159000Y-65117000D03*
X106566000Y-128318000D03*
X106559000Y-96717000D03*
X149152000Y-49316000D03*
X106566000Y-112518000D03*
X106566000Y-80918000D03*
X106566000Y-65118000D03*
X106573000Y-144119000D03*
%TO.N,Net-(J1-Pin_2)*%
X147134000Y-143356000D03*
X147120000Y-95954000D03*
X104534000Y-127556000D03*
X104534000Y-111756000D03*
X104527000Y-48555000D03*
X147127000Y-64355000D03*
X147127000Y-111755000D03*
X147127000Y-127555000D03*
X104534000Y-64356000D03*
X104541000Y-143357000D03*
X104527000Y-95955000D03*
X104534000Y-80156000D03*
X147127000Y-80155000D03*
X147120000Y-48554000D03*
%TO.N,Net-(J2-Pin_1)*%
X152461000Y-130095000D03*
X109868000Y-82696000D03*
X109868000Y-66896000D03*
X152461000Y-114295000D03*
X152461000Y-82695000D03*
X152468000Y-145896000D03*
X109868000Y-114296000D03*
X109875000Y-145897000D03*
X152454000Y-98494000D03*
X109868000Y-130096000D03*
X109861000Y-51095000D03*
X109861000Y-98495000D03*
X152454000Y-51094000D03*
X152461000Y-66895000D03*
%TO.N,Net-(J1-Pin_3)*%
X148651000Y-113279000D03*
X106058000Y-113280000D03*
X148658000Y-144880000D03*
X106051000Y-50079000D03*
X148651000Y-81679000D03*
X106065000Y-144881000D03*
X148651000Y-129079000D03*
X148644000Y-50078000D03*
X148651000Y-65879000D03*
X148644000Y-97478000D03*
X106058000Y-129080000D03*
X106058000Y-65880000D03*
X106058000Y-81680000D03*
X106051000Y-97479000D03*
%TO.N,Net-(J1-Pin_1)*%
X146365000Y-63593000D03*
X146365000Y-126793000D03*
X103765000Y-47793000D03*
X103765000Y-95193000D03*
X146365000Y-79393000D03*
X103779000Y-142595000D03*
X103772000Y-110994000D03*
X146372000Y-142594000D03*
X146365000Y-110993000D03*
X146358000Y-47792000D03*
X103772000Y-79394000D03*
X146358000Y-95192000D03*
X103772000Y-63594000D03*
X103772000Y-126794000D03*
%TD*%
D23*
%TO.N,GND*%
X93603000Y-53635000D02*
X93605000Y-53633000D01*
D24*
X91319000Y-47539000D02*
X90049000Y-47539000D01*
D23*
X90017000Y-101035000D02*
X90017000Y-102167000D01*
X85283000Y-92713000D02*
X87509000Y-94939000D01*
X78653000Y-108514000D02*
X85290000Y-108514000D01*
X112655000Y-53127000D02*
X112655000Y-51603000D01*
X134674000Y-95700000D02*
X134674000Y-95954000D01*
X136203000Y-85235000D02*
X136205000Y-85233000D01*
X90049000Y-48835000D02*
X89786000Y-49098000D01*
X93612000Y-85234000D02*
X96916000Y-85234000D01*
X132386000Y-128098000D02*
X130586000Y-128098000D01*
X85297000Y-140115000D02*
X87523000Y-142341000D01*
X139502000Y-101032000D02*
X142040000Y-98494000D01*
X87516000Y-110740000D02*
X90056000Y-110740000D01*
D24*
X91326000Y-63340000D02*
X92088000Y-64102000D01*
D23*
X151808000Y-84981000D02*
X155001000Y-84981000D01*
X132617000Y-85235000D02*
X132617000Y-86367000D01*
X132617000Y-69435000D02*
X132617000Y-70567000D01*
X99454000Y-130096000D02*
X101677000Y-130096000D01*
X151191000Y-69798000D02*
X151808000Y-69181000D01*
X112408000Y-116582000D02*
X112662000Y-116328000D01*
X89793000Y-80699000D02*
X87993000Y-80699000D01*
X90063000Y-143637000D02*
X89800000Y-143900000D01*
X132649000Y-112035000D02*
X132386000Y-112298000D01*
X90024000Y-69436000D02*
X90024000Y-70568000D01*
X90049000Y-47539000D02*
X90049000Y-48835000D01*
D24*
X91326000Y-110740000D02*
X90056000Y-110740000D01*
X133919000Y-79139000D02*
X132649000Y-79139000D01*
X133912000Y-47538000D02*
X134674000Y-48300000D01*
D23*
X96916000Y-132634000D02*
X99454000Y-130096000D01*
X90056000Y-126540000D02*
X90056000Y-127836000D01*
X132617000Y-117967000D02*
X132186000Y-118398000D01*
X127890000Y-140114000D02*
X130116000Y-142340000D01*
D24*
X91319000Y-47539000D02*
X92081000Y-48301000D01*
D23*
X134681000Y-127301000D02*
X134681000Y-127555000D01*
X87993000Y-80699000D02*
X87593000Y-81099000D01*
X154994000Y-100780000D02*
X155248000Y-100526000D01*
X92088000Y-127302000D02*
X92088000Y-127556000D01*
X136198000Y-101032000D02*
X139502000Y-101032000D01*
X136210000Y-148436000D02*
X136212000Y-148434000D01*
X112401000Y-100781000D02*
X112655000Y-100527000D01*
X88000000Y-143900000D02*
X87600000Y-144300000D01*
X155001000Y-132381000D02*
X155255000Y-132127000D01*
X89793000Y-128099000D02*
X87993000Y-128099000D01*
X87993000Y-64899000D02*
X87593000Y-65299000D01*
X134681000Y-79901000D02*
X134681000Y-80155000D01*
X112662000Y-68928000D02*
X112662000Y-67404000D01*
X132617000Y-86367000D02*
X132186000Y-86798000D01*
D24*
X133919000Y-110739000D02*
X134681000Y-111501000D01*
D23*
X99454000Y-114296000D02*
X101677000Y-114296000D01*
X151198000Y-148799000D02*
X151815000Y-148182000D01*
X90031000Y-149569000D02*
X89600000Y-150000000D01*
X136203000Y-132635000D02*
X136205000Y-132633000D01*
X90017000Y-102167000D02*
X89586000Y-102598000D01*
X112662000Y-116328000D02*
X112662000Y-114804000D01*
X155001000Y-69181000D02*
X155255000Y-68927000D01*
X121239000Y-45312000D02*
X127876000Y-45312000D01*
X108598000Y-117199000D02*
X109215000Y-116582000D01*
X90017000Y-53635000D02*
X93603000Y-53635000D01*
X154994000Y-53380000D02*
X155248000Y-53126000D01*
X151808000Y-116581000D02*
X155001000Y-116581000D01*
D24*
X133919000Y-79139000D02*
X134681000Y-79901000D01*
D23*
X85290000Y-76914000D02*
X87516000Y-79140000D01*
X127883000Y-76913000D02*
X130109000Y-79139000D01*
X132617000Y-132635000D02*
X132617000Y-133767000D01*
X92088000Y-64102000D02*
X92088000Y-64356000D01*
X93619000Y-148435000D02*
X96923000Y-148435000D01*
X90056000Y-64636000D02*
X89793000Y-64899000D01*
X92081000Y-48301000D02*
X92081000Y-48555000D01*
X87993000Y-128099000D02*
X87593000Y-128499000D01*
X109215000Y-69182000D02*
X112408000Y-69182000D01*
X136203000Y-69435000D02*
X136205000Y-69433000D01*
X132386000Y-80698000D02*
X130586000Y-80698000D01*
X132610000Y-101034000D02*
X132610000Y-102166000D01*
X90031000Y-148437000D02*
X90031000Y-149569000D01*
D24*
X133919000Y-63339000D02*
X132649000Y-63339000D01*
D23*
X112662000Y-84728000D02*
X112662000Y-83204000D01*
X99447000Y-51095000D02*
X101670000Y-51095000D01*
X142040000Y-98494000D02*
X144263000Y-98494000D01*
X90024000Y-117968000D02*
X89593000Y-118399000D01*
X130593000Y-143899000D02*
X130193000Y-144299000D01*
X132642000Y-96234000D02*
X132379000Y-96497000D01*
X92088000Y-111502000D02*
X92088000Y-111756000D01*
X134681000Y-64101000D02*
X134681000Y-64355000D01*
X142047000Y-114295000D02*
X144270000Y-114295000D01*
X90056000Y-127836000D02*
X89793000Y-128099000D01*
X136196000Y-101034000D02*
X136198000Y-101032000D01*
X151191000Y-85598000D02*
X151808000Y-84981000D01*
X132379000Y-96497000D02*
X130579000Y-96497000D01*
X112408000Y-69182000D02*
X112662000Y-68928000D01*
D24*
X133926000Y-142340000D02*
X134688000Y-143102000D01*
D23*
X89800000Y-143900000D02*
X88000000Y-143900000D01*
X96916000Y-69434000D02*
X99454000Y-66896000D01*
D24*
X133912000Y-94938000D02*
X132642000Y-94938000D01*
D23*
X99454000Y-66896000D02*
X101677000Y-66896000D01*
X136205000Y-69433000D02*
X139509000Y-69433000D01*
X78653000Y-124314000D02*
X85290000Y-124314000D01*
X139509000Y-116833000D02*
X142047000Y-114295000D01*
X85290000Y-124314000D02*
X87516000Y-126540000D01*
X132649000Y-63339000D02*
X132649000Y-64635000D01*
X99461000Y-145897000D02*
X101684000Y-145897000D01*
X132393000Y-143899000D02*
X130593000Y-143899000D01*
D24*
X91326000Y-79140000D02*
X92088000Y-79902000D01*
D23*
X90049000Y-94939000D02*
X90049000Y-96235000D01*
X108598000Y-132999000D02*
X109215000Y-132382000D01*
X130586000Y-80698000D02*
X130186000Y-81098000D01*
X78646000Y-45313000D02*
X85283000Y-45313000D01*
X132617000Y-116835000D02*
X132617000Y-117967000D01*
X89793000Y-64899000D02*
X87993000Y-64899000D01*
X112669000Y-147929000D02*
X112669000Y-146405000D01*
X87509000Y-94939000D02*
X90049000Y-94939000D01*
X132610000Y-101034000D02*
X136196000Y-101034000D01*
X132649000Y-110739000D02*
X132649000Y-112035000D01*
X90056000Y-112036000D02*
X89793000Y-112299000D01*
X93610000Y-85236000D02*
X93612000Y-85234000D01*
X151808000Y-69181000D02*
X155001000Y-69181000D01*
X121253000Y-140114000D02*
X127890000Y-140114000D01*
X108605000Y-148800000D02*
X109222000Y-148183000D01*
X90017000Y-54767000D02*
X89586000Y-55198000D01*
X155262000Y-147928000D02*
X155262000Y-146404000D01*
D24*
X91326000Y-126540000D02*
X92088000Y-127302000D01*
X133912000Y-47538000D02*
X132642000Y-47538000D01*
D23*
X87516000Y-79140000D02*
X90056000Y-79140000D01*
X132649000Y-127835000D02*
X132386000Y-128098000D01*
X134674000Y-48300000D02*
X134674000Y-48554000D01*
X78653000Y-61114000D02*
X85290000Y-61114000D01*
X139509000Y-85233000D02*
X142047000Y-82695000D01*
D24*
X133919000Y-126539000D02*
X132649000Y-126539000D01*
D23*
X87516000Y-126540000D02*
X90056000Y-126540000D01*
X109215000Y-132382000D02*
X112408000Y-132382000D01*
X151815000Y-148182000D02*
X155008000Y-148182000D01*
X112655000Y-100527000D02*
X112655000Y-99003000D01*
D24*
X91326000Y-110740000D02*
X92088000Y-111502000D01*
D23*
X132617000Y-70567000D02*
X132186000Y-70998000D01*
X139516000Y-148434000D02*
X142054000Y-145896000D01*
X112408000Y-84982000D02*
X112662000Y-84728000D01*
X151191000Y-132998000D02*
X151808000Y-132381000D01*
X93617000Y-148437000D02*
X93619000Y-148435000D01*
X90056000Y-110740000D02*
X90056000Y-112036000D01*
X132610000Y-53634000D02*
X132610000Y-54766000D01*
D24*
X133919000Y-126539000D02*
X134681000Y-127301000D01*
D23*
X132610000Y-54766000D02*
X132179000Y-55197000D01*
X127876000Y-92712000D02*
X130102000Y-94938000D01*
X155255000Y-132127000D02*
X155255000Y-130603000D01*
X90024000Y-69436000D02*
X93610000Y-69436000D01*
X85290000Y-61114000D02*
X87516000Y-63340000D01*
X155255000Y-68927000D02*
X155255000Y-67403000D01*
X155255000Y-116327000D02*
X155255000Y-114803000D01*
X132610000Y-53634000D02*
X136196000Y-53634000D01*
X136198000Y-53632000D02*
X139502000Y-53632000D01*
X127883000Y-61113000D02*
X130109000Y-63339000D01*
X87523000Y-142341000D02*
X90063000Y-142341000D01*
X132649000Y-80435000D02*
X132386000Y-80698000D01*
X93612000Y-69434000D02*
X96916000Y-69434000D01*
X155001000Y-116581000D02*
X155255000Y-116327000D01*
X132642000Y-47538000D02*
X132642000Y-48834000D01*
X155008000Y-148182000D02*
X155262000Y-147928000D01*
X112408000Y-132382000D02*
X112662000Y-132128000D01*
X109215000Y-116582000D02*
X112408000Y-116582000D01*
X132649000Y-79139000D02*
X132649000Y-80435000D01*
X112662000Y-132128000D02*
X112662000Y-130604000D01*
X132386000Y-112298000D02*
X130586000Y-112298000D01*
X93610000Y-69436000D02*
X93612000Y-69434000D01*
X89786000Y-49098000D02*
X87986000Y-49098000D01*
X130579000Y-96497000D02*
X130179000Y-96897000D01*
X136205000Y-116833000D02*
X139509000Y-116833000D01*
X90024000Y-116836000D02*
X90024000Y-117968000D01*
X139509000Y-132633000D02*
X142047000Y-130095000D01*
X93603000Y-101035000D02*
X93605000Y-101033000D01*
X87986000Y-96498000D02*
X87586000Y-96898000D01*
X90063000Y-142341000D02*
X90063000Y-143637000D01*
X93605000Y-53633000D02*
X96909000Y-53633000D01*
X121239000Y-92712000D02*
X127876000Y-92712000D01*
X90024000Y-85236000D02*
X93610000Y-85236000D01*
X90024000Y-133768000D02*
X89593000Y-134199000D01*
X130109000Y-63339000D02*
X132649000Y-63339000D01*
X99447000Y-98495000D02*
X101670000Y-98495000D01*
X132624000Y-148436000D02*
X136210000Y-148436000D01*
D24*
X91319000Y-94939000D02*
X92081000Y-95701000D01*
D23*
X93612000Y-132634000D02*
X96916000Y-132634000D01*
X136196000Y-53634000D02*
X136198000Y-53632000D01*
X109215000Y-84982000D02*
X112408000Y-84982000D01*
X130109000Y-79139000D02*
X132649000Y-79139000D01*
X155255000Y-84727000D02*
X155255000Y-83203000D01*
X92095000Y-143103000D02*
X92095000Y-143357000D01*
X132624000Y-149568000D02*
X132193000Y-149999000D01*
X108591000Y-53998000D02*
X109208000Y-53381000D01*
X132617000Y-132635000D02*
X136203000Y-132635000D01*
X112401000Y-53381000D02*
X112655000Y-53127000D01*
X96916000Y-116834000D02*
X99454000Y-114296000D01*
X142047000Y-130095000D02*
X144270000Y-130095000D01*
X151801000Y-100780000D02*
X154994000Y-100780000D01*
X130109000Y-126539000D02*
X132649000Y-126539000D01*
X108598000Y-85599000D02*
X109215000Y-84982000D01*
X132624000Y-148436000D02*
X132624000Y-149568000D01*
X90056000Y-63340000D02*
X90056000Y-64636000D01*
X90024000Y-116836000D02*
X93610000Y-116836000D01*
X139509000Y-69433000D02*
X142047000Y-66895000D01*
X132617000Y-133767000D02*
X132186000Y-134198000D01*
X87986000Y-49098000D02*
X87586000Y-49498000D01*
X130109000Y-110739000D02*
X132649000Y-110739000D01*
X85290000Y-108514000D02*
X87516000Y-110740000D01*
D24*
X91333000Y-142341000D02*
X90063000Y-142341000D01*
D23*
X155248000Y-100526000D02*
X155248000Y-99002000D01*
X142040000Y-51094000D02*
X144263000Y-51094000D01*
X127876000Y-45312000D02*
X130102000Y-47538000D01*
X109222000Y-148183000D02*
X112415000Y-148183000D01*
X151191000Y-117198000D02*
X151808000Y-116581000D01*
X127883000Y-108513000D02*
X130109000Y-110739000D01*
X139502000Y-53632000D02*
X142040000Y-51094000D01*
D24*
X91326000Y-126540000D02*
X90056000Y-126540000D01*
D23*
X109208000Y-53381000D02*
X112401000Y-53381000D01*
X90024000Y-86368000D02*
X89593000Y-86799000D01*
X96923000Y-148435000D02*
X99461000Y-145897000D01*
X132617000Y-69435000D02*
X136203000Y-69435000D01*
X132610000Y-102166000D02*
X132179000Y-102597000D01*
X90024000Y-85236000D02*
X90024000Y-86368000D01*
X132649000Y-64635000D02*
X132386000Y-64898000D01*
X87509000Y-47539000D02*
X90049000Y-47539000D01*
X90056000Y-79140000D02*
X90056000Y-80436000D01*
X90024000Y-132636000D02*
X93610000Y-132636000D01*
X121246000Y-124313000D02*
X127883000Y-124313000D01*
X108598000Y-69799000D02*
X109215000Y-69182000D01*
X130579000Y-49097000D02*
X130179000Y-49497000D01*
X96909000Y-101033000D02*
X99447000Y-98495000D01*
X142047000Y-66895000D02*
X144270000Y-66895000D01*
X87993000Y-112299000D02*
X87593000Y-112699000D01*
X92081000Y-95701000D02*
X92081000Y-95955000D01*
X92088000Y-79902000D02*
X92088000Y-80156000D01*
X93612000Y-116834000D02*
X96916000Y-116834000D01*
X151184000Y-101397000D02*
X151801000Y-100780000D01*
X121246000Y-76913000D02*
X127883000Y-76913000D01*
D24*
X133926000Y-142340000D02*
X132656000Y-142340000D01*
D23*
X132642000Y-94938000D02*
X132642000Y-96234000D01*
X89793000Y-112299000D02*
X87993000Y-112299000D01*
X112415000Y-148183000D02*
X112669000Y-147929000D01*
X93610000Y-116836000D02*
X93612000Y-116834000D01*
X90017000Y-53635000D02*
X90017000Y-54767000D01*
D24*
X133919000Y-110739000D02*
X132649000Y-110739000D01*
D23*
X151808000Y-132381000D02*
X155001000Y-132381000D01*
D24*
X91319000Y-94939000D02*
X90049000Y-94939000D01*
D23*
X87516000Y-63340000D02*
X90056000Y-63340000D01*
X130586000Y-128098000D02*
X130186000Y-128498000D01*
X142047000Y-82695000D02*
X144270000Y-82695000D01*
X93610000Y-132636000D02*
X93612000Y-132634000D01*
X127883000Y-124313000D02*
X130109000Y-126539000D01*
X99454000Y-82696000D02*
X101677000Y-82696000D01*
X132649000Y-126539000D02*
X132649000Y-127835000D01*
X132656000Y-142340000D02*
X132656000Y-143636000D01*
X78653000Y-76914000D02*
X85290000Y-76914000D01*
D24*
X91333000Y-142341000D02*
X92095000Y-143103000D01*
X133919000Y-63339000D02*
X134681000Y-64101000D01*
D23*
X132656000Y-143636000D02*
X132393000Y-143899000D01*
X109208000Y-100781000D02*
X112401000Y-100781000D01*
X130102000Y-47538000D02*
X132642000Y-47538000D01*
X130586000Y-64898000D02*
X130186000Y-65298000D01*
X155001000Y-84981000D02*
X155255000Y-84727000D01*
X90031000Y-148437000D02*
X93617000Y-148437000D01*
X96909000Y-53633000D02*
X99447000Y-51095000D01*
X78660000Y-140115000D02*
X85297000Y-140115000D01*
X93605000Y-101033000D02*
X96909000Y-101033000D01*
X130116000Y-142340000D02*
X132656000Y-142340000D01*
X132386000Y-64898000D02*
X130586000Y-64898000D01*
X136203000Y-116835000D02*
X136205000Y-116833000D01*
X89786000Y-96498000D02*
X87986000Y-96498000D01*
X134681000Y-111501000D02*
X134681000Y-111755000D01*
X90017000Y-101035000D02*
X93603000Y-101035000D01*
X155248000Y-53126000D02*
X155248000Y-51602000D01*
X136212000Y-148434000D02*
X139516000Y-148434000D01*
X132642000Y-48834000D02*
X132379000Y-49097000D01*
X142054000Y-145896000D02*
X144277000Y-145896000D01*
X130586000Y-112298000D02*
X130186000Y-112698000D01*
X121246000Y-61113000D02*
X127883000Y-61113000D01*
X151184000Y-53997000D02*
X151801000Y-53380000D01*
X90024000Y-132636000D02*
X90024000Y-133768000D01*
X134688000Y-143102000D02*
X134688000Y-143356000D01*
X130102000Y-94938000D02*
X132642000Y-94938000D01*
X90056000Y-80436000D02*
X89793000Y-80699000D01*
X90024000Y-70568000D02*
X89593000Y-70999000D01*
X132379000Y-49097000D02*
X130579000Y-49097000D01*
X85283000Y-45313000D02*
X87509000Y-47539000D01*
D24*
X133912000Y-94938000D02*
X134674000Y-95700000D01*
D23*
X136205000Y-132633000D02*
X139509000Y-132633000D01*
X132617000Y-116835000D02*
X136203000Y-116835000D01*
X132617000Y-85235000D02*
X136203000Y-85235000D01*
X121246000Y-108513000D02*
X127883000Y-108513000D01*
X136205000Y-85233000D02*
X139509000Y-85233000D01*
D24*
X91326000Y-63340000D02*
X90056000Y-63340000D01*
X91326000Y-79140000D02*
X90056000Y-79140000D01*
D23*
X78646000Y-92713000D02*
X85283000Y-92713000D01*
X108591000Y-101398000D02*
X109208000Y-100781000D01*
X90049000Y-96235000D02*
X89786000Y-96498000D01*
X96916000Y-85234000D02*
X99454000Y-82696000D01*
X151801000Y-53380000D02*
X154994000Y-53380000D01*
D24*
%TO.N,+5V*%
X100985000Y-138215000D02*
X100985000Y-139300000D01*
D23*
X121253000Y-147614000D02*
X127382000Y-147614000D01*
X143464000Y-91797000D02*
X143564000Y-91897000D01*
D24*
X136713000Y-75998000D02*
X143471000Y-75998000D01*
X110115000Y-47285000D02*
X110386000Y-47014000D01*
X136713000Y-107598000D02*
X143471000Y-107598000D01*
X152722000Y-142086000D02*
X152993000Y-141815000D01*
D23*
X94050000Y-139216000D02*
X94127000Y-139293000D01*
X136643000Y-139215000D02*
X136720000Y-139292000D01*
D24*
X132642000Y-91813000D02*
X136629000Y-91813000D01*
D23*
X127375000Y-116013000D02*
X128077000Y-115311000D01*
X100878000Y-123399000D02*
X100978000Y-123499000D01*
X121239000Y-100212000D02*
X127368000Y-100212000D01*
D24*
X152438000Y-58998000D02*
X143786000Y-58998000D01*
X143571000Y-122413000D02*
X143571000Y-123498000D01*
D23*
X84782000Y-131814000D02*
X85484000Y-131112000D01*
D24*
X136713000Y-60198000D02*
X143471000Y-60198000D01*
X152715000Y-63085000D02*
X152986000Y-62814000D01*
X108400000Y-47285000D02*
X110115000Y-47285000D01*
X94120000Y-107599000D02*
X100878000Y-107599000D01*
D23*
X100878000Y-60199000D02*
X100978000Y-60299000D01*
D24*
X152715000Y-110485000D02*
X152986000Y-110214000D01*
X109845000Y-122199000D02*
X101193000Y-122199000D01*
X90056000Y-123415000D02*
X94043000Y-123415000D01*
X136720000Y-139199000D02*
X143478000Y-139199000D01*
X101193000Y-122199000D02*
X100978000Y-122414000D01*
X110386000Y-94414000D02*
X110386000Y-91146000D01*
D23*
X94036000Y-44414000D02*
X94113000Y-44491000D01*
X84782000Y-68614000D02*
X85484000Y-67912000D01*
D24*
X151000000Y-78885000D02*
X152715000Y-78885000D01*
X152715000Y-78885000D02*
X152986000Y-78614000D01*
X110393000Y-106947000D02*
X109845000Y-106399000D01*
D23*
X78653000Y-131814000D02*
X84782000Y-131814000D01*
X143478000Y-139199000D02*
X143578000Y-139299000D01*
D24*
X152979000Y-43745000D02*
X152431000Y-43197000D01*
X108407000Y-126286000D02*
X110122000Y-126286000D01*
X90049000Y-44414000D02*
X94036000Y-44414000D01*
D23*
X136636000Y-60214000D02*
X136713000Y-60291000D01*
D24*
X152986000Y-75346000D02*
X152438000Y-74798000D01*
D23*
X121246000Y-68613000D02*
X127375000Y-68613000D01*
D24*
X109838000Y-90598000D02*
X101186000Y-90598000D01*
X90056000Y-60215000D02*
X94043000Y-60215000D01*
D23*
X100871000Y-44398000D02*
X100971000Y-44498000D01*
D24*
X152715000Y-126285000D02*
X152986000Y-126014000D01*
X152986000Y-122746000D02*
X152438000Y-122198000D01*
X110393000Y-75347000D02*
X109845000Y-74799000D01*
X143786000Y-106398000D02*
X143571000Y-106613000D01*
X151000000Y-126285000D02*
X152715000Y-126285000D01*
X152986000Y-110214000D02*
X152986000Y-106946000D01*
X108407000Y-110486000D02*
X110122000Y-110486000D01*
X110122000Y-78886000D02*
X110393000Y-78615000D01*
X152445000Y-137999000D02*
X143793000Y-137999000D01*
X152438000Y-122198000D02*
X143786000Y-122198000D01*
X143571000Y-106613000D02*
X143571000Y-107698000D01*
X101193000Y-58999000D02*
X100978000Y-59214000D01*
X101186000Y-90598000D02*
X100971000Y-90813000D01*
D23*
X127375000Y-131813000D02*
X128077000Y-131111000D01*
D24*
X132649000Y-123414000D02*
X136636000Y-123414000D01*
X90056000Y-107615000D02*
X94043000Y-107615000D01*
D23*
X143471000Y-60198000D02*
X143571000Y-60298000D01*
D24*
X151000000Y-110485000D02*
X152715000Y-110485000D01*
X94113000Y-91798000D02*
X100871000Y-91798000D01*
X136706000Y-91797000D02*
X143464000Y-91797000D01*
D23*
X78646000Y-52813000D02*
X84775000Y-52813000D01*
X127375000Y-84413000D02*
X128077000Y-83711000D01*
D24*
X110393000Y-110215000D02*
X110393000Y-106947000D01*
D23*
X121246000Y-131813000D02*
X127375000Y-131813000D01*
D24*
X152979000Y-47013000D02*
X152979000Y-43745000D01*
D23*
X136629000Y-91813000D02*
X136706000Y-91890000D01*
X143464000Y-44397000D02*
X143564000Y-44497000D01*
X136636000Y-76014000D02*
X136713000Y-76091000D01*
X84789000Y-147615000D02*
X85491000Y-146913000D01*
D24*
X101186000Y-43198000D02*
X100971000Y-43413000D01*
X150993000Y-47284000D02*
X152708000Y-47284000D01*
D23*
X78660000Y-147615000D02*
X84789000Y-147615000D01*
D24*
X90056000Y-76015000D02*
X94043000Y-76015000D01*
D23*
X94043000Y-123415000D02*
X94120000Y-123492000D01*
D24*
X152986000Y-62814000D02*
X152986000Y-59546000D01*
D23*
X94043000Y-76015000D02*
X94120000Y-76092000D01*
D24*
X110393000Y-126015000D02*
X110393000Y-122747000D01*
D23*
X136636000Y-107614000D02*
X136713000Y-107691000D01*
D24*
X108414000Y-142087000D02*
X110129000Y-142087000D01*
X152708000Y-94684000D02*
X152979000Y-94413000D01*
D23*
X100871000Y-91798000D02*
X100971000Y-91898000D01*
D24*
X152438000Y-74798000D02*
X143786000Y-74798000D01*
X143564000Y-90812000D02*
X143564000Y-91897000D01*
X143571000Y-59213000D02*
X143571000Y-60298000D01*
X143786000Y-58998000D02*
X143571000Y-59213000D01*
X110129000Y-142087000D02*
X110400000Y-141816000D01*
X110393000Y-62815000D02*
X110393000Y-59547000D01*
D23*
X94043000Y-60215000D02*
X94120000Y-60292000D01*
D24*
X110122000Y-63086000D02*
X110393000Y-62815000D01*
D23*
X84782000Y-116014000D02*
X85484000Y-115312000D01*
D24*
X143779000Y-90597000D02*
X143564000Y-90812000D01*
D23*
X84775000Y-100213000D02*
X85477000Y-99511000D01*
D24*
X109845000Y-58999000D02*
X101193000Y-58999000D01*
D23*
X100885000Y-139200000D02*
X100985000Y-139300000D01*
D24*
X100978000Y-106614000D02*
X100978000Y-107699000D01*
X110393000Y-122747000D02*
X109845000Y-122199000D01*
X100971000Y-90813000D02*
X100971000Y-91898000D01*
X152986000Y-126014000D02*
X152986000Y-122746000D01*
X101193000Y-106399000D02*
X100978000Y-106614000D01*
X132649000Y-107614000D02*
X136636000Y-107614000D01*
D23*
X127375000Y-68613000D02*
X128077000Y-67911000D01*
X121239000Y-52812000D02*
X127368000Y-52812000D01*
X136636000Y-123414000D02*
X136713000Y-123491000D01*
X127368000Y-52812000D02*
X128070000Y-52110000D01*
D24*
X152986000Y-78614000D02*
X152986000Y-75346000D01*
X152986000Y-106946000D02*
X152438000Y-106398000D01*
X109845000Y-74799000D02*
X101193000Y-74799000D01*
X143571000Y-75013000D02*
X143571000Y-76098000D01*
D23*
X94043000Y-107615000D02*
X94120000Y-107692000D01*
X121246000Y-116013000D02*
X127375000Y-116013000D01*
D24*
X100978000Y-59214000D02*
X100978000Y-60299000D01*
X150993000Y-94684000D02*
X152708000Y-94684000D01*
X110386000Y-47014000D02*
X110386000Y-43746000D01*
D23*
X100878000Y-75999000D02*
X100978000Y-76099000D01*
X136629000Y-44413000D02*
X136706000Y-44490000D01*
D24*
X143793000Y-137999000D02*
X143578000Y-138214000D01*
X152979000Y-91145000D02*
X152431000Y-90597000D01*
X151000000Y-63085000D02*
X152715000Y-63085000D01*
D23*
X84775000Y-52813000D02*
X85477000Y-52111000D01*
D24*
X94113000Y-44398000D02*
X100871000Y-44398000D01*
X110122000Y-126286000D02*
X110393000Y-126015000D01*
X152431000Y-43197000D02*
X143779000Y-43197000D01*
X94120000Y-123399000D02*
X100878000Y-123399000D01*
X132656000Y-139215000D02*
X136643000Y-139215000D01*
X108407000Y-78886000D02*
X110122000Y-78886000D01*
X100978000Y-75014000D02*
X100978000Y-76099000D01*
X152431000Y-90597000D02*
X143779000Y-90597000D01*
D23*
X94036000Y-91814000D02*
X94113000Y-91891000D01*
D24*
X152708000Y-47284000D02*
X152979000Y-47013000D01*
D23*
X78653000Y-84414000D02*
X84782000Y-84414000D01*
X143471000Y-75998000D02*
X143571000Y-76098000D01*
X78653000Y-68614000D02*
X84782000Y-68614000D01*
D24*
X110400000Y-141816000D02*
X110400000Y-138548000D01*
X108407000Y-63086000D02*
X110122000Y-63086000D01*
X90049000Y-91814000D02*
X94036000Y-91814000D01*
X151007000Y-142086000D02*
X152722000Y-142086000D01*
X152993000Y-138547000D02*
X152445000Y-137999000D01*
D23*
X127382000Y-147614000D02*
X128084000Y-146912000D01*
X84782000Y-84414000D02*
X85484000Y-83712000D01*
D24*
X108400000Y-94685000D02*
X110115000Y-94685000D01*
X143578000Y-138214000D02*
X143578000Y-139299000D01*
X132642000Y-44413000D02*
X136629000Y-44413000D01*
X94120000Y-60199000D02*
X100878000Y-60199000D01*
X110400000Y-138548000D02*
X109852000Y-138000000D01*
D23*
X78653000Y-116014000D02*
X84782000Y-116014000D01*
D24*
X109845000Y-106399000D02*
X101193000Y-106399000D01*
X101193000Y-74799000D02*
X100978000Y-75014000D01*
X132649000Y-76014000D02*
X136636000Y-76014000D01*
X90063000Y-139216000D02*
X94050000Y-139216000D01*
X110122000Y-110486000D02*
X110393000Y-110215000D01*
X101200000Y-138000000D02*
X100985000Y-138215000D01*
X152979000Y-94413000D02*
X152979000Y-91145000D01*
X109838000Y-43198000D02*
X101186000Y-43198000D01*
X143786000Y-122198000D02*
X143571000Y-122413000D01*
D23*
X127368000Y-100212000D02*
X128070000Y-99510000D01*
D24*
X136713000Y-123398000D02*
X143471000Y-123398000D01*
D23*
X78646000Y-100213000D02*
X84775000Y-100213000D01*
D24*
X110386000Y-43746000D02*
X109838000Y-43198000D01*
D23*
X143471000Y-123398000D02*
X143571000Y-123498000D01*
D24*
X152993000Y-141815000D02*
X152993000Y-138547000D01*
X110386000Y-91146000D02*
X109838000Y-90598000D01*
X152986000Y-59546000D02*
X152438000Y-58998000D01*
D23*
X121246000Y-84413000D02*
X127375000Y-84413000D01*
D24*
X136706000Y-44397000D02*
X143464000Y-44397000D01*
X100971000Y-43413000D02*
X100971000Y-44498000D01*
X94127000Y-139200000D02*
X100885000Y-139200000D01*
X143779000Y-43197000D02*
X143564000Y-43412000D01*
X110393000Y-59547000D02*
X109845000Y-58999000D01*
D23*
X143471000Y-107598000D02*
X143571000Y-107698000D01*
D24*
X94120000Y-75999000D02*
X100878000Y-75999000D01*
X100978000Y-122414000D02*
X100978000Y-123499000D01*
X109852000Y-138000000D02*
X101200000Y-138000000D01*
X110393000Y-78615000D02*
X110393000Y-75347000D01*
D23*
X100878000Y-107599000D02*
X100978000Y-107699000D01*
D24*
X110115000Y-94685000D02*
X110386000Y-94414000D01*
X143564000Y-43412000D02*
X143564000Y-44497000D01*
X152438000Y-106398000D02*
X143786000Y-106398000D01*
X132649000Y-60214000D02*
X136636000Y-60214000D01*
X143786000Y-74798000D02*
X143571000Y-75013000D01*
D23*
%TO.N,Net-(D1-K)*%
X84230000Y-127064000D02*
X86502000Y-129336000D01*
X94120000Y-62292000D02*
X94866000Y-62292000D01*
X132617000Y-129335000D02*
X133917000Y-129335000D01*
X86502000Y-129336000D02*
X90024000Y-129336000D01*
X84237000Y-142865000D02*
X86509000Y-145137000D01*
X136713000Y-62291000D02*
X137459000Y-62291000D01*
X91317000Y-50335000D02*
X93859000Y-47793000D01*
X94859000Y-46491000D02*
X96161000Y-47793000D01*
X84230000Y-79664000D02*
X86502000Y-81936000D01*
X136459000Y-63593000D02*
X138761000Y-63593000D01*
X90017000Y-97735000D02*
X91317000Y-97735000D01*
X121239000Y-48062000D02*
X126816000Y-48062000D01*
X126816000Y-95462000D02*
X129088000Y-97734000D01*
X126830000Y-142864000D02*
X129102000Y-145136000D01*
X93866000Y-110994000D02*
X96168000Y-110994000D01*
X121246000Y-79663000D02*
X126823000Y-79663000D01*
X129088000Y-97734000D02*
X132610000Y-97734000D01*
X94859000Y-93891000D02*
X96161000Y-95193000D01*
X78646000Y-95463000D02*
X84223000Y-95463000D01*
X90024000Y-66136000D02*
X91324000Y-66136000D01*
X94120000Y-78092000D02*
X94866000Y-78092000D01*
X94120000Y-109692000D02*
X94866000Y-109692000D01*
X91317000Y-97735000D02*
X93859000Y-95193000D01*
X132617000Y-66135000D02*
X133917000Y-66135000D01*
X129102000Y-145136000D02*
X132624000Y-145136000D01*
X94866000Y-78092000D02*
X96168000Y-79394000D01*
X136713000Y-125491000D02*
X137459000Y-125491000D01*
X132624000Y-145136000D02*
X133924000Y-145136000D01*
X126823000Y-127063000D02*
X129095000Y-129335000D01*
X132610000Y-97734000D02*
X133910000Y-97734000D01*
X121239000Y-95462000D02*
X126816000Y-95462000D01*
X84230000Y-111264000D02*
X86502000Y-113536000D01*
X91324000Y-66136000D02*
X93866000Y-63594000D01*
X137459000Y-109691000D02*
X138761000Y-110993000D01*
X129095000Y-81935000D02*
X132617000Y-81935000D01*
X129095000Y-66135000D02*
X132617000Y-66135000D01*
X86495000Y-50335000D02*
X90017000Y-50335000D01*
X136720000Y-141292000D02*
X137466000Y-141292000D01*
X136466000Y-142594000D02*
X138768000Y-142594000D01*
X86502000Y-81936000D02*
X90024000Y-81936000D01*
X90024000Y-129336000D02*
X91324000Y-129336000D01*
X78653000Y-111264000D02*
X84230000Y-111264000D01*
X126823000Y-111263000D02*
X129095000Y-113535000D01*
X90031000Y-145137000D02*
X91331000Y-145137000D01*
X121246000Y-63863000D02*
X126823000Y-63863000D01*
X133917000Y-66135000D02*
X136459000Y-63593000D01*
X133910000Y-50334000D02*
X136452000Y-47792000D01*
X90017000Y-50335000D02*
X91317000Y-50335000D01*
X91324000Y-113536000D02*
X93866000Y-110994000D01*
X91331000Y-145137000D02*
X93873000Y-142595000D01*
X137459000Y-62291000D02*
X138761000Y-63593000D01*
X78653000Y-127064000D02*
X84230000Y-127064000D01*
X136459000Y-110993000D02*
X138761000Y-110993000D01*
X136706000Y-46490000D02*
X137452000Y-46490000D01*
X132617000Y-81935000D02*
X133917000Y-81935000D01*
X136459000Y-126793000D02*
X138761000Y-126793000D01*
X133917000Y-81935000D02*
X136459000Y-79393000D01*
X137466000Y-141292000D02*
X138768000Y-142594000D01*
X94120000Y-125492000D02*
X94866000Y-125492000D01*
X94113000Y-46491000D02*
X94859000Y-46491000D01*
X78653000Y-63864000D02*
X84230000Y-63864000D01*
X91324000Y-81936000D02*
X93866000Y-79394000D01*
X136452000Y-47792000D02*
X138754000Y-47792000D01*
X93859000Y-95193000D02*
X96161000Y-95193000D01*
X126823000Y-63863000D02*
X129095000Y-66135000D01*
X132617000Y-113535000D02*
X133917000Y-113535000D01*
X91324000Y-129336000D02*
X93866000Y-126794000D01*
X129095000Y-113535000D02*
X132617000Y-113535000D01*
X93859000Y-47793000D02*
X96161000Y-47793000D01*
X121246000Y-127063000D02*
X126823000Y-127063000D01*
X90024000Y-113536000D02*
X91324000Y-113536000D01*
X93866000Y-63594000D02*
X96168000Y-63594000D01*
X94127000Y-141293000D02*
X94873000Y-141293000D01*
X93866000Y-126794000D02*
X96168000Y-126794000D01*
X129095000Y-129335000D02*
X132617000Y-129335000D01*
X94866000Y-109692000D02*
X96168000Y-110994000D01*
X137452000Y-46490000D02*
X138754000Y-47792000D01*
X86509000Y-145137000D02*
X90031000Y-145137000D01*
X93873000Y-142595000D02*
X96175000Y-142595000D01*
X126816000Y-48062000D02*
X129088000Y-50334000D01*
X78653000Y-79664000D02*
X84230000Y-79664000D01*
X93866000Y-79394000D02*
X96168000Y-79394000D01*
X133917000Y-113535000D02*
X136459000Y-110993000D01*
X78660000Y-142865000D02*
X84237000Y-142865000D01*
X121253000Y-142864000D02*
X126830000Y-142864000D01*
X94866000Y-62292000D02*
X96168000Y-63594000D01*
X121246000Y-111263000D02*
X126823000Y-111263000D01*
X126823000Y-79663000D02*
X129095000Y-81935000D01*
X136713000Y-109691000D02*
X137459000Y-109691000D01*
X78646000Y-48063000D02*
X84223000Y-48063000D01*
X129088000Y-50334000D02*
X132610000Y-50334000D01*
X133910000Y-97734000D02*
X136452000Y-95192000D01*
X84230000Y-63864000D02*
X86502000Y-66136000D01*
X136452000Y-95192000D02*
X138754000Y-95192000D01*
X86495000Y-97735000D02*
X90017000Y-97735000D01*
X136713000Y-78091000D02*
X137459000Y-78091000D01*
X133924000Y-145136000D02*
X136466000Y-142594000D01*
X132610000Y-50334000D02*
X133910000Y-50334000D01*
X86502000Y-66136000D02*
X90024000Y-66136000D01*
X137452000Y-93890000D02*
X138754000Y-95192000D01*
X137459000Y-125491000D02*
X138761000Y-126793000D01*
X94866000Y-125492000D02*
X96168000Y-126794000D01*
X90024000Y-81936000D02*
X91324000Y-81936000D01*
X137459000Y-78091000D02*
X138761000Y-79393000D01*
X86502000Y-113536000D02*
X90024000Y-113536000D01*
X84223000Y-95463000D02*
X86495000Y-97735000D01*
X94873000Y-141293000D02*
X96175000Y-142595000D01*
X136706000Y-93890000D02*
X137452000Y-93890000D01*
X133917000Y-129335000D02*
X136459000Y-126793000D01*
X94113000Y-93891000D02*
X94859000Y-93891000D01*
X84223000Y-48063000D02*
X86495000Y-50335000D01*
X136459000Y-79393000D02*
X138761000Y-79393000D01*
%TO.N,Net-(D2-K)*%
X86754000Y-130604000D02*
X93358000Y-130604000D01*
X136205000Y-129333000D02*
X136459000Y-129333000D01*
X93866000Y-129334000D02*
X94120000Y-129080000D01*
X93873000Y-145135000D02*
X94127000Y-144881000D01*
X93351000Y-51603000D02*
X93605000Y-51349000D01*
X135951000Y-83203000D02*
X136205000Y-82949000D01*
X93358000Y-83204000D02*
X93612000Y-82950000D01*
X93619000Y-146151000D02*
X93619000Y-145135000D01*
X136713000Y-113279000D02*
X138777000Y-113279000D01*
X136459000Y-113533000D02*
X136713000Y-113279000D01*
X78653000Y-113264000D02*
X85214000Y-113264000D01*
X136713000Y-65879000D02*
X138777000Y-65879000D01*
X85214000Y-81664000D02*
X86754000Y-83204000D01*
X136205000Y-82949000D02*
X136205000Y-81933000D01*
X136720000Y-144880000D02*
X138784000Y-144880000D01*
X136205000Y-114549000D02*
X136205000Y-113533000D01*
X127807000Y-81663000D02*
X129347000Y-83203000D01*
X93365000Y-146405000D02*
X93619000Y-146151000D01*
X93351000Y-99003000D02*
X93605000Y-98749000D01*
X93859000Y-50333000D02*
X94113000Y-50079000D01*
X136459000Y-129333000D02*
X136713000Y-129079000D01*
X78646000Y-97463000D02*
X85207000Y-97463000D01*
X93612000Y-82950000D02*
X93612000Y-81934000D01*
X135951000Y-114803000D02*
X136205000Y-114549000D01*
X85214000Y-113264000D02*
X86754000Y-114804000D01*
X136459000Y-81933000D02*
X136713000Y-81679000D01*
X136205000Y-130349000D02*
X136205000Y-129333000D01*
X121246000Y-65863000D02*
X127807000Y-65863000D01*
X136713000Y-81679000D02*
X138777000Y-81679000D01*
X93358000Y-114804000D02*
X93612000Y-114550000D01*
X121246000Y-129063000D02*
X127807000Y-129063000D01*
X94113000Y-97479000D02*
X96177000Y-97479000D01*
X93605000Y-51349000D02*
X93605000Y-50333000D01*
X136466000Y-145134000D02*
X136720000Y-144880000D01*
X136459000Y-66133000D02*
X136713000Y-65879000D01*
X136198000Y-51348000D02*
X136198000Y-50332000D01*
X127807000Y-65863000D02*
X129347000Y-67403000D01*
X93605000Y-98749000D02*
X93605000Y-97733000D01*
X93612000Y-129334000D02*
X93866000Y-129334000D01*
X86754000Y-114804000D02*
X93358000Y-114804000D01*
X93866000Y-66134000D02*
X94120000Y-65880000D01*
X129340000Y-99002000D02*
X135944000Y-99002000D01*
X93612000Y-66134000D02*
X93866000Y-66134000D01*
X93612000Y-113534000D02*
X93866000Y-113534000D01*
X136212000Y-145134000D02*
X136466000Y-145134000D01*
X136713000Y-129079000D02*
X138777000Y-129079000D01*
X86754000Y-67404000D02*
X93358000Y-67404000D01*
X127800000Y-97462000D02*
X129340000Y-99002000D01*
X121253000Y-144864000D02*
X127814000Y-144864000D01*
X94120000Y-65880000D02*
X96184000Y-65880000D01*
X93358000Y-67404000D02*
X93612000Y-67150000D01*
X85207000Y-97463000D02*
X86747000Y-99003000D01*
X129347000Y-83203000D02*
X135951000Y-83203000D01*
X93612000Y-130350000D02*
X93612000Y-129334000D01*
X85207000Y-50063000D02*
X86747000Y-51603000D01*
X121246000Y-81663000D02*
X127807000Y-81663000D01*
X121239000Y-97462000D02*
X127800000Y-97462000D01*
X94120000Y-81680000D02*
X96184000Y-81680000D01*
X78653000Y-129064000D02*
X85214000Y-129064000D01*
X93612000Y-67150000D02*
X93612000Y-66134000D01*
X78653000Y-65864000D02*
X85214000Y-65864000D01*
X94127000Y-144881000D02*
X96191000Y-144881000D01*
X136198000Y-98748000D02*
X136198000Y-97732000D01*
X93612000Y-81934000D02*
X93866000Y-81934000D01*
X136452000Y-50332000D02*
X136706000Y-50078000D01*
X129347000Y-130603000D02*
X135951000Y-130603000D01*
X93866000Y-81934000D02*
X94120000Y-81680000D01*
X129347000Y-67403000D02*
X135951000Y-67403000D01*
X136212000Y-146150000D02*
X136212000Y-145134000D01*
X94113000Y-50079000D02*
X96177000Y-50079000D01*
X93605000Y-50333000D02*
X93859000Y-50333000D01*
X136198000Y-50332000D02*
X136452000Y-50332000D01*
X129354000Y-146404000D02*
X135958000Y-146404000D01*
X121239000Y-50062000D02*
X127800000Y-50062000D01*
X86747000Y-51603000D02*
X93351000Y-51603000D01*
X127800000Y-50062000D02*
X129340000Y-51602000D01*
X135958000Y-146404000D02*
X136212000Y-146150000D01*
X93605000Y-97733000D02*
X93859000Y-97733000D01*
X136452000Y-97732000D02*
X136706000Y-97478000D01*
X135944000Y-99002000D02*
X136198000Y-98748000D01*
X78653000Y-81664000D02*
X85214000Y-81664000D01*
X85214000Y-129064000D02*
X86754000Y-130604000D01*
X78660000Y-144865000D02*
X85221000Y-144865000D01*
X127814000Y-144864000D02*
X129354000Y-146404000D01*
X136205000Y-66133000D02*
X136459000Y-66133000D01*
X135944000Y-51602000D02*
X136198000Y-51348000D01*
X93612000Y-114550000D02*
X93612000Y-113534000D01*
X93866000Y-113534000D02*
X94120000Y-113280000D01*
X136198000Y-97732000D02*
X136452000Y-97732000D01*
X94120000Y-113280000D02*
X96184000Y-113280000D01*
X94120000Y-129080000D02*
X96184000Y-129080000D01*
X85221000Y-144865000D02*
X86761000Y-146405000D01*
X129347000Y-114803000D02*
X135951000Y-114803000D01*
X85214000Y-65864000D02*
X86754000Y-67404000D01*
X86747000Y-99003000D02*
X93351000Y-99003000D01*
X136205000Y-113533000D02*
X136459000Y-113533000D01*
X135951000Y-130603000D02*
X136205000Y-130349000D01*
X93859000Y-97733000D02*
X94113000Y-97479000D01*
X127807000Y-129063000D02*
X129347000Y-130603000D01*
X127807000Y-113263000D02*
X129347000Y-114803000D01*
X93619000Y-145135000D02*
X93873000Y-145135000D01*
X121246000Y-113263000D02*
X127807000Y-113263000D01*
X135951000Y-67403000D02*
X136205000Y-67149000D01*
X136205000Y-81933000D02*
X136459000Y-81933000D01*
X86754000Y-83204000D02*
X93358000Y-83204000D01*
X129340000Y-51602000D02*
X135944000Y-51602000D01*
X78646000Y-50063000D02*
X85207000Y-50063000D01*
X136706000Y-50078000D02*
X138770000Y-50078000D01*
X136205000Y-67149000D02*
X136205000Y-66133000D01*
X136706000Y-97478000D02*
X138770000Y-97478000D01*
X93358000Y-130604000D02*
X93612000Y-130350000D01*
X86761000Y-146405000D02*
X93365000Y-146405000D01*
%TO.N,Net-(J2-Pin_3)*%
X149660000Y-95954000D02*
X146104000Y-92398000D01*
X149667000Y-127555000D02*
X146111000Y-123999000D01*
X149674000Y-143356000D02*
X146118000Y-139800000D01*
X151438000Y-95954000D02*
X149660000Y-95954000D01*
X146111000Y-123999000D02*
X146111000Y-123498000D01*
X107074000Y-127556000D02*
X103518000Y-124000000D01*
X149667000Y-80155000D02*
X146111000Y-76599000D01*
X151445000Y-80155000D02*
X149667000Y-80155000D01*
X149667000Y-64355000D02*
X146111000Y-60799000D01*
X107067000Y-95955000D02*
X103511000Y-92399000D01*
X149667000Y-111755000D02*
X146111000Y-108199000D01*
X103511000Y-92399000D02*
X103511000Y-91898000D01*
X103525000Y-139801000D02*
X103525000Y-139300000D01*
X108852000Y-64356000D02*
X107074000Y-64356000D01*
X103518000Y-124000000D02*
X103518000Y-123499000D01*
X107081000Y-143357000D02*
X103525000Y-139801000D01*
X108852000Y-80156000D02*
X107074000Y-80156000D01*
X146111000Y-108199000D02*
X146111000Y-107698000D01*
X103511000Y-44999000D02*
X103511000Y-44498000D01*
X108845000Y-48555000D02*
X107067000Y-48555000D01*
X107067000Y-48555000D02*
X103511000Y-44999000D01*
X146104000Y-92398000D02*
X146104000Y-91897000D01*
X151445000Y-111755000D02*
X149667000Y-111755000D01*
X103518000Y-76600000D02*
X103518000Y-76099000D01*
X151445000Y-127555000D02*
X149667000Y-127555000D01*
X108852000Y-111756000D02*
X107074000Y-111756000D01*
X151438000Y-48554000D02*
X149660000Y-48554000D01*
X107074000Y-64356000D02*
X103518000Y-60800000D01*
X151452000Y-143356000D02*
X149674000Y-143356000D01*
X146104000Y-44998000D02*
X146104000Y-44497000D01*
X108845000Y-95955000D02*
X107067000Y-95955000D01*
X146111000Y-60799000D02*
X146111000Y-60298000D01*
X103518000Y-108200000D02*
X103518000Y-107699000D01*
X107074000Y-80156000D02*
X103518000Y-76600000D01*
X146118000Y-139800000D02*
X146118000Y-139299000D01*
X151445000Y-64355000D02*
X149667000Y-64355000D01*
X108859000Y-143357000D02*
X107081000Y-143357000D01*
X103518000Y-60800000D02*
X103518000Y-60299000D01*
X107074000Y-111756000D02*
X103518000Y-108200000D01*
X108852000Y-127556000D02*
X107074000Y-127556000D01*
X149660000Y-48554000D02*
X146104000Y-44998000D01*
X146111000Y-76599000D02*
X146111000Y-76098000D01*
%TO.N,Net-(J2-Pin_2)*%
X154271000Y-126507000D02*
X152969000Y-127809000D01*
X110383000Y-144373000D02*
X110129000Y-144627000D01*
X154264000Y-47506000D02*
X152962000Y-48808000D01*
X111678000Y-110708000D02*
X110376000Y-112010000D01*
X149667000Y-81425000D02*
X151000000Y-81425000D01*
X107074000Y-81426000D02*
X108407000Y-81426000D01*
X152962000Y-96208000D02*
X152962000Y-96970000D01*
X149660000Y-97224000D02*
X149152000Y-96716000D01*
X110376000Y-112772000D02*
X110122000Y-113026000D01*
X149667000Y-113025000D02*
X151000000Y-113025000D01*
X110376000Y-128572000D02*
X110122000Y-128826000D01*
X108407000Y-128826000D02*
X110122000Y-128826000D01*
X107074000Y-113026000D02*
X106566000Y-112518000D01*
X151007000Y-144626000D02*
X152722000Y-144626000D01*
X152969000Y-127809000D02*
X152969000Y-128571000D01*
X111685000Y-140817000D02*
X111685000Y-142309000D01*
X107074000Y-113026000D02*
X108407000Y-113026000D01*
X154271000Y-61815000D02*
X154271000Y-63307000D01*
X107081000Y-144627000D02*
X106573000Y-144119000D01*
X154271000Y-79107000D02*
X152969000Y-80409000D01*
X111678000Y-79108000D02*
X110376000Y-80410000D01*
X149667000Y-128825000D02*
X151000000Y-128825000D01*
X110369000Y-48809000D02*
X110369000Y-49571000D01*
X152969000Y-81171000D02*
X152715000Y-81425000D01*
X150993000Y-49824000D02*
X152708000Y-49824000D01*
X111678000Y-77616000D02*
X111678000Y-79108000D01*
X154271000Y-109215000D02*
X154271000Y-110707000D01*
X149667000Y-113025000D02*
X149159000Y-112517000D01*
X154278000Y-140816000D02*
X154278000Y-142308000D01*
X151000000Y-128825000D02*
X152715000Y-128825000D01*
X152962000Y-96970000D02*
X152708000Y-97224000D01*
X152969000Y-112009000D02*
X152969000Y-112771000D01*
X107067000Y-49825000D02*
X108400000Y-49825000D01*
X107074000Y-65626000D02*
X108407000Y-65626000D01*
X111678000Y-125016000D02*
X111678000Y-126508000D01*
X111678000Y-63308000D02*
X110376000Y-64610000D01*
X108400000Y-97225000D02*
X110115000Y-97225000D01*
X111671000Y-47507000D02*
X110369000Y-48809000D01*
X152969000Y-80409000D02*
X152969000Y-81171000D01*
X149667000Y-65625000D02*
X149159000Y-65117000D01*
X152969000Y-65371000D02*
X152715000Y-65625000D01*
X149667000Y-81425000D02*
X149159000Y-80917000D01*
X111671000Y-94907000D02*
X110369000Y-96209000D01*
X154271000Y-63307000D02*
X152969000Y-64609000D01*
X149674000Y-144626000D02*
X151007000Y-144626000D01*
X110376000Y-127810000D02*
X110376000Y-128572000D01*
X149667000Y-65625000D02*
X151000000Y-65625000D01*
X107067000Y-97225000D02*
X106559000Y-96717000D01*
X150993000Y-97224000D02*
X152708000Y-97224000D01*
X152976000Y-144372000D02*
X152722000Y-144626000D01*
X107074000Y-128826000D02*
X106566000Y-128318000D01*
X152976000Y-143610000D02*
X152976000Y-144372000D01*
X111671000Y-46015000D02*
X111671000Y-47507000D01*
X151000000Y-81425000D02*
X152715000Y-81425000D01*
X107067000Y-97225000D02*
X108400000Y-97225000D01*
X110376000Y-80410000D02*
X110376000Y-81172000D01*
X111678000Y-109216000D02*
X111678000Y-110708000D01*
X149674000Y-144626000D02*
X149166000Y-144118000D01*
X154271000Y-77615000D02*
X154271000Y-79107000D01*
X111678000Y-61816000D02*
X111678000Y-63308000D01*
X107074000Y-81426000D02*
X106566000Y-80918000D01*
X110369000Y-96209000D02*
X110369000Y-96971000D01*
X107074000Y-128826000D02*
X108407000Y-128826000D01*
X110376000Y-112010000D02*
X110376000Y-112772000D01*
X154278000Y-142308000D02*
X152976000Y-143610000D01*
X154264000Y-94906000D02*
X152962000Y-96208000D01*
X154264000Y-93414000D02*
X154264000Y-94906000D01*
X108407000Y-81426000D02*
X110122000Y-81426000D01*
X152962000Y-48808000D02*
X152962000Y-49570000D01*
X154271000Y-110707000D02*
X152969000Y-112009000D01*
X152962000Y-49570000D02*
X152708000Y-49824000D01*
X149660000Y-49824000D02*
X149152000Y-49316000D01*
X152969000Y-112771000D02*
X152715000Y-113025000D01*
X110376000Y-64610000D02*
X110376000Y-65372000D01*
X111671000Y-93415000D02*
X111671000Y-94907000D01*
X152969000Y-64609000D02*
X152969000Y-65371000D01*
X149660000Y-97224000D02*
X150993000Y-97224000D01*
X108407000Y-65626000D02*
X110122000Y-65626000D01*
X108400000Y-49825000D02*
X110115000Y-49825000D01*
X110369000Y-96971000D02*
X110115000Y-97225000D01*
X110376000Y-65372000D02*
X110122000Y-65626000D01*
X110376000Y-81172000D02*
X110122000Y-81426000D01*
X151000000Y-65625000D02*
X152715000Y-65625000D01*
X107081000Y-144627000D02*
X108414000Y-144627000D01*
X107067000Y-49825000D02*
X106559000Y-49317000D01*
X107074000Y-65626000D02*
X106566000Y-65118000D01*
X108414000Y-144627000D02*
X110129000Y-144627000D01*
X151000000Y-113025000D02*
X152715000Y-113025000D01*
X111678000Y-126508000D02*
X110376000Y-127810000D01*
X154271000Y-125015000D02*
X154271000Y-126507000D01*
X149660000Y-49824000D02*
X150993000Y-49824000D01*
X154264000Y-46014000D02*
X154264000Y-47506000D01*
X110369000Y-49571000D02*
X110115000Y-49825000D01*
X111685000Y-142309000D02*
X110383000Y-143611000D01*
X110383000Y-143611000D02*
X110383000Y-144373000D01*
X152969000Y-128571000D02*
X152715000Y-128825000D01*
X108407000Y-113026000D02*
X110122000Y-113026000D01*
X149667000Y-128825000D02*
X149159000Y-128317000D01*
%TO.N,Net-(J1-Pin_2)*%
X143818000Y-48554000D02*
X147120000Y-48554000D01*
X140754000Y-47792000D02*
X141532000Y-47792000D01*
X98946000Y-126794000D02*
X99708000Y-127556000D01*
X101232000Y-64356000D02*
X104534000Y-64356000D01*
X98939000Y-95193000D02*
X99701000Y-95955000D01*
X98168000Y-126794000D02*
X98946000Y-126794000D01*
X141539000Y-126793000D02*
X142301000Y-127555000D01*
X98946000Y-110994000D02*
X99708000Y-111756000D01*
X143825000Y-127555000D02*
X147127000Y-127555000D01*
X101225000Y-48555000D02*
X104527000Y-48555000D01*
X101232000Y-80156000D02*
X104534000Y-80156000D01*
X98946000Y-79394000D02*
X99708000Y-80156000D01*
X140761000Y-126793000D02*
X141539000Y-126793000D01*
X143825000Y-80155000D02*
X147127000Y-80155000D01*
X98161000Y-47793000D02*
X98939000Y-47793000D01*
X140761000Y-63593000D02*
X141539000Y-63593000D01*
X142294000Y-48554000D02*
X143818000Y-48554000D01*
X98168000Y-79394000D02*
X98946000Y-79394000D01*
X143825000Y-64355000D02*
X147127000Y-64355000D01*
X143825000Y-111755000D02*
X147127000Y-111755000D01*
X99708000Y-64356000D02*
X101232000Y-64356000D01*
X141539000Y-110993000D02*
X142301000Y-111755000D01*
X140754000Y-95192000D02*
X141532000Y-95192000D01*
X101232000Y-111756000D02*
X104534000Y-111756000D01*
X143832000Y-143356000D02*
X147134000Y-143356000D01*
X101239000Y-143357000D02*
X104541000Y-143357000D01*
X141539000Y-63593000D02*
X142301000Y-64355000D01*
X142301000Y-80155000D02*
X143825000Y-80155000D01*
X98175000Y-142595000D02*
X98953000Y-142595000D01*
X98946000Y-63594000D02*
X99708000Y-64356000D01*
X142294000Y-95954000D02*
X143818000Y-95954000D01*
X142308000Y-143356000D02*
X143832000Y-143356000D01*
X98168000Y-110994000D02*
X98946000Y-110994000D01*
X142301000Y-64355000D02*
X143825000Y-64355000D01*
X142301000Y-111755000D02*
X143825000Y-111755000D01*
X99708000Y-80156000D02*
X101232000Y-80156000D01*
X98939000Y-47793000D02*
X99701000Y-48555000D01*
X101232000Y-127556000D02*
X104534000Y-127556000D01*
X99715000Y-143357000D02*
X101239000Y-143357000D01*
X99701000Y-95955000D02*
X101225000Y-95955000D01*
X99708000Y-111756000D02*
X101232000Y-111756000D01*
X101225000Y-95955000D02*
X104527000Y-95955000D01*
X140761000Y-110993000D02*
X141539000Y-110993000D01*
X141539000Y-79393000D02*
X142301000Y-80155000D01*
X99708000Y-127556000D02*
X101232000Y-127556000D01*
X142301000Y-127555000D02*
X143825000Y-127555000D01*
X140761000Y-79393000D02*
X141539000Y-79393000D01*
X140768000Y-142594000D02*
X141546000Y-142594000D01*
X98168000Y-63594000D02*
X98946000Y-63594000D01*
X141532000Y-47792000D02*
X142294000Y-48554000D01*
X98953000Y-142595000D02*
X99715000Y-143357000D01*
X141532000Y-95192000D02*
X142294000Y-95954000D01*
X99701000Y-48555000D02*
X101225000Y-48555000D01*
X98161000Y-95193000D02*
X98939000Y-95193000D01*
X141546000Y-142594000D02*
X142308000Y-143356000D01*
X143818000Y-95954000D02*
X147120000Y-95954000D01*
%TO.N,Net-(D3-A)*%
X113671000Y-48047000D02*
X112655000Y-49063000D01*
X113678000Y-111248000D02*
X112662000Y-112264000D01*
X113678000Y-77616000D02*
X113678000Y-79648000D01*
X156271000Y-77615000D02*
X156271000Y-79647000D01*
X156271000Y-111247000D02*
X155255000Y-112263000D01*
X113678000Y-109216000D02*
X113678000Y-111248000D01*
X113678000Y-127048000D02*
X112662000Y-128064000D01*
X113678000Y-125016000D02*
X113678000Y-127048000D01*
X156271000Y-109215000D02*
X156271000Y-111247000D01*
X113671000Y-93415000D02*
X113671000Y-95447000D01*
X156264000Y-48046000D02*
X155248000Y-49062000D01*
X156264000Y-93414000D02*
X156264000Y-95446000D01*
X113685000Y-140817000D02*
X113685000Y-142849000D01*
X156264000Y-46014000D02*
X156264000Y-48046000D01*
X156271000Y-63847000D02*
X155255000Y-64863000D01*
X113678000Y-79648000D02*
X112662000Y-80664000D01*
X113671000Y-46015000D02*
X113671000Y-48047000D01*
X156264000Y-95446000D02*
X155248000Y-96462000D01*
X156271000Y-61815000D02*
X156271000Y-63847000D01*
X156271000Y-125015000D02*
X156271000Y-127047000D01*
X156271000Y-127047000D02*
X155255000Y-128063000D01*
X113671000Y-95447000D02*
X112655000Y-96463000D01*
X113685000Y-142849000D02*
X112669000Y-143865000D01*
X156278000Y-140816000D02*
X156278000Y-142848000D01*
X113678000Y-61816000D02*
X113678000Y-63848000D01*
X156271000Y-79647000D02*
X155255000Y-80663000D01*
X156278000Y-142848000D02*
X155262000Y-143864000D01*
X113678000Y-63848000D02*
X112662000Y-64864000D01*
%TO.N,Net-(J2-Pin_1)*%
X108407000Y-114296000D02*
X109868000Y-114296000D01*
X151000000Y-114295000D02*
X152461000Y-114295000D01*
X108407000Y-66896000D02*
X109868000Y-66896000D01*
X108414000Y-145897000D02*
X109875000Y-145897000D01*
X151000000Y-82695000D02*
X152461000Y-82695000D01*
X108400000Y-98495000D02*
X109861000Y-98495000D01*
X108407000Y-82696000D02*
X109868000Y-82696000D01*
X108407000Y-130096000D02*
X109868000Y-130096000D01*
X150993000Y-98494000D02*
X152454000Y-98494000D01*
X151000000Y-66895000D02*
X152461000Y-66895000D01*
X151007000Y-145896000D02*
X152468000Y-145896000D01*
X151000000Y-130095000D02*
X152461000Y-130095000D01*
X108400000Y-51095000D02*
X109861000Y-51095000D01*
X150993000Y-51094000D02*
X152454000Y-51094000D01*
%TO.N,Net-(J1-Pin_3)*%
X98184000Y-113280000D02*
X99454000Y-113280000D01*
X99454000Y-65880000D02*
X99708000Y-65626000D01*
X142301000Y-128825000D02*
X143825000Y-128825000D01*
X98191000Y-144881000D02*
X99461000Y-144881000D01*
X148390000Y-49824000D02*
X148644000Y-50078000D01*
X98177000Y-97479000D02*
X99447000Y-97479000D01*
X105804000Y-113026000D02*
X106058000Y-113280000D01*
X101239000Y-144627000D02*
X105811000Y-144627000D01*
X143825000Y-128825000D02*
X148397000Y-128825000D01*
X143825000Y-113025000D02*
X148397000Y-113025000D01*
X105804000Y-65626000D02*
X106058000Y-65880000D01*
X142054000Y-144880000D02*
X142308000Y-144626000D01*
X143818000Y-49824000D02*
X148390000Y-49824000D01*
X143832000Y-144626000D02*
X148404000Y-144626000D01*
X140777000Y-81679000D02*
X142047000Y-81679000D01*
X143825000Y-81425000D02*
X148397000Y-81425000D01*
X143818000Y-97224000D02*
X148390000Y-97224000D01*
X98177000Y-50079000D02*
X99447000Y-50079000D01*
X142301000Y-113025000D02*
X143825000Y-113025000D01*
X101232000Y-128826000D02*
X105804000Y-128826000D01*
X101232000Y-81426000D02*
X105804000Y-81426000D01*
X142047000Y-81679000D02*
X142301000Y-81425000D01*
X105804000Y-81426000D02*
X106058000Y-81680000D01*
X105804000Y-128826000D02*
X106058000Y-129080000D01*
X98184000Y-129080000D02*
X99454000Y-129080000D01*
X98184000Y-81680000D02*
X99454000Y-81680000D01*
X142294000Y-97224000D02*
X143818000Y-97224000D01*
X142301000Y-81425000D02*
X143825000Y-81425000D01*
X140777000Y-65879000D02*
X142047000Y-65879000D01*
X148390000Y-97224000D02*
X148644000Y-97478000D01*
X142301000Y-65625000D02*
X143825000Y-65625000D01*
X142040000Y-97478000D02*
X142294000Y-97224000D01*
X142040000Y-50078000D02*
X142294000Y-49824000D01*
X140770000Y-50078000D02*
X142040000Y-50078000D01*
X105797000Y-49825000D02*
X106051000Y-50079000D01*
X99708000Y-81426000D02*
X101232000Y-81426000D01*
X99454000Y-81680000D02*
X99708000Y-81426000D01*
X105797000Y-97225000D02*
X106051000Y-97479000D01*
X101225000Y-49825000D02*
X105797000Y-49825000D01*
X148397000Y-128825000D02*
X148651000Y-129079000D01*
X99454000Y-129080000D02*
X99708000Y-128826000D01*
X142308000Y-144626000D02*
X143832000Y-144626000D01*
X140770000Y-97478000D02*
X142040000Y-97478000D01*
X99708000Y-113026000D02*
X101232000Y-113026000D01*
X148397000Y-65625000D02*
X148651000Y-65879000D01*
X148397000Y-113025000D02*
X148651000Y-113279000D01*
X99701000Y-97225000D02*
X101225000Y-97225000D01*
X99447000Y-50079000D02*
X99701000Y-49825000D01*
X148404000Y-144626000D02*
X148658000Y-144880000D01*
X142047000Y-129079000D02*
X142301000Y-128825000D01*
X142047000Y-113279000D02*
X142301000Y-113025000D01*
X105811000Y-144627000D02*
X106065000Y-144881000D01*
X99715000Y-144627000D02*
X101239000Y-144627000D01*
X98184000Y-65880000D02*
X99454000Y-65880000D01*
X99447000Y-97479000D02*
X99701000Y-97225000D01*
X99461000Y-144881000D02*
X99715000Y-144627000D01*
X99708000Y-128826000D02*
X101232000Y-128826000D01*
X99701000Y-49825000D02*
X101225000Y-49825000D01*
X140777000Y-113279000D02*
X142047000Y-113279000D01*
X99708000Y-65626000D02*
X101232000Y-65626000D01*
X143825000Y-65625000D02*
X148397000Y-65625000D01*
X142047000Y-65879000D02*
X142301000Y-65625000D01*
X99454000Y-113280000D02*
X99708000Y-113026000D01*
X101232000Y-113026000D02*
X105804000Y-113026000D01*
X142294000Y-49824000D02*
X143818000Y-49824000D01*
X101232000Y-65626000D02*
X105804000Y-65626000D01*
X140784000Y-144880000D02*
X142054000Y-144880000D01*
X148397000Y-81425000D02*
X148651000Y-81679000D01*
X101225000Y-97225000D02*
X105797000Y-97225000D01*
X140777000Y-129079000D02*
X142047000Y-129079000D01*
%TO.N,Net-(J1-Pin_1)*%
X143818000Y-47284000D02*
X145850000Y-47284000D01*
X101232000Y-110486000D02*
X103264000Y-110486000D01*
X103257000Y-94685000D02*
X103765000Y-95193000D01*
X101232000Y-78886000D02*
X103264000Y-78886000D01*
X103264000Y-78886000D02*
X103772000Y-79394000D01*
X143832000Y-142086000D02*
X145864000Y-142086000D01*
X101239000Y-142087000D02*
X103271000Y-142087000D01*
X101225000Y-47285000D02*
X103257000Y-47285000D01*
X145857000Y-63085000D02*
X146365000Y-63593000D01*
X103264000Y-63086000D02*
X103772000Y-63594000D01*
X143818000Y-94684000D02*
X145850000Y-94684000D01*
X101232000Y-63086000D02*
X103264000Y-63086000D01*
X145850000Y-94684000D02*
X146358000Y-95192000D01*
X103257000Y-47285000D02*
X103765000Y-47793000D01*
X101225000Y-94685000D02*
X103257000Y-94685000D01*
X145857000Y-78885000D02*
X146365000Y-79393000D01*
X145864000Y-142086000D02*
X146372000Y-142594000D01*
X143825000Y-126285000D02*
X145857000Y-126285000D01*
X143825000Y-110485000D02*
X145857000Y-110485000D01*
X145850000Y-47284000D02*
X146358000Y-47792000D01*
X103271000Y-142087000D02*
X103779000Y-142595000D01*
X143825000Y-63085000D02*
X145857000Y-63085000D01*
X143825000Y-78885000D02*
X145857000Y-78885000D01*
X103264000Y-126286000D02*
X103772000Y-126794000D01*
X101232000Y-126286000D02*
X103264000Y-126286000D01*
X103264000Y-110486000D02*
X103772000Y-110994000D01*
X145857000Y-126285000D02*
X146365000Y-126793000D01*
X145857000Y-110485000D02*
X146365000Y-110993000D01*
%TD*%
M02*
