M48
; DRILL file {KiCad 9.0.6} date 2026-08-18T07:12:09-0700
; FORMAT={-:-/ absolute / inch / decimal}
; #@! TF.CreationDate,2026-08-18T07:12:09-07:00
; #@! TF.GenerationSoftware,Kicad,Pcbnew,9.0.6
; #@! TF.FileFunction,Plated,1,2,PTH
FMAT,2
INCH
; #@! TA.AperFunction,Plated,PTH,ViaDrill
T1C0.0118
; #@! TA.AperFunction,Plated,PTH,ComponentDrill
T2C0.0354
; #@! TA.AperFunction,Plated,PTH,ComponentDrill
T3C0.0394
%
G90
G05
T1
X3.3652Y-2.0516
X3.3652Y-3.9178
X3.3655Y-2.6737
X3.3655Y-3.2957
X3.3655Y-4.5398
X3.3655Y-5.1619
X3.3658Y-5.784
X3.4483Y-1.9487
X3.4483Y-3.8149
X3.4485Y-2.5708
X3.4485Y-3.1929
X3.4485Y-4.437
X3.4485Y-5.059
X3.4488Y-5.6811
X3.527Y-2.1731
X3.527Y-4.0393
X3.5273Y-2.7952
X3.5273Y-3.4173
X3.5273Y-4.6614
X3.5273Y-5.2834
X3.5276Y-5.9055
X3.6252Y-1.9116
X3.6252Y-3.7778
X3.6255Y-2.5337
X3.6255Y-3.1557
X3.6255Y-4.3998
X3.6255Y-5.0219
X3.6258Y-5.644
X4.0852Y-1.8816
X4.0852Y-3.7478
X4.0855Y-2.5037
X4.0855Y-3.1257
X4.0855Y-4.3698
X4.0855Y-4.9919
X4.0858Y-5.614
X4.1152Y-1.9116
X4.1152Y-3.7778
X4.1155Y-2.5337
X4.1155Y-3.1557
X4.1155Y-4.3998
X4.1155Y-5.0219
X4.1158Y-5.644
X4.1752Y-1.9716
X4.1752Y-3.8378
X4.1755Y-2.5937
X4.1755Y-3.2157
X4.1755Y-4.4598
X4.1755Y-5.0819
X4.1758Y-5.704
X4.1952Y-1.9416
X4.1952Y-3.8078
X4.1955Y-2.5637
X4.1955Y-3.1857
X4.1955Y-4.4298
X4.1955Y-5.0519
X4.1958Y-5.674
X4.3252Y-2.0116
X4.3252Y-3.8778
X4.3255Y-2.6337
X4.3255Y-3.2557
X4.3255Y-4.4998
X4.3255Y-5.1219
X4.3258Y-5.744
X5.0421Y-2.0516
X5.0421Y-3.9177
X5.0424Y-2.6737
X5.0424Y-3.2957
X5.0424Y-4.5398
X5.0424Y-5.1619
X5.0427Y-5.7839
X5.1252Y-1.9487
X5.1252Y-3.8148
X5.1254Y-2.5708
X5.1254Y-3.1928
X5.1254Y-4.4369
X5.1254Y-5.059
X5.1257Y-5.6811
X5.2039Y-2.1731
X5.2039Y-4.0393
X5.2042Y-2.7952
X5.2042Y-3.4172
X5.2042Y-4.6613
X5.2042Y-5.2834
X5.2044Y-5.9055
X5.3021Y-1.9116
X5.3021Y-3.7777
X5.3024Y-2.5337
X5.3024Y-3.1557
X5.3024Y-4.3998
X5.3024Y-5.0219
X5.3027Y-5.6439
X5.7621Y-1.8816
X5.7621Y-3.7477
X5.7624Y-2.5037
X5.7624Y-3.1257
X5.7624Y-4.3698
X5.7624Y-4.9919
X5.7627Y-5.6139
X5.7921Y-1.9116
X5.7921Y-3.7777
X5.7924Y-2.5337
X5.7924Y-3.1557
X5.7924Y-4.3998
X5.7924Y-5.0219
X5.7927Y-5.6439
X5.8521Y-1.9716
X5.8521Y-3.8377
X5.8524Y-2.5937
X5.8524Y-3.2157
X5.8524Y-4.4598
X5.8524Y-5.0819
X5.8527Y-5.7039
X5.8721Y-1.9416
X5.8721Y-3.8077
X5.8724Y-2.5637
X5.8724Y-3.1857
X5.8724Y-4.4298
X5.8724Y-5.0519
X5.8727Y-5.6739
X6.0021Y-2.0116
X6.0021Y-3.8777
X6.0024Y-2.6337
X6.0024Y-3.2557
X6.0024Y-4.4998
X6.0024Y-5.1219
X6.0027Y-5.7439
T2
X4.4352Y-1.9316
X4.4352Y-2.0316
X4.4352Y-3.7978
X4.4352Y-3.8978
X4.4355Y-2.5537
X4.4355Y-2.6537
X4.4355Y-3.1757
X4.4355Y-3.2757
X4.4355Y-4.4198
X4.4355Y-4.5198
X4.4355Y-5.0419
X4.4355Y-5.1419
X4.4358Y-5.664
X4.4358Y-5.764
X6.1121Y-1.9316
X6.1121Y-2.0316
X6.1121Y-3.7977
X6.1121Y-3.8977
X6.1124Y-2.5537
X6.1124Y-2.6537
X6.1124Y-3.1757
X6.1124Y-3.2757
X6.1124Y-4.4198
X6.1124Y-4.5198
X6.1124Y-5.0419
X6.1124Y-5.1419
X6.1127Y-5.6639
X6.1127Y-5.7639
T3
X3.9752Y-1.7519
X3.9752Y-2.1259
X3.9752Y-3.618
X3.9752Y-3.992
X3.9755Y-2.374
X3.9755Y-2.748
X3.9755Y-2.996
X3.9755Y-3.37
X3.9755Y-4.2401
X3.9755Y-4.6141
X3.9755Y-4.8622
X3.9755Y-5.2362
X3.9758Y-5.4843
X3.9758Y-5.8583
X4.0752Y-1.7519
X4.0752Y-2.1259
X4.0752Y-3.618
X4.0752Y-3.992
X4.0755Y-2.374
X4.0755Y-2.748
X4.0755Y-2.996
X4.0755Y-3.37
X4.0755Y-4.2401
X4.0755Y-4.6141
X4.0755Y-4.8622
X4.0755Y-5.2362
X4.0758Y-5.4843
X4.0758Y-5.8583
X4.1752Y-1.7519
X4.1752Y-2.1259
X4.1752Y-3.618
X4.1752Y-3.992
X4.1755Y-2.374
X4.1755Y-2.748
X4.1755Y-2.996
X4.1755Y-3.37
X4.1755Y-4.2401
X4.1755Y-4.6141
X4.1755Y-4.8622
X4.1755Y-5.2362
X4.1758Y-5.4843
X4.1758Y-5.8583
X4.2752Y-1.7519
X4.2752Y-2.1259
X4.2752Y-3.618
X4.2752Y-3.992
X4.2755Y-2.374
X4.2755Y-2.748
X4.2755Y-2.996
X4.2755Y-3.37
X4.2755Y-4.2401
X4.2755Y-4.6141
X4.2755Y-4.8622
X4.2755Y-5.2362
X4.2758Y-5.4843
X4.2758Y-5.8583
X5.6521Y-1.7519
X5.6521Y-2.1259
X5.6521Y-3.618
X5.6521Y-3.992
X5.6524Y-2.3739
X5.6524Y-2.748
X5.6524Y-2.996
X5.6524Y-3.37
X5.6524Y-4.2401
X5.6524Y-4.6141
X5.6524Y-4.8621
X5.6524Y-5.2361
X5.6527Y-5.4842
X5.6527Y-5.8582
X5.7521Y-1.7519
X5.7521Y-2.1259
X5.7521Y-3.618
X5.7521Y-3.992
X5.7524Y-2.3739
X5.7524Y-2.748
X5.7524Y-2.996
X5.7524Y-3.37
X5.7524Y-4.2401
X5.7524Y-4.6141
X5.7524Y-4.8621
X5.7524Y-5.2361
X5.7527Y-5.4842
X5.7527Y-5.8582
X5.8521Y-1.7519
X5.8521Y-2.1259
X5.8521Y-3.618
X5.8521Y-3.992
X5.8524Y-2.3739
X5.8524Y-2.748
X5.8524Y-2.996
X5.8524Y-3.37
X5.8524Y-4.2401
X5.8524Y-4.6141
X5.8524Y-4.8621
X5.8524Y-5.2361
X5.8527Y-5.4842
X5.8527Y-5.8582
X5.9521Y-1.7519
X5.9521Y-2.1259
X5.9521Y-3.618
X5.9521Y-3.992
X5.9524Y-2.3739
X5.9524Y-2.748
X5.9524Y-2.996
X5.9524Y-3.37
X5.9524Y-4.2401
X5.9524Y-4.6141
X5.9524Y-4.8621
X5.9524Y-5.2361
X5.9527Y-5.4842
X5.9527Y-5.8582
M30
