%TF.GenerationSoftware,KiCad,Pcbnew,9.0.6*%
%TF.CreationDate,2026-08-18T07:10:22-07:00*%
%TF.ProjectId,Project 1_panel,50726f6a-6563-4742-9031-5f70616e656c,rev?*%
%TF.SameCoordinates,Original*%
%TF.FileFunction,Paste,Top*%
%TF.FilePolarity,Positive*%
%FSLAX46Y46*%
G04 Gerber Fmt 4.6, Leading zero omitted, Abs format (unit mm)*
G04 Created by KiCad (PCBNEW 9.0.6) date 2026-08-18 07:10:22*
%MOMM*%
%LPD*%
G01*
G04 APERTURE LIST*
G04 Aperture macros list*
%AMRoundRect*
0 Rectangle with rounded corners*
0 $1 Rounding radius*
0 $2 $3 $4 $5 $6 $7 $8 $9 X,Y pos of 4 corners*
0 Add a 4 corners polygon primitive as box body*
4,1,4,$2,$3,$4,$5,$6,$7,$8,$9,$2,$3,0*
0 Add four circle primitives for the rounded corners*
1,1,$1+$1,$2,$3*
1,1,$1+$1,$4,$5*
1,1,$1+$1,$6,$7*
1,1,$1+$1,$8,$9*
0 Add four rect primitives between the rounded corners*
20,1,$1+$1,$2,$3,$4,$5,0*
20,1,$1+$1,$4,$5,$6,$7,0*
20,1,$1+$1,$6,$7,$8,$9,0*
20,1,$1+$1,$8,$9,$2,$3,0*%
G04 Aperture macros list end*
%ADD10RoundRect,0.250000X-0.650000X0.412500X-0.650000X-0.412500X0.650000X-0.412500X0.650000X0.412500X0*%
%ADD11RoundRect,0.300000X-3.200000X-0.700000X3.200000X-0.700000X3.200000X0.700000X-3.200000X0.700000X0*%
%ADD12RoundRect,0.225000X-2.775000X-0.525000X2.775000X-0.525000X2.775000X0.525000X-2.775000X0.525000X0*%
%ADD13RoundRect,0.162500X-0.650000X-0.162500X0.650000X-0.162500X0.650000X0.162500X-0.650000X0.162500X0*%
%ADD14RoundRect,0.250000X-0.350000X-0.450000X0.350000X-0.450000X0.350000X0.450000X-0.350000X0.450000X0*%
%ADD15RoundRect,0.250000X0.350000X0.450000X-0.350000X0.450000X-0.350000X-0.450000X0.350000X-0.450000X0*%
%ADD16RoundRect,0.225000X-0.375000X0.225000X-0.375000X-0.225000X0.375000X-0.225000X0.375000X0.225000X0*%
%ADD17RoundRect,0.250000X-0.450000X0.350000X-0.450000X-0.350000X0.450000X-0.350000X0.450000X0.350000X0*%
G04 APERTURE END LIST*
D10*
%TO.C,C1*%
X132656000Y-139215000D03*
X132656000Y-142340000D03*
%TD*%
D11*
%TO.C,U2*%
X121246000Y-68613000D03*
D12*
X121246000Y-65863000D03*
X121246000Y-63863000D03*
D11*
X121246000Y-61113000D03*
%TD*%
D13*
%TO.C,U1*%
X101232000Y-63086000D03*
X101232000Y-64356000D03*
X101232000Y-65626000D03*
X101232000Y-66896000D03*
X108407000Y-66896000D03*
X108407000Y-65626000D03*
X108407000Y-64356000D03*
X108407000Y-63086000D03*
%TD*%
D14*
%TO.C,R3*%
X111678000Y-109216000D03*
X113678000Y-109216000D03*
%TD*%
D10*
%TO.C,C1*%
X132642000Y-44413000D03*
X132642000Y-47538000D03*
%TD*%
D14*
%TO.C,R3*%
X154278000Y-140816000D03*
X156278000Y-140816000D03*
%TD*%
D10*
%TO.C,C1*%
X90056000Y-76015000D03*
X90056000Y-79140000D03*
%TD*%
D14*
%TO.C,R3*%
X111671000Y-46015000D03*
X113671000Y-46015000D03*
%TD*%
D15*
%TO.C,R2*%
X140754000Y-95192000D03*
X138754000Y-95192000D03*
%TD*%
D11*
%TO.C,U2*%
X78646000Y-100213000D03*
D12*
X78646000Y-97463000D03*
X78646000Y-95463000D03*
D11*
X78646000Y-92713000D03*
%TD*%
D13*
%TO.C,U1*%
X101232000Y-110486000D03*
X101232000Y-111756000D03*
X101232000Y-113026000D03*
X101232000Y-114296000D03*
X108407000Y-114296000D03*
X108407000Y-113026000D03*
X108407000Y-111756000D03*
X108407000Y-110486000D03*
%TD*%
D15*
%TO.C,R2*%
X140761000Y-126793000D03*
X138761000Y-126793000D03*
%TD*%
D10*
%TO.C,C1*%
X132642000Y-91813000D03*
X132642000Y-94938000D03*
%TD*%
D15*
%TO.C,R2*%
X140761000Y-79393000D03*
X138761000Y-79393000D03*
%TD*%
D16*
%TO.C,D1*%
X132617000Y-113535000D03*
X132617000Y-116835000D03*
%TD*%
D14*
%TO.C,R3*%
X111685000Y-140817000D03*
X113685000Y-140817000D03*
%TD*%
D11*
%TO.C,U2*%
X121246000Y-131813000D03*
D12*
X121246000Y-129063000D03*
X121246000Y-127063000D03*
D11*
X121246000Y-124313000D03*
%TD*%
D14*
%TO.C,R3*%
X111678000Y-77616000D03*
X113678000Y-77616000D03*
%TD*%
D11*
%TO.C,U2*%
X121246000Y-84413000D03*
D12*
X121246000Y-81663000D03*
X121246000Y-79663000D03*
D11*
X121246000Y-76913000D03*
%TD*%
D16*
%TO.C,D2*%
X136205000Y-129333000D03*
X136205000Y-132633000D03*
%TD*%
%TO.C,D1*%
X132617000Y-129335000D03*
X132617000Y-132635000D03*
%TD*%
D11*
%TO.C,U2*%
X78660000Y-147615000D03*
D12*
X78660000Y-144865000D03*
X78660000Y-142865000D03*
D11*
X78660000Y-140115000D03*
%TD*%
D15*
%TO.C,R1*%
X98184000Y-65880000D03*
X96184000Y-65880000D03*
%TD*%
D11*
%TO.C,U2*%
X78646000Y-52813000D03*
D12*
X78646000Y-50063000D03*
X78646000Y-48063000D03*
D11*
X78646000Y-45313000D03*
%TD*%
D15*
%TO.C,R2*%
X140761000Y-110993000D03*
X138761000Y-110993000D03*
%TD*%
D16*
%TO.C,D2*%
X136198000Y-50332000D03*
X136198000Y-53632000D03*
%TD*%
%TO.C,D2*%
X93612000Y-113534000D03*
X93612000Y-116834000D03*
%TD*%
D11*
%TO.C,U2*%
X121246000Y-116013000D03*
D12*
X121246000Y-113263000D03*
X121246000Y-111263000D03*
D11*
X121246000Y-108513000D03*
%TD*%
%TO.C,U2*%
X78653000Y-131814000D03*
D12*
X78653000Y-129064000D03*
X78653000Y-127064000D03*
D11*
X78653000Y-124314000D03*
%TD*%
D17*
%TO.C,R4*%
X94120000Y-60199000D03*
X94120000Y-62199000D03*
%TD*%
D11*
%TO.C,U2*%
X121239000Y-100212000D03*
D12*
X121239000Y-97462000D03*
X121239000Y-95462000D03*
D11*
X121239000Y-92712000D03*
%TD*%
D15*
%TO.C,R1*%
X98177000Y-50079000D03*
X96177000Y-50079000D03*
%TD*%
D14*
%TO.C,R3*%
X154271000Y-61815000D03*
X156271000Y-61815000D03*
%TD*%
D11*
%TO.C,U2*%
X121253000Y-147614000D03*
D12*
X121253000Y-144864000D03*
X121253000Y-142864000D03*
D11*
X121253000Y-140114000D03*
%TD*%
D15*
%TO.C,R2*%
X98168000Y-126794000D03*
X96168000Y-126794000D03*
%TD*%
D14*
%TO.C,R3*%
X154271000Y-125015000D03*
X156271000Y-125015000D03*
%TD*%
D11*
%TO.C,U2*%
X121239000Y-52812000D03*
D12*
X121239000Y-50062000D03*
X121239000Y-48062000D03*
D11*
X121239000Y-45312000D03*
%TD*%
D14*
%TO.C,R3*%
X154264000Y-93414000D03*
X156264000Y-93414000D03*
%TD*%
D11*
%TO.C,U2*%
X78653000Y-84414000D03*
D12*
X78653000Y-81664000D03*
X78653000Y-79664000D03*
D11*
X78653000Y-76914000D03*
%TD*%
D17*
%TO.C,R4*%
X136706000Y-44397000D03*
X136706000Y-46397000D03*
%TD*%
D10*
%TO.C,C1*%
X132649000Y-123414000D03*
X132649000Y-126539000D03*
%TD*%
%TO.C,C1*%
X90049000Y-44414000D03*
X90049000Y-47539000D03*
%TD*%
%TO.C,C1*%
X90056000Y-107615000D03*
X90056000Y-110740000D03*
%TD*%
D15*
%TO.C,R2*%
X98168000Y-110994000D03*
X96168000Y-110994000D03*
%TD*%
D13*
%TO.C,U1*%
X143825000Y-110485000D03*
X143825000Y-111755000D03*
X143825000Y-113025000D03*
X143825000Y-114295000D03*
X151000000Y-114295000D03*
X151000000Y-113025000D03*
X151000000Y-111755000D03*
X151000000Y-110485000D03*
%TD*%
D14*
%TO.C,R3*%
X111678000Y-61816000D03*
X113678000Y-61816000D03*
%TD*%
D16*
%TO.C,D1*%
X132624000Y-145136000D03*
X132624000Y-148436000D03*
%TD*%
%TO.C,D1*%
X90024000Y-66136000D03*
X90024000Y-69436000D03*
%TD*%
D15*
%TO.C,R1*%
X98184000Y-129080000D03*
X96184000Y-129080000D03*
%TD*%
D10*
%TO.C,C1*%
X90049000Y-91814000D03*
X90049000Y-94939000D03*
%TD*%
D16*
%TO.C,D2*%
X93605000Y-97733000D03*
X93605000Y-101033000D03*
%TD*%
D17*
%TO.C,R4*%
X94127000Y-139200000D03*
X94127000Y-141200000D03*
%TD*%
D13*
%TO.C,U1*%
X143818000Y-94684000D03*
X143818000Y-95954000D03*
X143818000Y-97224000D03*
X143818000Y-98494000D03*
X150993000Y-98494000D03*
X150993000Y-97224000D03*
X150993000Y-95954000D03*
X150993000Y-94684000D03*
%TD*%
D17*
%TO.C,R4*%
X94113000Y-44398000D03*
X94113000Y-46398000D03*
%TD*%
D10*
%TO.C,C1*%
X132649000Y-107614000D03*
X132649000Y-110739000D03*
%TD*%
D15*
%TO.C,R1*%
X140777000Y-81679000D03*
X138777000Y-81679000D03*
%TD*%
D10*
%TO.C,C1*%
X90056000Y-123415000D03*
X90056000Y-126540000D03*
%TD*%
D15*
%TO.C,R1*%
X140770000Y-97478000D03*
X138770000Y-97478000D03*
%TD*%
D11*
%TO.C,U2*%
X78653000Y-68614000D03*
D12*
X78653000Y-65864000D03*
X78653000Y-63864000D03*
D11*
X78653000Y-61114000D03*
%TD*%
D10*
%TO.C,C1*%
X90056000Y-60215000D03*
X90056000Y-63340000D03*
%TD*%
D15*
%TO.C,R1*%
X98177000Y-97479000D03*
X96177000Y-97479000D03*
%TD*%
D10*
%TO.C,C1*%
X90063000Y-139216000D03*
X90063000Y-142341000D03*
%TD*%
D17*
%TO.C,R4*%
X94120000Y-107599000D03*
X94120000Y-109599000D03*
%TD*%
D15*
%TO.C,R1*%
X140777000Y-113279000D03*
X138777000Y-113279000D03*
%TD*%
%TO.C,R1*%
X98191000Y-144881000D03*
X96191000Y-144881000D03*
%TD*%
%TO.C,R2*%
X98168000Y-63594000D03*
X96168000Y-63594000D03*
%TD*%
%TO.C,R2*%
X140768000Y-142594000D03*
X138768000Y-142594000D03*
%TD*%
%TO.C,R1*%
X98184000Y-113280000D03*
X96184000Y-113280000D03*
%TD*%
D16*
%TO.C,D1*%
X132617000Y-66135000D03*
X132617000Y-69435000D03*
%TD*%
D13*
%TO.C,U1*%
X143825000Y-78885000D03*
X143825000Y-80155000D03*
X143825000Y-81425000D03*
X143825000Y-82695000D03*
X151000000Y-82695000D03*
X151000000Y-81425000D03*
X151000000Y-80155000D03*
X151000000Y-78885000D03*
%TD*%
D16*
%TO.C,D2*%
X93605000Y-50333000D03*
X93605000Y-53633000D03*
%TD*%
%TO.C,D1*%
X90031000Y-145137000D03*
X90031000Y-148437000D03*
%TD*%
D15*
%TO.C,R1*%
X140784000Y-144880000D03*
X138784000Y-144880000D03*
%TD*%
D16*
%TO.C,D2*%
X93612000Y-81934000D03*
X93612000Y-85234000D03*
%TD*%
%TO.C,D2*%
X93612000Y-129334000D03*
X93612000Y-132634000D03*
%TD*%
D13*
%TO.C,U1*%
X101225000Y-47285000D03*
X101225000Y-48555000D03*
X101225000Y-49825000D03*
X101225000Y-51095000D03*
X108400000Y-51095000D03*
X108400000Y-49825000D03*
X108400000Y-48555000D03*
X108400000Y-47285000D03*
%TD*%
D17*
%TO.C,R4*%
X136720000Y-139199000D03*
X136720000Y-141199000D03*
%TD*%
%TO.C,R4*%
X94113000Y-91798000D03*
X94113000Y-93798000D03*
%TD*%
D11*
%TO.C,U2*%
X78653000Y-116014000D03*
D12*
X78653000Y-113264000D03*
X78653000Y-111264000D03*
D11*
X78653000Y-108514000D03*
%TD*%
D13*
%TO.C,U1*%
X101225000Y-94685000D03*
X101225000Y-95955000D03*
X101225000Y-97225000D03*
X101225000Y-98495000D03*
X108400000Y-98495000D03*
X108400000Y-97225000D03*
X108400000Y-95955000D03*
X108400000Y-94685000D03*
%TD*%
D14*
%TO.C,R3*%
X154271000Y-77615000D03*
X156271000Y-77615000D03*
%TD*%
D16*
%TO.C,D2*%
X136198000Y-97732000D03*
X136198000Y-101032000D03*
%TD*%
D17*
%TO.C,R4*%
X136706000Y-91797000D03*
X136706000Y-93797000D03*
%TD*%
D16*
%TO.C,D2*%
X136205000Y-66133000D03*
X136205000Y-69433000D03*
%TD*%
D17*
%TO.C,R4*%
X136713000Y-107598000D03*
X136713000Y-109598000D03*
%TD*%
D15*
%TO.C,R2*%
X98161000Y-95193000D03*
X96161000Y-95193000D03*
%TD*%
D16*
%TO.C,D2*%
X136212000Y-145134000D03*
X136212000Y-148434000D03*
%TD*%
D17*
%TO.C,R4*%
X136713000Y-60198000D03*
X136713000Y-62198000D03*
%TD*%
D15*
%TO.C,R2*%
X98175000Y-142595000D03*
X96175000Y-142595000D03*
%TD*%
%TO.C,R2*%
X98161000Y-47793000D03*
X96161000Y-47793000D03*
%TD*%
D14*
%TO.C,R3*%
X154264000Y-46014000D03*
X156264000Y-46014000D03*
%TD*%
D15*
%TO.C,R1*%
X140777000Y-129079000D03*
X138777000Y-129079000D03*
%TD*%
D16*
%TO.C,D1*%
X90024000Y-113536000D03*
X90024000Y-116836000D03*
%TD*%
D10*
%TO.C,C1*%
X132649000Y-60214000D03*
X132649000Y-63339000D03*
%TD*%
D16*
%TO.C,D1*%
X132610000Y-97734000D03*
X132610000Y-101034000D03*
%TD*%
%TO.C,D1*%
X90017000Y-50335000D03*
X90017000Y-53635000D03*
%TD*%
D15*
%TO.C,R1*%
X140770000Y-50078000D03*
X138770000Y-50078000D03*
%TD*%
D10*
%TO.C,C1*%
X132649000Y-76014000D03*
X132649000Y-79139000D03*
%TD*%
D13*
%TO.C,U1*%
X101232000Y-126286000D03*
X101232000Y-127556000D03*
X101232000Y-128826000D03*
X101232000Y-130096000D03*
X108407000Y-130096000D03*
X108407000Y-128826000D03*
X108407000Y-127556000D03*
X108407000Y-126286000D03*
%TD*%
D16*
%TO.C,D2*%
X93619000Y-145135000D03*
X93619000Y-148435000D03*
%TD*%
D14*
%TO.C,R3*%
X154271000Y-109215000D03*
X156271000Y-109215000D03*
%TD*%
%TO.C,R3*%
X111671000Y-93415000D03*
X113671000Y-93415000D03*
%TD*%
D16*
%TO.C,D1*%
X90017000Y-97735000D03*
X90017000Y-101035000D03*
%TD*%
D13*
%TO.C,U1*%
X143832000Y-142086000D03*
X143832000Y-143356000D03*
X143832000Y-144626000D03*
X143832000Y-145896000D03*
X151007000Y-145896000D03*
X151007000Y-144626000D03*
X151007000Y-143356000D03*
X151007000Y-142086000D03*
%TD*%
%TO.C,U1*%
X143818000Y-47284000D03*
X143818000Y-48554000D03*
X143818000Y-49824000D03*
X143818000Y-51094000D03*
X150993000Y-51094000D03*
X150993000Y-49824000D03*
X150993000Y-48554000D03*
X150993000Y-47284000D03*
%TD*%
D17*
%TO.C,R4*%
X94120000Y-123399000D03*
X94120000Y-125399000D03*
%TD*%
D15*
%TO.C,R1*%
X140777000Y-65879000D03*
X138777000Y-65879000D03*
%TD*%
D13*
%TO.C,U1*%
X101239000Y-142087000D03*
X101239000Y-143357000D03*
X101239000Y-144627000D03*
X101239000Y-145897000D03*
X108414000Y-145897000D03*
X108414000Y-144627000D03*
X108414000Y-143357000D03*
X108414000Y-142087000D03*
%TD*%
D16*
%TO.C,D1*%
X132617000Y-81935000D03*
X132617000Y-85235000D03*
%TD*%
%TO.C,D1*%
X90024000Y-81936000D03*
X90024000Y-85236000D03*
%TD*%
%TO.C,D2*%
X136205000Y-81933000D03*
X136205000Y-85233000D03*
%TD*%
%TO.C,D1*%
X132610000Y-50334000D03*
X132610000Y-53634000D03*
%TD*%
D15*
%TO.C,R1*%
X98184000Y-81680000D03*
X96184000Y-81680000D03*
%TD*%
D13*
%TO.C,U1*%
X143825000Y-126285000D03*
X143825000Y-127555000D03*
X143825000Y-128825000D03*
X143825000Y-130095000D03*
X151000000Y-130095000D03*
X151000000Y-128825000D03*
X151000000Y-127555000D03*
X151000000Y-126285000D03*
%TD*%
D16*
%TO.C,D2*%
X93612000Y-66134000D03*
X93612000Y-69434000D03*
%TD*%
%TO.C,D2*%
X136205000Y-113533000D03*
X136205000Y-116833000D03*
%TD*%
%TO.C,D1*%
X90024000Y-129336000D03*
X90024000Y-132636000D03*
%TD*%
D15*
%TO.C,R2*%
X98168000Y-79394000D03*
X96168000Y-79394000D03*
%TD*%
D14*
%TO.C,R3*%
X111678000Y-125016000D03*
X113678000Y-125016000D03*
%TD*%
D15*
%TO.C,R2*%
X140761000Y-63593000D03*
X138761000Y-63593000D03*
%TD*%
%TO.C,R2*%
X140754000Y-47792000D03*
X138754000Y-47792000D03*
%TD*%
D13*
%TO.C,U1*%
X143825000Y-63085000D03*
X143825000Y-64355000D03*
X143825000Y-65625000D03*
X143825000Y-66895000D03*
X151000000Y-66895000D03*
X151000000Y-65625000D03*
X151000000Y-64355000D03*
X151000000Y-63085000D03*
%TD*%
D17*
%TO.C,R4*%
X136713000Y-75998000D03*
X136713000Y-77998000D03*
%TD*%
%TO.C,R4*%
X136713000Y-123398000D03*
X136713000Y-125398000D03*
%TD*%
%TO.C,R4*%
X94120000Y-75999000D03*
X94120000Y-77999000D03*
%TD*%
D13*
%TO.C,U1*%
X101232000Y-78886000D03*
X101232000Y-80156000D03*
X101232000Y-81426000D03*
X101232000Y-82696000D03*
X108407000Y-82696000D03*
X108407000Y-81426000D03*
X108407000Y-80156000D03*
X108407000Y-78886000D03*
%TD*%
M02*
