%TF.GenerationSoftware,KiCad,Pcbnew,9.0.6*%
%TF.CreationDate,2026-08-18T07:10:22-07:00*%
%TF.ProjectId,Project 1_panel,50726f6a-6563-4742-9031-5f70616e656c,rev?*%
%TF.SameCoordinates,Original*%
%TF.FileFunction,Copper,L2,Bot*%
%TF.FilePolarity,Positive*%
%FSLAX46Y46*%
G04 Gerber Fmt 4.6, Leading zero omitted, Abs format (unit mm)*
G04 Created by KiCad (PCBNEW 9.0.6) date 2026-08-18 07:10:22*
%MOMM*%
%LPD*%
G01*
G04 APERTURE LIST*
%TA.AperFunction,ComponentPad*%
%ADD10R,1.700000X1.700000*%
%TD*%
%TA.AperFunction,ComponentPad*%
%ADD11C,1.700000*%
%TD*%
%TA.AperFunction,ComponentPad*%
%ADD12R,1.800000X1.800000*%
%TD*%
%TA.AperFunction,ComponentPad*%
%ADD13C,1.800000*%
%TD*%
%TA.AperFunction,ViaPad*%
%ADD14C,0.600000*%
%TD*%
%TA.AperFunction,Conductor*%
%ADD15C,0.500000*%
%TD*%
%TA.AperFunction,Conductor*%
%ADD16C,0.200000*%
%TD*%
G04 APERTURE END LIST*
D10*
%TO.P,J1,1,Pin_1*%
%TO.N,Net-(J1-Pin_1)*%
X143564000Y-53997000D03*
D11*
%TO.P,J1,2,Pin_2*%
%TO.N,Net-(J1-Pin_2)*%
X146104000Y-53997000D03*
%TO.P,J1,3,Pin_3*%
%TO.N,Net-(J1-Pin_3)*%
X148644000Y-53997000D03*
%TO.P,J1,4,Pin_4*%
%TO.N,GND*%
X151184000Y-53997000D03*
%TD*%
D10*
%TO.P,J1,1,Pin_1*%
%TO.N,Net-(J1-Pin_1)*%
X143571000Y-69798000D03*
D11*
%TO.P,J1,2,Pin_2*%
%TO.N,Net-(J1-Pin_2)*%
X146111000Y-69798000D03*
%TO.P,J1,3,Pin_3*%
%TO.N,Net-(J1-Pin_3)*%
X148651000Y-69798000D03*
%TO.P,J1,4,Pin_4*%
%TO.N,GND*%
X151191000Y-69798000D03*
%TD*%
D10*
%TO.P,J1,1,Pin_1*%
%TO.N,Net-(J1-Pin_1)*%
X143571000Y-132998000D03*
D11*
%TO.P,J1,2,Pin_2*%
%TO.N,Net-(J1-Pin_2)*%
X146111000Y-132998000D03*
%TO.P,J1,3,Pin_3*%
%TO.N,Net-(J1-Pin_3)*%
X148651000Y-132998000D03*
%TO.P,J1,4,Pin_4*%
%TO.N,GND*%
X151191000Y-132998000D03*
%TD*%
D12*
%TO.P,D3,1,K*%
%TO.N,GND*%
X155255000Y-130603000D03*
D13*
%TO.P,D3,2,A*%
%TO.N,Net-(D3-A)*%
X155255000Y-128063000D03*
%TD*%
D12*
%TO.P,D3,1,K*%
%TO.N,GND*%
X155248000Y-99002000D03*
D13*
%TO.P,D3,2,A*%
%TO.N,Net-(D3-A)*%
X155248000Y-96462000D03*
%TD*%
D10*
%TO.P,J2,1,Pin_1*%
%TO.N,Net-(J2-Pin_1)*%
X108598000Y-107699000D03*
D11*
%TO.P,J2,2,Pin_2*%
%TO.N,Net-(J2-Pin_2)*%
X106058000Y-107699000D03*
%TO.P,J2,3,Pin_3*%
%TO.N,Net-(J2-Pin_3)*%
X103518000Y-107699000D03*
%TO.P,J2,4,Pin_4*%
%TO.N,+5V*%
X100978000Y-107699000D03*
%TD*%
D10*
%TO.P,J2,1,Pin_1*%
%TO.N,Net-(J2-Pin_1)*%
X151198000Y-139299000D03*
D11*
%TO.P,J2,2,Pin_2*%
%TO.N,Net-(J2-Pin_2)*%
X148658000Y-139299000D03*
%TO.P,J2,3,Pin_3*%
%TO.N,Net-(J2-Pin_3)*%
X146118000Y-139299000D03*
%TO.P,J2,4,Pin_4*%
%TO.N,+5V*%
X143578000Y-139299000D03*
%TD*%
D10*
%TO.P,J2,1,Pin_1*%
%TO.N,Net-(J2-Pin_1)*%
X151184000Y-44497000D03*
D11*
%TO.P,J2,2,Pin_2*%
%TO.N,Net-(J2-Pin_2)*%
X148644000Y-44497000D03*
%TO.P,J2,3,Pin_3*%
%TO.N,Net-(J2-Pin_3)*%
X146104000Y-44497000D03*
%TO.P,J2,4,Pin_4*%
%TO.N,+5V*%
X143564000Y-44497000D03*
%TD*%
D10*
%TO.P,J1,1,Pin_1*%
%TO.N,Net-(J1-Pin_1)*%
X100978000Y-117199000D03*
D11*
%TO.P,J1,2,Pin_2*%
%TO.N,Net-(J1-Pin_2)*%
X103518000Y-117199000D03*
%TO.P,J1,3,Pin_3*%
%TO.N,Net-(J1-Pin_3)*%
X106058000Y-117199000D03*
%TO.P,J1,4,Pin_4*%
%TO.N,GND*%
X108598000Y-117199000D03*
%TD*%
D12*
%TO.P,D3,1,K*%
%TO.N,GND*%
X155255000Y-67403000D03*
D13*
%TO.P,D3,2,A*%
%TO.N,Net-(D3-A)*%
X155255000Y-64863000D03*
%TD*%
D10*
%TO.P,J2,1,Pin_1*%
%TO.N,Net-(J2-Pin_1)*%
X151191000Y-123498000D03*
D11*
%TO.P,J2,2,Pin_2*%
%TO.N,Net-(J2-Pin_2)*%
X148651000Y-123498000D03*
%TO.P,J2,3,Pin_3*%
%TO.N,Net-(J2-Pin_3)*%
X146111000Y-123498000D03*
%TO.P,J2,4,Pin_4*%
%TO.N,+5V*%
X143571000Y-123498000D03*
%TD*%
D10*
%TO.P,J2,1,Pin_1*%
%TO.N,Net-(J2-Pin_1)*%
X108598000Y-123499000D03*
D11*
%TO.P,J2,2,Pin_2*%
%TO.N,Net-(J2-Pin_2)*%
X106058000Y-123499000D03*
%TO.P,J2,3,Pin_3*%
%TO.N,Net-(J2-Pin_3)*%
X103518000Y-123499000D03*
%TO.P,J2,4,Pin_4*%
%TO.N,+5V*%
X100978000Y-123499000D03*
%TD*%
D10*
%TO.P,J1,1,Pin_1*%
%TO.N,Net-(J1-Pin_1)*%
X143571000Y-117198000D03*
D11*
%TO.P,J1,2,Pin_2*%
%TO.N,Net-(J1-Pin_2)*%
X146111000Y-117198000D03*
%TO.P,J1,3,Pin_3*%
%TO.N,Net-(J1-Pin_3)*%
X148651000Y-117198000D03*
%TO.P,J1,4,Pin_4*%
%TO.N,GND*%
X151191000Y-117198000D03*
%TD*%
D10*
%TO.P,J1,1,Pin_1*%
%TO.N,Net-(J1-Pin_1)*%
X143578000Y-148799000D03*
D11*
%TO.P,J1,2,Pin_2*%
%TO.N,Net-(J1-Pin_2)*%
X146118000Y-148799000D03*
%TO.P,J1,3,Pin_3*%
%TO.N,Net-(J1-Pin_3)*%
X148658000Y-148799000D03*
%TO.P,J1,4,Pin_4*%
%TO.N,GND*%
X151198000Y-148799000D03*
%TD*%
D12*
%TO.P,D3,1,K*%
%TO.N,GND*%
X112655000Y-51603000D03*
D13*
%TO.P,D3,2,A*%
%TO.N,Net-(D3-A)*%
X112655000Y-49063000D03*
%TD*%
D10*
%TO.P,J1,1,Pin_1*%
%TO.N,Net-(J1-Pin_1)*%
X100978000Y-69799000D03*
D11*
%TO.P,J1,2,Pin_2*%
%TO.N,Net-(J1-Pin_2)*%
X103518000Y-69799000D03*
%TO.P,J1,3,Pin_3*%
%TO.N,Net-(J1-Pin_3)*%
X106058000Y-69799000D03*
%TO.P,J1,4,Pin_4*%
%TO.N,GND*%
X108598000Y-69799000D03*
%TD*%
D10*
%TO.P,J2,1,Pin_1*%
%TO.N,Net-(J2-Pin_1)*%
X151191000Y-60298000D03*
D11*
%TO.P,J2,2,Pin_2*%
%TO.N,Net-(J2-Pin_2)*%
X148651000Y-60298000D03*
%TO.P,J2,3,Pin_3*%
%TO.N,Net-(J2-Pin_3)*%
X146111000Y-60298000D03*
%TO.P,J2,4,Pin_4*%
%TO.N,+5V*%
X143571000Y-60298000D03*
%TD*%
D12*
%TO.P,D3,1,K*%
%TO.N,GND*%
X112662000Y-130604000D03*
D13*
%TO.P,D3,2,A*%
%TO.N,Net-(D3-A)*%
X112662000Y-128064000D03*
%TD*%
D10*
%TO.P,J2,1,Pin_1*%
%TO.N,Net-(J2-Pin_1)*%
X108591000Y-44498000D03*
D11*
%TO.P,J2,2,Pin_2*%
%TO.N,Net-(J2-Pin_2)*%
X106051000Y-44498000D03*
%TO.P,J2,3,Pin_3*%
%TO.N,Net-(J2-Pin_3)*%
X103511000Y-44498000D03*
%TO.P,J2,4,Pin_4*%
%TO.N,+5V*%
X100971000Y-44498000D03*
%TD*%
D12*
%TO.P,D3,1,K*%
%TO.N,GND*%
X112669000Y-146405000D03*
D13*
%TO.P,D3,2,A*%
%TO.N,Net-(D3-A)*%
X112669000Y-143865000D03*
%TD*%
D12*
%TO.P,D3,1,K*%
%TO.N,GND*%
X112662000Y-83204000D03*
D13*
%TO.P,D3,2,A*%
%TO.N,Net-(D3-A)*%
X112662000Y-80664000D03*
%TD*%
D12*
%TO.P,D3,1,K*%
%TO.N,GND*%
X155262000Y-146404000D03*
D13*
%TO.P,D3,2,A*%
%TO.N,Net-(D3-A)*%
X155262000Y-143864000D03*
%TD*%
D10*
%TO.P,J1,1,Pin_1*%
%TO.N,Net-(J1-Pin_1)*%
X100971000Y-101398000D03*
D11*
%TO.P,J1,2,Pin_2*%
%TO.N,Net-(J1-Pin_2)*%
X103511000Y-101398000D03*
%TO.P,J1,3,Pin_3*%
%TO.N,Net-(J1-Pin_3)*%
X106051000Y-101398000D03*
%TO.P,J1,4,Pin_4*%
%TO.N,GND*%
X108591000Y-101398000D03*
%TD*%
D12*
%TO.P,D3,1,K*%
%TO.N,GND*%
X112662000Y-114804000D03*
D13*
%TO.P,D3,2,A*%
%TO.N,Net-(D3-A)*%
X112662000Y-112264000D03*
%TD*%
D12*
%TO.P,D3,1,K*%
%TO.N,GND*%
X155255000Y-83203000D03*
D13*
%TO.P,D3,2,A*%
%TO.N,Net-(D3-A)*%
X155255000Y-80663000D03*
%TD*%
D10*
%TO.P,J1,1,Pin_1*%
%TO.N,Net-(J1-Pin_1)*%
X100971000Y-53998000D03*
D11*
%TO.P,J1,2,Pin_2*%
%TO.N,Net-(J1-Pin_2)*%
X103511000Y-53998000D03*
%TO.P,J1,3,Pin_3*%
%TO.N,Net-(J1-Pin_3)*%
X106051000Y-53998000D03*
%TO.P,J1,4,Pin_4*%
%TO.N,GND*%
X108591000Y-53998000D03*
%TD*%
D10*
%TO.P,J2,1,Pin_1*%
%TO.N,Net-(J2-Pin_1)*%
X108598000Y-60299000D03*
D11*
%TO.P,J2,2,Pin_2*%
%TO.N,Net-(J2-Pin_2)*%
X106058000Y-60299000D03*
%TO.P,J2,3,Pin_3*%
%TO.N,Net-(J2-Pin_3)*%
X103518000Y-60299000D03*
%TO.P,J2,4,Pin_4*%
%TO.N,+5V*%
X100978000Y-60299000D03*
%TD*%
D10*
%TO.P,J1,1,Pin_1*%
%TO.N,Net-(J1-Pin_1)*%
X100978000Y-132999000D03*
D11*
%TO.P,J1,2,Pin_2*%
%TO.N,Net-(J1-Pin_2)*%
X103518000Y-132999000D03*
%TO.P,J1,3,Pin_3*%
%TO.N,Net-(J1-Pin_3)*%
X106058000Y-132999000D03*
%TO.P,J1,4,Pin_4*%
%TO.N,GND*%
X108598000Y-132999000D03*
%TD*%
D10*
%TO.P,J1,1,Pin_1*%
%TO.N,Net-(J1-Pin_1)*%
X100978000Y-85599000D03*
D11*
%TO.P,J1,2,Pin_2*%
%TO.N,Net-(J1-Pin_2)*%
X103518000Y-85599000D03*
%TO.P,J1,3,Pin_3*%
%TO.N,Net-(J1-Pin_3)*%
X106058000Y-85599000D03*
%TO.P,J1,4,Pin_4*%
%TO.N,GND*%
X108598000Y-85599000D03*
%TD*%
D10*
%TO.P,J1,1,Pin_1*%
%TO.N,Net-(J1-Pin_1)*%
X143571000Y-85598000D03*
D11*
%TO.P,J1,2,Pin_2*%
%TO.N,Net-(J1-Pin_2)*%
X146111000Y-85598000D03*
%TO.P,J1,3,Pin_3*%
%TO.N,Net-(J1-Pin_3)*%
X148651000Y-85598000D03*
%TO.P,J1,4,Pin_4*%
%TO.N,GND*%
X151191000Y-85598000D03*
%TD*%
D10*
%TO.P,J2,1,Pin_1*%
%TO.N,Net-(J2-Pin_1)*%
X108598000Y-76099000D03*
D11*
%TO.P,J2,2,Pin_2*%
%TO.N,Net-(J2-Pin_2)*%
X106058000Y-76099000D03*
%TO.P,J2,3,Pin_3*%
%TO.N,Net-(J2-Pin_3)*%
X103518000Y-76099000D03*
%TO.P,J2,4,Pin_4*%
%TO.N,+5V*%
X100978000Y-76099000D03*
%TD*%
D10*
%TO.P,J2,1,Pin_1*%
%TO.N,Net-(J2-Pin_1)*%
X108591000Y-91898000D03*
D11*
%TO.P,J2,2,Pin_2*%
%TO.N,Net-(J2-Pin_2)*%
X106051000Y-91898000D03*
%TO.P,J2,3,Pin_3*%
%TO.N,Net-(J2-Pin_3)*%
X103511000Y-91898000D03*
%TO.P,J2,4,Pin_4*%
%TO.N,+5V*%
X100971000Y-91898000D03*
%TD*%
D12*
%TO.P,D3,1,K*%
%TO.N,GND*%
X112655000Y-99003000D03*
D13*
%TO.P,D3,2,A*%
%TO.N,Net-(D3-A)*%
X112655000Y-96463000D03*
%TD*%
D12*
%TO.P,D3,1,K*%
%TO.N,GND*%
X155255000Y-114803000D03*
D13*
%TO.P,D3,2,A*%
%TO.N,Net-(D3-A)*%
X155255000Y-112263000D03*
%TD*%
D10*
%TO.P,J2,1,Pin_1*%
%TO.N,Net-(J2-Pin_1)*%
X151191000Y-107698000D03*
D11*
%TO.P,J2,2,Pin_2*%
%TO.N,Net-(J2-Pin_2)*%
X148651000Y-107698000D03*
%TO.P,J2,3,Pin_3*%
%TO.N,Net-(J2-Pin_3)*%
X146111000Y-107698000D03*
%TO.P,J2,4,Pin_4*%
%TO.N,+5V*%
X143571000Y-107698000D03*
%TD*%
D10*
%TO.P,J1,1,Pin_1*%
%TO.N,Net-(J1-Pin_1)*%
X100985000Y-148800000D03*
D11*
%TO.P,J1,2,Pin_2*%
%TO.N,Net-(J1-Pin_2)*%
X103525000Y-148800000D03*
%TO.P,J1,3,Pin_3*%
%TO.N,Net-(J1-Pin_3)*%
X106065000Y-148800000D03*
%TO.P,J1,4,Pin_4*%
%TO.N,GND*%
X108605000Y-148800000D03*
%TD*%
D10*
%TO.P,J2,1,Pin_1*%
%TO.N,Net-(J2-Pin_1)*%
X151191000Y-76098000D03*
D11*
%TO.P,J2,2,Pin_2*%
%TO.N,Net-(J2-Pin_2)*%
X148651000Y-76098000D03*
%TO.P,J2,3,Pin_3*%
%TO.N,Net-(J2-Pin_3)*%
X146111000Y-76098000D03*
%TO.P,J2,4,Pin_4*%
%TO.N,+5V*%
X143571000Y-76098000D03*
%TD*%
D12*
%TO.P,D3,1,K*%
%TO.N,GND*%
X155248000Y-51602000D03*
D13*
%TO.P,D3,2,A*%
%TO.N,Net-(D3-A)*%
X155248000Y-49062000D03*
%TD*%
D10*
%TO.P,J2,1,Pin_1*%
%TO.N,Net-(J2-Pin_1)*%
X108605000Y-139300000D03*
D11*
%TO.P,J2,2,Pin_2*%
%TO.N,Net-(J2-Pin_2)*%
X106065000Y-139300000D03*
%TO.P,J2,3,Pin_3*%
%TO.N,Net-(J2-Pin_3)*%
X103525000Y-139300000D03*
%TO.P,J2,4,Pin_4*%
%TO.N,+5V*%
X100985000Y-139300000D03*
%TD*%
D12*
%TO.P,D3,1,K*%
%TO.N,GND*%
X112662000Y-67404000D03*
D13*
%TO.P,D3,2,A*%
%TO.N,Net-(D3-A)*%
X112662000Y-64864000D03*
%TD*%
D10*
%TO.P,J2,1,Pin_1*%
%TO.N,Net-(J2-Pin_1)*%
X151184000Y-91897000D03*
D11*
%TO.P,J2,2,Pin_2*%
%TO.N,Net-(J2-Pin_2)*%
X148644000Y-91897000D03*
%TO.P,J2,3,Pin_3*%
%TO.N,Net-(J2-Pin_3)*%
X146104000Y-91897000D03*
%TO.P,J2,4,Pin_4*%
%TO.N,+5V*%
X143564000Y-91897000D03*
%TD*%
D10*
%TO.P,J1,1,Pin_1*%
%TO.N,Net-(J1-Pin_1)*%
X143564000Y-101397000D03*
D11*
%TO.P,J1,2,Pin_2*%
%TO.N,Net-(J1-Pin_2)*%
X146104000Y-101397000D03*
%TO.P,J1,3,Pin_3*%
%TO.N,Net-(J1-Pin_3)*%
X148644000Y-101397000D03*
%TO.P,J1,4,Pin_4*%
%TO.N,GND*%
X151184000Y-101397000D03*
%TD*%
D14*
%TO.N,GND*%
X130186000Y-128498000D03*
X87593000Y-65299000D03*
X89586000Y-102598000D03*
X132186000Y-70998000D03*
X87593000Y-81099000D03*
X92088000Y-111756000D03*
X132193000Y-149999000D03*
X92088000Y-80156000D03*
X92081000Y-95955000D03*
X92081000Y-48555000D03*
X134674000Y-48554000D03*
X132186000Y-118398000D03*
X130179000Y-49497000D03*
X130186000Y-81098000D03*
X87586000Y-96898000D03*
X130193000Y-144299000D03*
X134681000Y-111755000D03*
X130186000Y-65298000D03*
X130179000Y-96897000D03*
X132186000Y-86798000D03*
X134688000Y-143356000D03*
X132179000Y-55197000D03*
X132186000Y-134198000D03*
X134681000Y-80155000D03*
X89593000Y-118399000D03*
X87586000Y-49498000D03*
X89593000Y-134199000D03*
X134681000Y-127555000D03*
X87593000Y-112699000D03*
X92088000Y-64356000D03*
X134681000Y-64355000D03*
X87593000Y-128499000D03*
X87600000Y-144300000D03*
X92095000Y-143357000D03*
X89593000Y-70999000D03*
X132179000Y-102597000D03*
X134674000Y-95954000D03*
X130186000Y-112698000D03*
X89593000Y-86799000D03*
X89600000Y-150000000D03*
X89586000Y-55198000D03*
X92088000Y-127556000D03*
%TO.N,+5V*%
X85484000Y-131112000D03*
X128077000Y-67911000D03*
X85484000Y-115312000D03*
X128070000Y-52110000D03*
X128070000Y-99510000D03*
X85477000Y-99511000D03*
X128077000Y-115311000D03*
X128077000Y-131111000D03*
X85491000Y-146913000D03*
X85484000Y-83712000D03*
X128084000Y-146912000D03*
X85484000Y-67912000D03*
X128077000Y-83711000D03*
X85477000Y-52111000D03*
%TO.N,Net-(J2-Pin_2)*%
X149159000Y-80917000D03*
X149152000Y-96716000D03*
X149166000Y-144118000D03*
X149159000Y-112517000D03*
X149159000Y-128317000D03*
X106559000Y-49317000D03*
X149159000Y-65117000D03*
X106566000Y-128318000D03*
X106559000Y-96717000D03*
X149152000Y-49316000D03*
X106566000Y-112518000D03*
X106566000Y-80918000D03*
X106566000Y-65118000D03*
X106573000Y-144119000D03*
%TO.N,Net-(J1-Pin_2)*%
X147134000Y-143356000D03*
X147120000Y-95954000D03*
X104534000Y-127556000D03*
X104534000Y-111756000D03*
X104527000Y-48555000D03*
X147127000Y-64355000D03*
X147127000Y-111755000D03*
X147127000Y-127555000D03*
X104534000Y-64356000D03*
X104541000Y-143357000D03*
X104527000Y-95955000D03*
X104534000Y-80156000D03*
X147127000Y-80155000D03*
X147120000Y-48554000D03*
%TO.N,Net-(J2-Pin_1)*%
X152461000Y-130095000D03*
X109868000Y-82696000D03*
X109868000Y-66896000D03*
X152461000Y-114295000D03*
X152461000Y-82695000D03*
X152468000Y-145896000D03*
X109868000Y-114296000D03*
X109875000Y-145897000D03*
X152454000Y-98494000D03*
X109868000Y-130096000D03*
X109861000Y-51095000D03*
X109861000Y-98495000D03*
X152454000Y-51094000D03*
X152461000Y-66895000D03*
%TO.N,Net-(J1-Pin_3)*%
X148651000Y-113279000D03*
X106058000Y-113280000D03*
X148658000Y-144880000D03*
X106051000Y-50079000D03*
X148651000Y-81679000D03*
X106065000Y-144881000D03*
X148651000Y-129079000D03*
X148644000Y-50078000D03*
X148651000Y-65879000D03*
X148644000Y-97478000D03*
X106058000Y-129080000D03*
X106058000Y-65880000D03*
X106058000Y-81680000D03*
X106051000Y-97479000D03*
%TO.N,Net-(J1-Pin_1)*%
X146365000Y-63593000D03*
X146365000Y-126793000D03*
X103765000Y-47793000D03*
X103765000Y-95193000D03*
X146365000Y-79393000D03*
X103779000Y-142595000D03*
X103772000Y-110994000D03*
X146372000Y-142594000D03*
X146365000Y-110993000D03*
X146358000Y-47792000D03*
X103772000Y-79394000D03*
X146358000Y-95192000D03*
X103772000Y-63594000D03*
X103772000Y-126794000D03*
%TD*%
D15*
%TO.N,GND*%
X134681000Y-127555000D02*
X137043000Y-127555000D01*
X107291000Y-55298000D02*
X108591000Y-53998000D01*
X107298000Y-86899000D02*
X108598000Y-85599000D01*
X149884000Y-102697000D02*
X151184000Y-101397000D01*
D16*
X130586000Y-69398000D02*
X130486000Y-69398000D01*
D15*
X137043000Y-111755000D02*
X137586000Y-112298000D01*
D16*
X87586000Y-53298000D02*
X87886000Y-53598000D01*
X88000000Y-148400000D02*
X87900000Y-148400000D01*
X87586000Y-49498000D02*
X87586000Y-53298000D01*
X130186000Y-132298000D02*
X130486000Y-132598000D01*
D15*
X107305000Y-150100000D02*
X108605000Y-148800000D01*
D16*
X130593000Y-148399000D02*
X130493000Y-148399000D01*
X87593000Y-84899000D02*
X87893000Y-85199000D01*
X87593000Y-116499000D02*
X87893000Y-116799000D01*
X130193000Y-144299000D02*
X130193000Y-148099000D01*
D15*
X137986000Y-134298000D02*
X149891000Y-134298000D01*
X94993000Y-86499000D02*
X95393000Y-86899000D01*
X137586000Y-86498000D02*
X137986000Y-86898000D01*
D16*
X89586000Y-102598000D02*
X87986000Y-100998000D01*
D15*
X94993000Y-70699000D02*
X95393000Y-71099000D01*
D16*
X130179000Y-96897000D02*
X130179000Y-100697000D01*
D15*
X134674000Y-48554000D02*
X137036000Y-48554000D01*
D16*
X87600000Y-144300000D02*
X87600000Y-148100000D01*
X132179000Y-55197000D02*
X130579000Y-53597000D01*
D15*
X95393000Y-71099000D02*
X107298000Y-71099000D01*
X149891000Y-134298000D02*
X151191000Y-132998000D01*
X137979000Y-55297000D02*
X149884000Y-55297000D01*
D16*
X130579000Y-100997000D02*
X130479000Y-100997000D01*
D15*
X137593000Y-143899000D02*
X137593000Y-149699000D01*
D16*
X130186000Y-65298000D02*
X130186000Y-69098000D01*
D15*
X92081000Y-95955000D02*
X94443000Y-95955000D01*
X137579000Y-54897000D02*
X137979000Y-55297000D01*
X137586000Y-133898000D02*
X137986000Y-134298000D01*
X149898000Y-150099000D02*
X151198000Y-148799000D01*
X137986000Y-86898000D02*
X149891000Y-86898000D01*
X107298000Y-134299000D02*
X108598000Y-132999000D01*
D16*
X87593000Y-128499000D02*
X87593000Y-132299000D01*
D15*
X137593000Y-149699000D02*
X137993000Y-150099000D01*
D16*
X87586000Y-96898000D02*
X87586000Y-100698000D01*
X130179000Y-100697000D02*
X130479000Y-100997000D01*
D15*
X94450000Y-64356000D02*
X94993000Y-64899000D01*
X134681000Y-80155000D02*
X137043000Y-80155000D01*
X95000000Y-149700000D02*
X95400000Y-150100000D01*
D16*
X89593000Y-118399000D02*
X87993000Y-116799000D01*
D15*
X95386000Y-55298000D02*
X107291000Y-55298000D01*
D16*
X87593000Y-81099000D02*
X87593000Y-84899000D01*
X89593000Y-134199000D02*
X87993000Y-132599000D01*
D15*
X137050000Y-143356000D02*
X137593000Y-143899000D01*
X107291000Y-102698000D02*
X108591000Y-101398000D01*
X137579000Y-49097000D02*
X137579000Y-54897000D01*
X95000000Y-143900000D02*
X95000000Y-149700000D01*
X95393000Y-86899000D02*
X107298000Y-86899000D01*
X137986000Y-71098000D02*
X149891000Y-71098000D01*
X107298000Y-118499000D02*
X108598000Y-117199000D01*
X94986000Y-54898000D02*
X95386000Y-55298000D01*
X92088000Y-127556000D02*
X94450000Y-127556000D01*
D16*
X130186000Y-116498000D02*
X130486000Y-116798000D01*
X132186000Y-118398000D02*
X130586000Y-116798000D01*
D15*
X137586000Y-70698000D02*
X137986000Y-71098000D01*
X92088000Y-111756000D02*
X94450000Y-111756000D01*
D16*
X87600000Y-148100000D02*
X87900000Y-148400000D01*
X87593000Y-132299000D02*
X87893000Y-132599000D01*
X132186000Y-134198000D02*
X130586000Y-132598000D01*
X130186000Y-81098000D02*
X130186000Y-84898000D01*
X87593000Y-65299000D02*
X87593000Y-69099000D01*
D15*
X94450000Y-127556000D02*
X94993000Y-128099000D01*
D16*
X132186000Y-86798000D02*
X130586000Y-85198000D01*
X132193000Y-149999000D02*
X130593000Y-148399000D01*
D15*
X92095000Y-143357000D02*
X94457000Y-143357000D01*
X94450000Y-111756000D02*
X94993000Y-112299000D01*
X94986000Y-96498000D02*
X94986000Y-102298000D01*
X149891000Y-86898000D02*
X151191000Y-85598000D01*
X137043000Y-80155000D02*
X137586000Y-80698000D01*
D16*
X87593000Y-112699000D02*
X87593000Y-116499000D01*
D15*
X94443000Y-95955000D02*
X94986000Y-96498000D01*
X94450000Y-80156000D02*
X94993000Y-80699000D01*
X95393000Y-118499000D02*
X107298000Y-118499000D01*
D16*
X87993000Y-132599000D02*
X87893000Y-132599000D01*
X87986000Y-53598000D02*
X87886000Y-53598000D01*
X87993000Y-116799000D02*
X87893000Y-116799000D01*
D15*
X137586000Y-80698000D02*
X137586000Y-86498000D01*
D16*
X132179000Y-102597000D02*
X130579000Y-100997000D01*
D15*
X94993000Y-112299000D02*
X94993000Y-118099000D01*
X137979000Y-102697000D02*
X149884000Y-102697000D01*
X94986000Y-102298000D02*
X95386000Y-102698000D01*
D16*
X130586000Y-132598000D02*
X130486000Y-132598000D01*
D15*
X94993000Y-128099000D02*
X94993000Y-133899000D01*
X137036000Y-48554000D02*
X137579000Y-49097000D01*
D16*
X89586000Y-55198000D02*
X87986000Y-53598000D01*
X130186000Y-112698000D02*
X130186000Y-116498000D01*
D15*
X94993000Y-118099000D02*
X95393000Y-118499000D01*
D16*
X87586000Y-100698000D02*
X87886000Y-100998000D01*
D15*
X134681000Y-64355000D02*
X137043000Y-64355000D01*
D16*
X89600000Y-150000000D02*
X88000000Y-148400000D01*
X130579000Y-53597000D02*
X130479000Y-53597000D01*
D15*
X134688000Y-143356000D02*
X137050000Y-143356000D01*
D16*
X132186000Y-70998000D02*
X130586000Y-69398000D01*
X87993000Y-85199000D02*
X87893000Y-85199000D01*
X130193000Y-148099000D02*
X130493000Y-148399000D01*
D15*
X95400000Y-150100000D02*
X107305000Y-150100000D01*
D16*
X130586000Y-116798000D02*
X130486000Y-116798000D01*
D15*
X134674000Y-95954000D02*
X137036000Y-95954000D01*
D16*
X87993000Y-69399000D02*
X87893000Y-69399000D01*
D15*
X134681000Y-111755000D02*
X137043000Y-111755000D01*
X94993000Y-64899000D02*
X94993000Y-70699000D01*
X149884000Y-55297000D02*
X151184000Y-53997000D01*
D16*
X87986000Y-100998000D02*
X87886000Y-100998000D01*
D15*
X94443000Y-48555000D02*
X94986000Y-49098000D01*
X92081000Y-48555000D02*
X94443000Y-48555000D01*
X92088000Y-80156000D02*
X94450000Y-80156000D01*
D16*
X130586000Y-85198000D02*
X130486000Y-85198000D01*
X87593000Y-69099000D02*
X87893000Y-69399000D01*
D15*
X149891000Y-118498000D02*
X151191000Y-117198000D01*
D16*
X130186000Y-128498000D02*
X130186000Y-132298000D01*
D15*
X94993000Y-133899000D02*
X95393000Y-134299000D01*
D16*
X130179000Y-53297000D02*
X130479000Y-53597000D01*
D15*
X95386000Y-102698000D02*
X107291000Y-102698000D01*
X137043000Y-64355000D02*
X137586000Y-64898000D01*
D16*
X89593000Y-70999000D02*
X87993000Y-69399000D01*
D15*
X94986000Y-49098000D02*
X94986000Y-54898000D01*
X137036000Y-95954000D02*
X137579000Y-96497000D01*
X107298000Y-71099000D02*
X108598000Y-69799000D01*
X137586000Y-118098000D02*
X137986000Y-118498000D01*
X94993000Y-80699000D02*
X94993000Y-86499000D01*
D16*
X130186000Y-69098000D02*
X130486000Y-69398000D01*
D15*
X137043000Y-127555000D02*
X137586000Y-128098000D01*
D16*
X130186000Y-84898000D02*
X130486000Y-85198000D01*
D15*
X137579000Y-102297000D02*
X137979000Y-102697000D01*
X137586000Y-128098000D02*
X137586000Y-133898000D01*
X95393000Y-134299000D02*
X107298000Y-134299000D01*
D16*
X89593000Y-86799000D02*
X87993000Y-85199000D01*
D15*
X92088000Y-64356000D02*
X94450000Y-64356000D01*
X137579000Y-96497000D02*
X137579000Y-102297000D01*
X137993000Y-150099000D02*
X149898000Y-150099000D01*
X149891000Y-71098000D02*
X151191000Y-69798000D01*
X94457000Y-143357000D02*
X95000000Y-143900000D01*
X137586000Y-64898000D02*
X137586000Y-70698000D01*
X137986000Y-118498000D02*
X149891000Y-118498000D01*
D16*
X130179000Y-49497000D02*
X130179000Y-53297000D01*
D15*
X137586000Y-112298000D02*
X137586000Y-118098000D01*
D16*
%TO.N,+5V*%
X143063000Y-44998000D02*
X143564000Y-44497000D01*
X86500000Y-77362000D02*
X87262000Y-76600000D01*
X128077000Y-83711000D02*
X129093000Y-82695000D01*
X128084000Y-146912000D02*
X129100000Y-145896000D01*
X129086000Y-45760000D02*
X129848000Y-44998000D01*
X143077000Y-139800000D02*
X143578000Y-139299000D01*
X87262000Y-124000000D02*
X100477000Y-124000000D01*
X100477000Y-76600000D02*
X100978000Y-76099000D01*
X143070000Y-108199000D02*
X143571000Y-107698000D01*
X143070000Y-60799000D02*
X143571000Y-60298000D01*
X86500000Y-114296000D02*
X86500000Y-108962000D01*
X100477000Y-108200000D02*
X100978000Y-107699000D01*
X143063000Y-92398000D02*
X143564000Y-91897000D01*
X86493000Y-45761000D02*
X87255000Y-44999000D01*
X129086000Y-98494000D02*
X129086000Y-93160000D01*
X128077000Y-115311000D02*
X129093000Y-114295000D01*
X86500000Y-108962000D02*
X87262000Y-108200000D01*
X85484000Y-83712000D02*
X86500000Y-82696000D01*
X87262000Y-60800000D02*
X100477000Y-60800000D01*
X85491000Y-146913000D02*
X86507000Y-145897000D01*
X128077000Y-131111000D02*
X129093000Y-130095000D01*
X100477000Y-60800000D02*
X100978000Y-60299000D01*
X85484000Y-67912000D02*
X86500000Y-66896000D01*
X129093000Y-114295000D02*
X129093000Y-108961000D01*
X129100000Y-140562000D02*
X129862000Y-139800000D01*
X86500000Y-82696000D02*
X86500000Y-77362000D01*
X129093000Y-130095000D02*
X129093000Y-124761000D01*
X129093000Y-82695000D02*
X129093000Y-77361000D01*
X129093000Y-108961000D02*
X129855000Y-108199000D01*
X100484000Y-139801000D02*
X100985000Y-139300000D01*
X128070000Y-52110000D02*
X129086000Y-51094000D01*
X129848000Y-92398000D02*
X143063000Y-92398000D01*
X143070000Y-76599000D02*
X143571000Y-76098000D01*
X128077000Y-67911000D02*
X129093000Y-66895000D01*
X129093000Y-61561000D02*
X129855000Y-60799000D01*
X85484000Y-131112000D02*
X86500000Y-130096000D01*
X129093000Y-66895000D02*
X129093000Y-61561000D01*
X86493000Y-51095000D02*
X86493000Y-45761000D01*
X129855000Y-60799000D02*
X143070000Y-60799000D01*
X129086000Y-93160000D02*
X129848000Y-92398000D01*
X87269000Y-139801000D02*
X100484000Y-139801000D01*
X129848000Y-44998000D02*
X143063000Y-44998000D01*
X86500000Y-130096000D02*
X86500000Y-124762000D01*
X128070000Y-99510000D02*
X129086000Y-98494000D01*
X100470000Y-92399000D02*
X100971000Y-91898000D01*
X86493000Y-93161000D02*
X87255000Y-92399000D01*
X129093000Y-124761000D02*
X129855000Y-123999000D01*
X85477000Y-52111000D02*
X86493000Y-51095000D01*
X87262000Y-76600000D02*
X100477000Y-76600000D01*
X86493000Y-98495000D02*
X86493000Y-93161000D01*
X86500000Y-61562000D02*
X87262000Y-60800000D01*
X87262000Y-108200000D02*
X100477000Y-108200000D01*
X86500000Y-124762000D02*
X87262000Y-124000000D01*
X129862000Y-139800000D02*
X143077000Y-139800000D01*
X129100000Y-145896000D02*
X129100000Y-140562000D01*
X129855000Y-123999000D02*
X143070000Y-123999000D01*
X143070000Y-123999000D02*
X143571000Y-123498000D01*
X85484000Y-115312000D02*
X86500000Y-114296000D01*
X100477000Y-124000000D02*
X100978000Y-123499000D01*
X86507000Y-145897000D02*
X86507000Y-140563000D01*
X86500000Y-66896000D02*
X86500000Y-61562000D01*
X86507000Y-140563000D02*
X87269000Y-139801000D01*
X100470000Y-44999000D02*
X100971000Y-44498000D01*
X129855000Y-108199000D02*
X143070000Y-108199000D01*
X129855000Y-76599000D02*
X143070000Y-76599000D01*
X129086000Y-51094000D02*
X129086000Y-45760000D01*
X87255000Y-44999000D02*
X100470000Y-44999000D01*
X129093000Y-77361000D02*
X129855000Y-76599000D01*
X87255000Y-92399000D02*
X100470000Y-92399000D01*
X85477000Y-99511000D02*
X86493000Y-98495000D01*
%TO.N,Net-(J2-Pin_2)*%
X149159000Y-80917000D02*
X148651000Y-80409000D01*
X148658000Y-143610000D02*
X148658000Y-139299000D01*
X149152000Y-49316000D02*
X148644000Y-48808000D01*
X106051000Y-96209000D02*
X106051000Y-91898000D01*
X106566000Y-112518000D02*
X106058000Y-112010000D01*
X106573000Y-144119000D02*
X106065000Y-143611000D01*
X148651000Y-112009000D02*
X148651000Y-107698000D01*
X148644000Y-48808000D02*
X148644000Y-44497000D01*
X106058000Y-64610000D02*
X106058000Y-60299000D01*
X106058000Y-127810000D02*
X106058000Y-123499000D01*
X149152000Y-96716000D02*
X148644000Y-96208000D01*
X106058000Y-112010000D02*
X106058000Y-107699000D01*
X106559000Y-96717000D02*
X106051000Y-96209000D01*
X148651000Y-80409000D02*
X148651000Y-76098000D01*
X106566000Y-128318000D02*
X106058000Y-127810000D01*
X106566000Y-65118000D02*
X106058000Y-64610000D01*
X106566000Y-80918000D02*
X106058000Y-80410000D01*
X106058000Y-80410000D02*
X106058000Y-76099000D01*
X106559000Y-49317000D02*
X106051000Y-48809000D01*
X148651000Y-127809000D02*
X148651000Y-123498000D01*
X148644000Y-96208000D02*
X148644000Y-91897000D01*
X149159000Y-65117000D02*
X148651000Y-64609000D01*
X106065000Y-143611000D02*
X106065000Y-139300000D01*
X148651000Y-64609000D02*
X148651000Y-60298000D01*
X106051000Y-48809000D02*
X106051000Y-44498000D01*
X149159000Y-112517000D02*
X148651000Y-112009000D01*
X149159000Y-128317000D02*
X148651000Y-127809000D01*
X149166000Y-144118000D02*
X148658000Y-143610000D01*
%TO.N,Net-(J1-Pin_2)*%
X147127000Y-64355000D02*
X147127000Y-64609000D01*
X147127000Y-127555000D02*
X147127000Y-127809000D01*
X104527000Y-48809000D02*
X103511000Y-49825000D01*
X104534000Y-64356000D02*
X104534000Y-64610000D01*
X104527000Y-96209000D02*
X103511000Y-97225000D01*
X103511000Y-97225000D02*
X103511000Y-101398000D01*
X103511000Y-49825000D02*
X103511000Y-53998000D01*
X104534000Y-80156000D02*
X104534000Y-80410000D01*
X103525000Y-144627000D02*
X103525000Y-148800000D01*
X104534000Y-80410000D02*
X103518000Y-81426000D01*
X103518000Y-113026000D02*
X103518000Y-117199000D01*
X146111000Y-65625000D02*
X146111000Y-69798000D01*
X104527000Y-95955000D02*
X104527000Y-96209000D01*
X103518000Y-128826000D02*
X103518000Y-132999000D01*
X147120000Y-48554000D02*
X147120000Y-48808000D01*
X103518000Y-81426000D02*
X103518000Y-85599000D01*
X147127000Y-80409000D02*
X146111000Y-81425000D01*
X104541000Y-143611000D02*
X103525000Y-144627000D01*
X147134000Y-143610000D02*
X146118000Y-144626000D01*
X103518000Y-65626000D02*
X103518000Y-69799000D01*
X104534000Y-127810000D02*
X103518000Y-128826000D01*
X147127000Y-111755000D02*
X147127000Y-112009000D01*
X147127000Y-64609000D02*
X146111000Y-65625000D01*
X146111000Y-128825000D02*
X146111000Y-132998000D01*
X147120000Y-96208000D02*
X146104000Y-97224000D01*
X104534000Y-64610000D02*
X103518000Y-65626000D01*
X146104000Y-97224000D02*
X146104000Y-101397000D01*
X146118000Y-144626000D02*
X146118000Y-148799000D01*
X147127000Y-112009000D02*
X146111000Y-113025000D01*
X146104000Y-49824000D02*
X146104000Y-53997000D01*
X147120000Y-95954000D02*
X147120000Y-96208000D01*
X147134000Y-143356000D02*
X147134000Y-143610000D01*
X104534000Y-127556000D02*
X104534000Y-127810000D01*
X147120000Y-48808000D02*
X146104000Y-49824000D01*
X104541000Y-143357000D02*
X104541000Y-143611000D01*
X104534000Y-111756000D02*
X104534000Y-112010000D01*
X104527000Y-48555000D02*
X104527000Y-48809000D01*
X146111000Y-81425000D02*
X146111000Y-85598000D01*
X147127000Y-127809000D02*
X146111000Y-128825000D01*
X146111000Y-113025000D02*
X146111000Y-117198000D01*
X147127000Y-80155000D02*
X147127000Y-80409000D01*
X104534000Y-112010000D02*
X103518000Y-113026000D01*
%TO.N,Net-(J2-Pin_1)*%
X152454000Y-98494000D02*
X152454000Y-93167000D01*
X109868000Y-82696000D02*
X109868000Y-77369000D01*
X152468000Y-140569000D02*
X151198000Y-139299000D01*
X152468000Y-145896000D02*
X152468000Y-140569000D01*
X109868000Y-114296000D02*
X109868000Y-108969000D01*
X152461000Y-114295000D02*
X152461000Y-108968000D01*
X152461000Y-108968000D02*
X151191000Y-107698000D01*
X109861000Y-45768000D02*
X108591000Y-44498000D01*
X109861000Y-93168000D02*
X108591000Y-91898000D01*
X109868000Y-61569000D02*
X108598000Y-60299000D01*
X152454000Y-93167000D02*
X151184000Y-91897000D01*
X109868000Y-77369000D02*
X108598000Y-76099000D01*
X152454000Y-51094000D02*
X152454000Y-45767000D01*
X152461000Y-77368000D02*
X151191000Y-76098000D01*
X152461000Y-61568000D02*
X151191000Y-60298000D01*
X152461000Y-82695000D02*
X152461000Y-77368000D01*
X109875000Y-145897000D02*
X109875000Y-140570000D01*
X109861000Y-98495000D02*
X109861000Y-93168000D01*
X152454000Y-45767000D02*
X151184000Y-44497000D01*
X109868000Y-108969000D02*
X108598000Y-107699000D01*
X152461000Y-124768000D02*
X151191000Y-123498000D01*
X109861000Y-51095000D02*
X109861000Y-45768000D01*
X109868000Y-66896000D02*
X109868000Y-61569000D01*
X109868000Y-124769000D02*
X108598000Y-123499000D01*
X152461000Y-130095000D02*
X152461000Y-124768000D01*
X152461000Y-66895000D02*
X152461000Y-61568000D01*
X109875000Y-140570000D02*
X108605000Y-139300000D01*
X109868000Y-130096000D02*
X109868000Y-124769000D01*
%TO.N,Net-(J1-Pin_3)*%
X148651000Y-113279000D02*
X148651000Y-117198000D01*
X106051000Y-97479000D02*
X106051000Y-101398000D01*
X106065000Y-144881000D02*
X106065000Y-148800000D01*
X106058000Y-129080000D02*
X106058000Y-132999000D01*
X148651000Y-129079000D02*
X148651000Y-132998000D01*
X106051000Y-50079000D02*
X106051000Y-53998000D01*
X148651000Y-65879000D02*
X148651000Y-69798000D01*
X106058000Y-65880000D02*
X106058000Y-69799000D01*
X148644000Y-50078000D02*
X148644000Y-53997000D01*
X148644000Y-97478000D02*
X148644000Y-101397000D01*
X106058000Y-81680000D02*
X106058000Y-85599000D01*
X106058000Y-113280000D02*
X106058000Y-117199000D01*
X148651000Y-81679000D02*
X148651000Y-85598000D01*
X148658000Y-144880000D02*
X148658000Y-148799000D01*
%TO.N,Net-(J1-Pin_1)*%
X146365000Y-80409000D02*
X143571000Y-83203000D01*
X100978000Y-67404000D02*
X100978000Y-69799000D01*
X143571000Y-69798000D02*
X143571000Y-69181000D01*
X100978000Y-83204000D02*
X100978000Y-85599000D01*
X100978000Y-132999000D02*
X100978000Y-132382000D01*
X143571000Y-114803000D02*
X143571000Y-117198000D01*
X100978000Y-85599000D02*
X100978000Y-84982000D01*
X103765000Y-47793000D02*
X103765000Y-48809000D01*
X143564000Y-53997000D02*
X143564000Y-53380000D01*
X146365000Y-126793000D02*
X146365000Y-127809000D01*
X103765000Y-48809000D02*
X100971000Y-51603000D01*
X146358000Y-95192000D02*
X146358000Y-96208000D01*
X146372000Y-142594000D02*
X146372000Y-143610000D01*
X100985000Y-148800000D02*
X100985000Y-148183000D01*
X143571000Y-85598000D02*
X143571000Y-84981000D01*
X143571000Y-117198000D02*
X143571000Y-116581000D01*
X100971000Y-101398000D02*
X100971000Y-100781000D01*
X146372000Y-143610000D02*
X143578000Y-146404000D01*
X146358000Y-96208000D02*
X143564000Y-99002000D01*
X146365000Y-63593000D02*
X146365000Y-64609000D01*
X143571000Y-132998000D02*
X143571000Y-132381000D01*
X103772000Y-127810000D02*
X100978000Y-130604000D01*
X100978000Y-117199000D02*
X100978000Y-116582000D01*
X146358000Y-47792000D02*
X146358000Y-48808000D01*
X103765000Y-95193000D02*
X103765000Y-96209000D01*
X146365000Y-64609000D02*
X143571000Y-67403000D01*
X103779000Y-142595000D02*
X103779000Y-143611000D01*
X103772000Y-63594000D02*
X103772000Y-64610000D01*
X143578000Y-148799000D02*
X143578000Y-148182000D01*
X100978000Y-69799000D02*
X100978000Y-69182000D01*
X100971000Y-53998000D02*
X100971000Y-53381000D01*
X103772000Y-112010000D02*
X100978000Y-114804000D01*
X143571000Y-67403000D02*
X143571000Y-69798000D01*
X103772000Y-64610000D02*
X100978000Y-67404000D01*
X100978000Y-130604000D02*
X100978000Y-132999000D01*
X146365000Y-127809000D02*
X143571000Y-130603000D01*
X143578000Y-146404000D02*
X143578000Y-148799000D01*
X146365000Y-112009000D02*
X143571000Y-114803000D01*
X100978000Y-114804000D02*
X100978000Y-117199000D01*
X143564000Y-51602000D02*
X143564000Y-53997000D01*
X100971000Y-99003000D02*
X100971000Y-101398000D01*
X103772000Y-80410000D02*
X100978000Y-83204000D01*
X103772000Y-110994000D02*
X103772000Y-112010000D01*
X146358000Y-48808000D02*
X143564000Y-51602000D01*
X143564000Y-99002000D02*
X143564000Y-101397000D01*
X103765000Y-96209000D02*
X100971000Y-99003000D01*
X103779000Y-143611000D02*
X100985000Y-146405000D01*
X103772000Y-79394000D02*
X103772000Y-80410000D01*
X143571000Y-130603000D02*
X143571000Y-132998000D01*
X100985000Y-146405000D02*
X100985000Y-148800000D01*
X146365000Y-110993000D02*
X146365000Y-112009000D01*
X103772000Y-126794000D02*
X103772000Y-127810000D01*
X100971000Y-51603000D02*
X100971000Y-53998000D01*
X143571000Y-83203000D02*
X143571000Y-85598000D01*
X146365000Y-79393000D02*
X146365000Y-80409000D01*
X143564000Y-101397000D02*
X143564000Y-100780000D01*
%TD*%
M02*
